<?xml version="1.0" encoding="utf-8"?>
<!-- Generator: Adobe Illustrator 25.2.3, SVG Export Plug-In . SVG Version: 6.00 Build 0)  -->
<svg version="1.1" id="Layer_1" xmlns="http://www.w3.org/2000/svg" xmlns:xlink="http://www.w3.org/1999/xlink" x="0px" y="0px"
	 viewBox="0 0 3300 2200" enable-background="new 0 0 3300 2200" xml:space="preserve">
<g id="Notes">
	<rect id="artboard" y="0" fill="#FFFFFF" width="3300" height="2200"/>
	<line fill="none" stroke="#000000" stroke-width="0.5" x1="263" y1="292" x2="3036" y2="292"/>
	<text transform="matrix(1 0 0 1 263 321.999939)" font-family="'SFProDisplay-Bold'" font-size="13px">Weight/Scale Variations</text>
	<text transform="matrix(1 0 0 1 535.0122681 321.999939)" font-family="'SFProDisplay-Regular'" font-size="13px">Ultralight</text>
	<text transform="matrix(1 0 0 1 844.3900146 321.999939)" font-family="'SFProDisplay-Regular'" font-size="13px">Thin</text>
	<text transform="matrix(1 0 0 1 1139.3619385 321.999939)" font-family="'SFProDisplay-Regular'" font-size="13px">Light</text>
	<text transform="matrix(1 0 0 1 1429.0291748 321.999939)" font-family="'SFProDisplay-Regular'" font-size="13px">Regular</text>
	<text transform="matrix(1 0 0 1 1724.2575684 321.999939)" font-family="'SFProDisplay-Regular'" font-size="13px">Medium</text>
	<text transform="matrix(1 0 0 1 2017.5556641 321.999939)" font-family="'SFProDisplay-Regular'" font-size="13px">Semibold</text>
	<text transform="matrix(1 0 0 1 2327.6750488 321.999939)" font-family="'SFProDisplay-Regular'" font-size="13px">Bold</text>
	<text transform="matrix(1 0 0 1 2619.2561035 321.999939)" font-family="'SFProDisplay-Regular'" font-size="13px">Heavy</text>
	<text transform="matrix(1 0 0 1 2918.4702148 321.999939)" font-family="'SFProDisplay-Regular'" font-size="13px">Black</text>
	<line fill="none" stroke="#000000" stroke-width="0.5" x1="263" y1="1903" x2="3036" y2="1903"/>
	<g transform="matrix(1 0 0 1 263 1933)">
		<path d="M9.2480497,0.830078C10.3287497,0.8300779,11.344367,0.625,12.2948999,0.214844
			c0.9505339-0.4101567,1.7887669-0.979818,2.5146999-1.708984c0.7258663-0.7291666,1.2955332-1.5690097,1.7090006-2.5195298
			c0.4134007-0.95052,0.6201-1.9628901,0.6201-3.0371099s-0.2066994-2.0865941-0.6201-3.0371203
			c-0.4134674-0.9505329-0.984767-1.7903662-1.7139006-2.5194998c-0.7291994-0.7292004-1.5690327-1.2988663-2.5194998-1.7089996
			c-0.9505339-0.4101334-1.9661732-0.6152-3.0469198-0.6152c-1.0742207,0-2.0865903,0.2050667-3.0371103,0.6152
			s-1.7871065,0.9797993-2.5097599,1.7089996C2.96875-11.8782663,2.4007132-11.0384331,1.9873-10.0879002
			C1.5738934-9.1373739,1.36719-8.125,1.36719-7.0507798S1.5738934-4.96419,1.9873-4.01367
			C2.4007132-3.0631497,2.9703767-2.2233067,3.69629-1.49414s1.5641298,1.2988274,2.5146499,1.708984
			C7.1614604,0.625,8.17383,0.8300779,9.2480497,0.830078z M9.2480497-0.654297c-0.8854198,0-1.71387-0.1643876-2.4853497-0.493163
			c-0.7714868-0.3287734-1.4485698-0.78613-2.03125-1.3720701C4.1487632-3.1054699,3.6930332-3.7858098,3.36426-4.5605502
			c-0.3287802-0.7747402-0.49317-1.6048164-0.49317-2.4902296c0-0.8854198,0.1627634-1.7155004,0.4882901-2.4902406
			c0.32552-0.7747192,0.7796199-1.4550467,1.3623002-2.0409794c0.5826797-0.5859337,1.2597632-1.0433006,2.03125-1.3720999
			C7.5244164-13.2829008,8.3528671-13.4473,9.2382803-13.4473c0.8919458,0,1.7236528,0.1643991,2.49512,0.4932003
			c0.7714672,0.3287992,1.4501667,0.7861662,2.0360994,1.3720999c0.5859337,0.5859327,1.0449333,1.2662601,1.3769999,2.0409794
			c0.3320007,0.7747402,0.4980001,1.6048207,0.4980001,2.4902406c0,0.8854132-0.1643667,1.7154894-0.4931002,2.4902296
			c-0.3287992,0.7747405-0.7845325,1.4550803-1.3671999,2.0410202c-0.5826664,0.5859401-1.2613993,1.0432967-2.0361996,1.3720701
			C10.9732666-0.8186846,10.1399498-0.654297,9.2480497-0.654297z M5.8398399-7.0410199
			c0,0.2148466,0.0683599,0.3890028,0.20508,0.52247c0.1367202,0.13346,0.3190136,0.2001901,0.5468802,0.2001901h1.9140601v1.92383
			c0,0.2213535,0.0667295,0.4003899,0.2001896,0.5371099c0.1334667,0.1367199,0.3076229,0.20508,0.5224705,0.20508
			c0.2213535,0,0.4003859-0.0683601,0.5370998-0.20508c0.1367197-0.1367199,0.20508-0.3157563,0.20508-0.5371099v-1.92383h1.9237995
			c0.2213993,0,0.4004335-0.06673,0.5370998-0.2001901c0.1367331-0.1334672,0.2051001-0.3076234,0.2051001-0.52247
			c0-0.2213535-0.068367-0.4003868-0.2051001-0.5371003c-0.1366663-0.1367197-0.3157005-0.2050796-0.5370998-0.2050796H9.9707003
			v-1.9140706c0-0.2278862-0.0683603-0.4101629-0.20508-0.5468292c-0.136714-0.1367331-0.3157463-0.2051001-0.5370998-0.2051001
			c-0.2148476,0-0.3890038,0.068367-0.5224705,0.2051001c-0.13346,0.1366663-0.2001896,0.318943-0.2001896,0.5468292v1.9140706
			H6.5918002c-0.2278666,0-0.4101601,0.0683599-0.5468802,0.2050796C5.9081998-7.4414067,5.8398399-7.2623734,5.8398399-7.0410199z"
			/>
	</g>
	<g transform="matrix(1 0 0 1 281.867 1933)">
		<path d="M11.7089996,2.9101601c1.3606672,0,2.6416006-0.2604167,3.8428001-0.78125
			c1.2011337-0.5208334,2.2607002-1.2402358,3.1786995-2.1582069c0.9179344-0.9179688,1.6373348-1.9775398,2.1582012-3.1787131
			c0.5207996-1.2011731,0.7812004-2.4820969,0.7812004-3.8427699c0-1.3606801-0.2604008-2.6416202-0.7812004-3.8428206
			c-0.5208664-1.2011337-1.2402668-2.2606993-2.1582012-3.1786995c-0.9179993-0.9179335-1.9792004-1.6373329-3.1835995-2.1581993
			c-1.2044668-0.5207996-2.4870329-0.7812004-3.8477001-0.7812004s-2.6415825,0.2604008-3.8427491,0.7812004
			c-1.2011733,0.5208664-2.2591166,1.2402658-3.17383,2.1581993c-0.9147131,0.9180002-1.6324866,1.9775658-2.1533201,3.1786995
			C2.0084672-9.6924,1.7480505-8.4114599,1.7480503-7.0507798C1.7480505-5.6901069,2.0084672-4.409183,2.5293005-3.20801
			s1.2402332,2.2607443,2.1582,3.1787131c0.9179664,0.9179712,1.9775367,1.6373736,3.17871,2.1582069
			S10.3483133,2.9101601,11.7089996,2.9101601z M11.7089996,1.25c-1.1523533,0-2.2298326-0.2148436-3.23244-0.644531
			C7.4739599,0.1757813,6.5934277-0.418295,5.8349605-1.17676c-0.75846-0.7584602-1.3509068-1.6389933-1.7773399-2.6416001
			S3.4179704-5.8984399,3.4179704-7.0507798c0-1.1523461,0.2132168-2.2298207,0.6396501-3.2324204
			s1.0172534-1.8847656,1.77246-2.6464996c0.7552066-0.7617331,1.6341133-1.3557997,2.6367192-1.7821999
			c1.0025997-0.4264669,2.0800667-0.6396999,3.2323999-0.6396999s2.2298002,0.213233,3.2323999,0.6396999
			c1.0025997,0.4264002,1.8847666,1.0204668,2.6465006,1.7821999c0.761734,0.761734,1.3574333,1.6438999,1.7870998,2.6464996
			C19.7949333-9.2806005,20.0098-8.203126,20.0098-7.0507798c0,1.1523399-0.213232,2.2298131-0.6396999,3.2324197
			c-0.4263992,1.0026069-1.0188332,1.88314-1.7772999,2.6416001c-0.7584667,0.7584649-1.6406336,1.3525413-2.6465006,1.7822289
			S12.8613329,1.25,11.7089996,1.25z M7.3925805-7.0410199c0,0.2343798,0.0781231,0.4264402,0.2343698,0.57618
			C7.7832036-6.3151002,7.9850273-6.2402301,8.23242-6.2402301h2.6464796v2.6660101
			c0,0.2408867,0.0748663,0.4378266,0.2246008,0.5908198c0.1497335,0.1529932,0.3417997,0.22949,0.5761995,0.22949
			c0.2474003,0,0.449234-0.0764968,0.6055002-0.22949c0.1561995-0.1529932,0.2342997-0.3499331,0.2342997-0.5908198v-2.6660101
			h2.6563005c0.2408667,0,0.4394331-0.0748701,0.5956993-0.2246099s0.2343998-0.3418002,0.2343998-0.57618
			c0-0.2473936-0.0781336-0.447587-0.2343998-0.6005802s-0.3548326-0.2294898-0.5956993-0.2294898h-2.6563005v-2.6465101
			c0-0.2538662-0.0781002-0.4573002-0.2342997-0.6103001c-0.1562662-0.1529999-0.3580999-0.2294998-0.6055002-0.2294998
			c-0.2343998,0-0.426466,0.0764999-0.5761995,0.2294998c-0.1497345,0.1529999-0.2246008,0.3564339-0.2246008,0.6103001v2.6465101
			H8.23242c-0.2539062,0-0.4573565,0.0764966-0.6103497,0.2294898S7.3925805-7.2884135,7.3925805-7.0410199z"/>
	</g>
	<g transform="matrix(1 0 0 1 305.646 1933)">
		<path d="M14.9707003,5.6640601c1.393199,0,2.7229662-0.2164702,3.9892988-0.6494102
			c1.2662678-0.4329467,2.4300003-1.0400431,3.4912014-1.8212898c1.0611992-0.7812533,1.9840317-1.7024773,2.7684994-2.7636721
			c0.7845325-1.0611987,1.3932667-2.2265646,1.8262005-3.496098c0.4329338-1.2695265,0.6493988-2.5976501,0.6493988-3.9843698
			c0-1.3932271-0.216465-2.7229667-0.6493988-3.9892201c-0.4329338-1.2663326-1.0416679-2.4300671-1.8262005-3.4912004
			c-0.7844677-1.0611992-1.7073002-1.984066-2.7684994-2.7686005c-1.0612011-0.7845325-2.2265682-1.3932667-3.4961014-1.8261986
			c-1.2695312-0.4329338-2.6009331-0.6494007-3.9941988-0.6494007c-1.3931999,0-2.7229328,0.2164669-3.9892006,0.6494007
			c-1.2662859,0.4329319-2.4284029,1.041666-3.4863496,1.8261986c-1.05794,0.7845345-1.9791632,1.7074013-2.76367,2.7686005
			C3.9371731-13.470067,3.3300765-12.3063326,2.9003899-11.04c-0.4296865,1.2662535-0.6445298,2.595993-0.6445298,3.9892201
			c0,1.3867197,0.21647,2.7148433,0.64941,3.9843698c0.4329467,1.2695335,1.0400431,2.4348993,1.82129,3.496098
			c0.7812529,1.0611948,1.7024765,1.9824188,2.76367,2.7636721c1.0612006,0.7812467,2.2249236,1.3883431,3.4911695,1.8212898
			C12.2477341,5.4475899,13.5775003,5.6640601,14.9707003,5.6640601z M14.9707003,3.8476601
			c-1.2044001,0-2.3518677-0.1839199-3.4424-0.55176c-1.0904799-0.3678403-2.0881939-0.88379-2.9931402-1.5478501
			c-0.904953-0.6640646-1.6910863-1.4501987-2.3583999-2.358402C5.5094399-1.5185572,4.9934897-2.5179067,4.6289101-3.6084001
			C4.2643232-4.6988935,4.0820298-5.8463535,4.0820298-7.0507798c0-1.2109399,0.1822934-2.3616471,0.5468802-3.4521203
			c0.3645797-1.0905333,0.8789029-2.0899,1.5429697-2.9981003c0.6640601-0.9081993,1.4485636-1.6943321,2.3535099-2.3583994
			c0.9049463-0.6640663,1.9026833-1.1783657,2.9932108-1.5429001c1.0904665-0.3645992,2.2378998-0.5468998,3.4422998-0.5468998
			c1.2109327,0,2.3616648,0.1823006,3.452199,0.5468998c1.0904655,0.3645344,2.0897999,0.8788338,2.9980011,1.5429001
			c0.9081993,0.6640673,1.6943321,1.4502001,2.3584003,2.3583994c0.6640682,0.9082003,1.1800327,1.907567,1.5478992,2.9981003
			c0.3678017,1.0904732,0.5517006,2.2411804,0.5517006,3.4521203c0.0065327,1.2044263-0.1725006,2.3518863-0.5370998,3.4423797
			c-0.3645325,1.0904934-0.8804684,2.0898428-1.5478001,2.9980481c-0.6673336,0.9082034-1.455101,1.6943374-2.3633003,2.358402
			c-0.9081993,0.6640601-1.9075336,1.1800098-2.9980011,1.5478501C17.3323669,3.6637402,16.181633,3.8476601,14.9707003,3.8476601z
			 M9.4531202-7.0410199c0,0.2539067,0.0862637,0.46387,0.25879,0.62989
			c0.1725264,0.1660132,0.3922567,0.2490201,0.6591902,0.2490201H14.0625v3.70117
			c0,0.2669265,0.0830002,0.4850265,0.2489996,0.6542999c0.1660004,0.1692734,0.375967,0.2539101,0.6299,0.2539101
			c0.2734671,0,0.4948339-0.0846367,0.6641006-0.2539101c0.1692657-0.1692734,0.2539005-0.3873733,0.2538996-0.6542999v-3.70117
			h3.7010994c0.2669334,0,0.485033-0.0830069,0.6543007-0.2490201c0.1693325-0.1660199,0.2539997-0.3759832,0.2539997-0.62989
			c0-0.2734332-0.0846672-0.4947867-0.2539997-0.6640601c-0.1692677-0.1692662-0.3873672-0.2539001-0.6543007-0.2539001h-3.7010994
			v-3.6914201c0.000001-0.2734003-0.0846338-0.4947672-0.2538996-0.6640997
			c-0.1692667-0.1692677-0.3906336-0.2539005-0.6641006-0.2539005c-0.253933,0-0.4638996,0.0862675-0.6299,0.2588005
			c-0.1659994,0.172533-0.2489996,0.3922672-0.2489996,0.6591997v3.6914201h-3.6913996
			c-0.2734404,0-0.4947968,0.0846338-0.6640701,0.2539001C9.5377569-7.5358067,9.4531202-7.3144531,9.4531202-7.0410199z"/>
	</g>
	<text transform="matrix(1 0 0 1 263 1953)" font-family="'SFProDisplay-Bold'" font-size="13px">Design Variations</text>
	<text transform="matrix(1 0 0 1 263 1971)" font-family="'SFProDisplay-Regular'" font-size="13px">Symbols are supported in up to nine weights and three scales.</text>
	<text transform="matrix(1 0 0 1 263 1989)" font-family="'SFProDisplay-Regular'" font-size="13px">For optimal layout with text and other symbols, vertically align</text>
	<text transform="matrix(1 0 0 1 263 2007)" font-family="'SFProDisplay-Regular'" font-size="13px">symbols with the adjacent text.</text>
	<line fill="none" stroke="#00AEEF" stroke-width="0.5" x1="776" y1="1919" x2="776" y2="1933"/>
	<g transform="matrix(1 0 0 1 776 1933)">
		<path d="M3.31055,0.15625c0.2604132,0,0.4622364-0.0553385,0.6054699-0.1660156
			C4.0592465-0.1204425,4.1764331-0.3125,4.26758-0.585938l1.2597599-3.4472618h5.7617598l1.2597008,3.4472618
			c0.0911331,0.273438,0.208333,0.4654954,0.3515997,0.5761724c0.143199,0.1106771,0.3417673,0.1660156,0.5957003,0.1660156
			c0.2603998,0,0.4670992-0.0716146,0.6201-0.2148438c0.1529999-0.1432295,0.2294998-0.3385418,0.2294998-0.5859372
			c0-0.14974-0.035799-0.325523-0.1073999-0.527349L9.6582003-13.3690996
			c-0.1171875-0.2995338-0.2766895-0.524168-0.4785099-0.6739006c-0.201827-0.1497335-0.4589901-0.2245998-0.7714901-0.2245998
			c-0.6054673,0-1.0156236,0.2962332-1.2304702,0.8887005L2.5976601-1.16211c-0.07162,0.2018234-0.10743,0.3776046-0.10743,0.527344
			c0,0.247396,0.0732434,0.441081,0.2197299,0.5810551S3.0566432,0.15625,3.31055,0.15625z M6.0058599-5.51758l2.3730502-6.5722198
			h0.0488195L10.8008003-5.51758H6.0058599z"/>
	</g>
	<line fill="none" stroke="#00AEEF" stroke-width="0.5" x1="793.1970215" y1="1919" x2="793.1970215" y2="1933"/>
	<text transform="matrix(1 0 0 1 776 1953)" font-family="'SFProDisplay-Bold'" font-size="13px">Margins</text>
	<text transform="matrix(1 0 0 1 776 1971)" font-family="'SFProDisplay-Regular'" font-size="13px">Leading and trailing margins on the left and right side of each symbol</text>
	<text transform="matrix(1 0 0 1 776 1989)" font-family="'SFProDisplay-Regular'" font-size="13px">can be adjusted by modifying the x-location of the margin guidelines.</text>
	<text transform="matrix(1 0 0 1 776 2007)" font-family="'SFProDisplay-Regular'" font-size="13px">Modifications are automatically applied proportionally to all</text>
	<text transform="matrix(1 0 0 1 776 2025)" font-family="'SFProDisplay-Regular'" font-size="13px">scales and weights.</text>
	<g transform="matrix(1 0 0 1 1289 1933)">
		<path d="M2.8418,1.86523l1.6992199,1.70899c0.429687,0.4361999,0.8837867,0.6380236,1.3622999,0.6054699
			c0.4785137-0.0325532,0.9488897-0.30599,1.41113-0.8203099L18.0077991-8.4277296l-0.9667988-0.9765701L6.4257798,2.2753899
			C6.25,2.47721,6.0725899,2.5911434,5.8935499,2.6171899c-0.1790328,0.0260401-0.3857369-0.0781267-0.62011-0.3125
			L4.1015601,1.14258c-0.2343733-0.234376-0.33691-0.4410824-0.30761-0.620119
			c0.0292933-0.1790367,0.14485-0.3597007,0.3466702-0.5419922L15.6152-10.8203001l-0.9765005-0.9667997L3.04688-0.898438
			C2.5520866-0.4427086,2.2867866,0.0227863,2.2509799,0.498047C2.2151732,0.973309,2.4121132,1.4290366,2.8418,1.86523z
			 M9.2578096-16.3281002C9.0494766-16.1262989,8.9322901-15.8951998,8.90625-15.6348
			c-0.0260401,0.2604666,0.0195341,0.4883337,0.1367197,0.6836004c0.1171865,0.182333,0.288084,0.319066,0.5126905,0.4101992
			c0.2246132,0.0911331,0.4996939,0.0976334,0.8252401,0.0195007c0.7291336-0.1692667,1.4680653-0.239234,2.2167997-0.2098999
			c0.7486668,0.0292664,1.4810667,0.2782669,2.1971998,0.7469997l-0.5859003,1.4551001
			c-0.1692657,0.416667-0.216466,0.7796326-0.1415997,1.0888996c0.0748663,0.3092003,0.2457666,0.6005335,0.5127001,0.8740005
			L16.875-8.2519503c0.2408657,0.2473936,0.4752331,0.3906202,0.7031002,0.4296803
			c0.2278671,0.0390668,0.4817677,0.0325565,0.7616997-0.0195303l1.0645008-0.1953101l0.6640987,0.6738305l-0.0390987,0.5566397
			c-0.0195332,0.2473936,0.0114002,0.4752569,0.0928001,0.6835899c0.0813332,0.2083335,0.242466,0.4329433,0.4833984,0.67383
			l0.7617016,0.7421904c0.2408676,0.2408867,0.5028992,0.3662133,0.7860985,0.3759799
			c0.2832012,0.0097599,0.5419998-0.1025472,0.7764015-0.3369203l2.910099-2.91992
			c0.2344017-0.2343731,0.3483334-0.4899068,0.3418007-0.7666001c-0.0064678-0.2766933-0.1301689-0.5354834-0.3711014-0.77637
			L25.0391006-9.89258c-0.2343998-0.24088-0.454134-0.4052534-0.6592007-0.4931202
			c-0.2050667-0.0879335-0.4280663-0.1221333-0.6690006-0.1026001L23.1348-10.4394999L22.4902-11.0741997L22.7343998-12.1973
			c0.0650673-0.2799339,0.0520325-0.5419664-0.0391006-0.7861004s-0.2831993-0.5127001-0.5761986-0.8056993l-2.1972008-2.1875
			c-0.8333321-0.8268003-1.7203999-1.4469004-2.6611996-1.860301c-0.940733-0.4133987-1.8880005-0.628233-2.8418007-0.6444988
			c-0.9537325-0.0163326-1.8716993,0.1578007-2.7538996,0.5223999C10.7828665-17.5944004,9.9804697-17.050766,9.2578096-16.3281002z
			 M10.7519999-15.9569998c0.6054668-0.4427328,1.2548666-0.7585001,1.9482002-0.9473009
			c0.6933327-0.1887989,1.3948326-0.249033,2.1044998-0.1806984c0.7096004,0.0683994,1.3980665,0.2588329,2.0654001,0.5712986
			c0.6673317,0.3125343,1.2776985,0.7487326,1.8311005,1.3086004l2.4315987,2.4120998
			c0.1172009,0.1171999,0.1904335,0.2311335,0.2197018,0.3418007c0.0293331,0.1106663,0.0244656,0.2506657-0.0146008,0.4199991
			l-0.3223,1.4843006L22.5195007-9.0625l0.9863987-0.0585899c0.1236687-0.0065136,0.2180691,0.0016232,0.2832012,0.0244102
			c0.0650654,0.0227861,0.146431,0.0830069,0.2440987,0.1806593l0.5762005,0.5761805l-2.4414005,2.4414001l-0.5761986-0.57617
			C21.494133-6.5722632,21.4322662-6.6536431,21.4062004-6.71875c-0.0259991-0.0651069-0.0357323-0.1627636-0.0291996-0.2929702
			l0.0682983-0.9765596l-1.4940987-1.4843802L18.4277-9.21875c-0.1627331,0.0325537-0.2912998,0.0374365-0.3857002,0.0146503
			c-0.0944004-0.0227871-0.2034664-0.0927744-0.3271999-0.20996l-2.0018997-2.0019407
			c-0.1302004-0.1171999-0.203433-0.2294998-0.2196999-0.3368998c-0.0162668-0.1074667,0.0146322-0.2523336,0.0927-0.4345999
			l0.8788996-2.0897999c-0.7811995-0.7292004-1.6601-1.2337675-2.6366997-1.5137005
			c-0.9765329-0.279932-1.9726343-0.2701664-2.9883003,0.0293007c-0.0780659,0.0195322-0.1285,0.0048666-0.1512995-0.0440006
			C10.6657-15.8544998,10.6868668-15.904933,10.7519999-15.9569998z"/>
	</g>
	<text transform="matrix(1 0 0 1 1289 1953)" font-family="'SFProDisplay-Bold'" font-size="13px">Exporting</text>
	<text transform="matrix(1 0 0 1 1289 1971)" font-family="'SFProDisplay-Regular'" font-size="13px">Symbols should be outlined when exporting to ensure the</text>
	<text transform="matrix(1 0 0 1 1289 1989)" font-family="'SFProDisplay-Regular'" font-size="13px">design is preserved when submitting to Xcode.</text>
	
		<text id="template-version" transform="matrix(1 0 0 1 2956.4257812 1933)" font-family="'SFProDisplay-Regular'" font-size="13px">Template v.3.0</text>
	<text transform="matrix(1 0 0 1 2880.0063477 1951)" font-family="'SFProDisplay-Regular'" font-size="13px">Requires Xcode 13 or greater</text>
	
		<text id="descriptive-name" transform="matrix(1 0 0 1 2889.3754883 1969)" font-family="'SFProDisplay-Regular'" font-size="13px">Generated from trash.circle</text>
	<text transform="matrix(1 0 0 1 2919.7490234 1987)" font-family="'SFProDisplay-Regular'" font-size="13px">Typeset at 100 points</text>
	<text transform="matrix(1 0 0 1 263 726)" font-family="'SFProDisplay-Regular'" font-size="13px">Small</text>
	<text transform="matrix(1 0 0 1 263 1156)" font-family="'SFProDisplay-Regular'" font-size="13px">Medium</text>
	<text transform="matrix(1 0 0 1 263 1586)" font-family="'SFProDisplay-Regular'" font-size="13px">Large</text>
</g>
<g id="Guides">
	<g id="H-reference" transform="matrix(1 0 0 1 339 696)">
		<path fill="#27AAE1" d="M0.976562,0h2.6855481l25.6835899-67.1387024h0.6836014v-3.3202972H28.125L0.976562,0z
			 M11.6698999-24.4629002h35.3027992L46.2402-26.7089996H12.4511995L11.6698999-24.4629002z M55.1269989,0h2.6366997
			L30.6152-70.4589996h-1.1718006v3.3202972L55.1269989,0z"/>
	</g>
	<line id="Baseline-S" fill="none" stroke="#27AAE1" stroke-width="0.5" x1="263" y1="696" x2="3036" y2="696"/>
	<line id="Capline-S" fill="none" stroke="#27AAE1" stroke-width="0.5" x1="263" y1="625.5410156" x2="3036" y2="625.5410156"/>
	<g id="H-reference_1_" transform="matrix(1 0 0 1 339 1126)">
		<path fill="#27AAE1" d="M0.976562,0h2.6855481l25.6835899-67.1387024h0.6836014v-3.3202972H28.125L0.976562,0z
			 M11.6698999-24.4629002h35.3027992L46.2402-26.7089996H12.4511995L11.6698999-24.4629002z M55.1269989,0h2.6366997
			L30.6152-70.4589996h-1.1718006v3.3202972L55.1269989,0z"/>
	</g>
	<line id="Baseline-M" fill="none" stroke="#27AAE1" stroke-width="0.5" x1="263" y1="1126" x2="3036" y2="1126"/>
	<line id="Capline-M" fill="none" stroke="#27AAE1" stroke-width="0.5" x1="263" y1="1055.5400391" x2="3036" y2="1055.5400391"/>
	<g id="H-reference_2_" transform="matrix(1 0 0 1 339 1556)">
		<path fill="#27AAE1" d="M0.976562,0h2.6855481l25.6835899-67.1387024h0.6836014v-3.3202972H28.125L0.976562,0z
			 M11.6698999-24.4629002h35.3027992L46.2402-26.7089996H12.4511995L11.6698999-24.4629002z M55.1269989,0h2.6366997
			L30.6152-70.4589996h-1.1718006v3.3202972L55.1269989,0z"/>
	</g>
	<line id="Baseline-L" fill="none" stroke="#27AAE1" stroke-width="0.5" x1="263" y1="1556" x2="3036" y2="1556"/>
	<line id="Capline-L" fill="none" stroke="#27AAE1" stroke-width="0.5" x1="263" y1="1485.5400391" x2="3036" y2="1485.5400391"/>
	
		<line id="left-margin-Ultralight-S" fill="none" stroke="#00AEEF" stroke-width="0.5" x1="504.0772705" y1="600.7849731" x2="504.0772705" y2="720.1209717"/>
	
		<line id="right-margin-Ultralight-S" fill="none" stroke="#00AEEF" stroke-width="0.5" x1="619.1387939" y1="600.7849731" x2="619.1387939" y2="720.1209717"/>
	
		<line id="left-margin-Regular-S" fill="none" stroke="#00AEEF" stroke-width="0.5" x1="1392.1262207" y1="600.7849731" x2="1392.1262207" y2="720.1209717"/>
	
		<line id="right-margin-Regular-S" fill="none" stroke="#00AEEF" stroke-width="0.5" x1="1511.5805664" y1="600.7849731" x2="1511.5805664" y2="720.1209717"/>
	
		<line id="left-margin-Black-S" fill="none" stroke="#00AEEF" stroke-width="0.5" x1="2870.8876953" y1="600.7849731" x2="2870.8876953" y2="720.1209717"/>
	
		<line id="right-margin-Black-S" fill="none" stroke="#00AEEF" stroke-width="0.5" x1="3000.2736816" y1="600.7849731" x2="3000.2736816" y2="720.1209717"/>
</g>
<g id="Symbols">
	<g id="Black-S">
		<path d="M2912.6938477,605.7717285c1.3210449,0,2.3918457,1.0709229,2.3918457,2.3917236
			c0,1.3209839-1.0708008,2.3917236-2.3918457,2.3917236c-1.3208008,0-2.3916016-1.0707397-2.3916016-2.3917236
			C2910.3022461,606.8426514,2911.3730469,605.7717285,2912.6938477,605.7717285z"/>
		<path d="M2942.0864258,608.796936c2.4619141,0,4.4572754,1.9957886,4.4572754,4.4573364
			c0,2.461853-1.9953613,4.4573975-4.4572754,4.4573975c-2.4616699,0-4.4570312-1.9955444-4.4570312-4.4573975
			C2937.6293945,610.7927246,2939.6247559,608.796936,2942.0864258,608.796936z"/>
		<path d="M2902.7092285,622.7384644c1.8515625,0,3.3522949,1.5010376,3.3522949,3.352356
			c0,1.8515015-1.5007324,3.3522949-3.3522949,3.3522949c-1.8513184,0-3.3520508-1.5007935-3.3520508-3.3522949
			C2899.3571777,624.239502,2900.8579102,622.7384644,2902.7092285,622.7384644z"/>
		<path d="M2975.7558594,633.517395c2.0837402,0,3.7729492,1.6893921,3.7729492,3.7730103
			c0,2.0838623-1.689209,3.7730103-3.7729492,3.7730103s-3.7729492-1.6891479-3.7729492-3.7730103
			C2971.9829102,635.2067871,2973.6721191,633.517395,2975.7558594,633.517395z"/>
		<path d="M2885.3452148,653.9450684c2.4619141,0,4.4577637,1.9959717,4.4577637,4.4577637
			c0,2.4619751-1.9958496,4.4577026-4.4577637,4.4577026c-2.4616699,0-4.4575195-1.9957275-4.4575195-4.4577026
			C2880.8876953,655.94104,2882.8835449,653.9450684,2885.3452148,653.9450684z"/>
		<path d="M2932.8322754,704.4176636c1.5786133,0,2.8581543,1.2797241,2.8581543,2.8581543
			c0,1.5786133-1.279541,2.8582153-2.8581543,2.8582153c-1.5783691,0-2.8581543-1.2796021-2.8581543-2.8582153
			C2929.9741211,705.6973877,2931.2539062,704.4176636,2932.8322754,704.4176636z"/>
		<path d="M2899.4033203,688.7053223c1.1337891,0,2.0532227,0.9193115,2.0532227,2.0531616
			c0,1.1339722-0.9194336,2.0531616-2.0532227,2.0531616c-1.1340332,0-2.0532227-0.9191895-2.0532227-2.0531616
			C2897.3500977,689.6246338,2898.2692871,688.7053223,2899.4033203,688.7053223z"/>
		<path d="M2961.767334,695.8757935c2.5588379,0,4.6330566,2.0744629,4.6330566,4.6330566
			c0,2.5588379-2.0742188,4.6330566-4.6330566,4.6330566c-2.5585938,0-4.6328125-2.0742188-4.6328125-4.6330566
			C2957.1345215,697.9502563,2959.2087402,695.8757935,2961.767334,695.8757935z"/>
		<path d="M2982.6745605,660.8532715c1.5219727,0,2.7558594,1.2340088,2.7558594,2.7560425
			c0,1.5221558-1.2338867,2.7559814-2.7558594,2.7559814c-1.5222168,0-2.7558594-1.2338257-2.7558594-2.7559814
			C2979.9187012,662.0872803,2981.1523438,660.8532715,2982.6745605,660.8532715z"/>
		<path d="M2988.223877,647.6064453c1.1320801,0,2.0498047,0.9177246,2.0498047,2.0496826
			c0,1.1320801-0.9177246,2.0497437-2.0498047,2.0497437c-1.1318359,0-2.0495605-0.9176636-2.0495605-2.0497437
			C2986.1743164,648.5241699,2987.092041,647.6064453,2988.223877,647.6064453z"/>
		<path d="M2976.1206055,653.8428955c0,3.5245361-1.6989746,6.6253052-4.291748,8.6204834
			c1.9348145,3.0114136,3.0705566,6.5852051,3.0705566,10.4301147c0,10.6813965-8.6584473,19.3397217-19.3395996,19.3397217
			c-0.2585449,0-0.5097656-0.0286255-0.7658691-0.0386353c-1.253418,5.8215332-6.4189453,10.1885986-12.6149902,10.1885986
			c-3.420166,0-6.5083008-1.3538208-8.8190918-3.524353c-3.0397949,2.477417-6.9172363,3.9664307-11.1445312,3.9664307
			c-9.6542969,0-17.4870605-7.7519531-17.642334-17.3700562c-7.840332-1.2880249-13.828125-8.0771484-13.828125-16.2828369
			c0-4.8405151,2.0947266-9.1811523,5.4118652-12.2030029c-1.3962402-2.3248291-2.2141113-5.0369263-2.2141113-7.9463501
			c0-7.7473755,5.7004395-14.1468506,13.1318359-15.2779541c3.3049316-8.607605,11.6262207-14.7288818,21.3969727-14.7288818
			c4.6943359,0,9.0551758,1.4160767,12.6901855,3.8359985c2.1662598-0.8130493,4.5024414-1.2788086,6.9526367-1.2788086
			c10.9470215,0,19.8208008,8.8746338,19.8208008,19.8207397c0,0.6386108-0.0366211,1.2684326-0.0957031,1.8915405
			C2972.5881348,644.4683838,2976.1206055,648.7285767,2976.1206055,653.8428955z M2952.8305664,681.3898315
			c3.1242676,0,5.1044922-1.4293213,5.1044922-3.3690186c0-2.3355713-2.5275879-2.7263794-5.5129395-3.0627441
			c-2.9191895-0.3290405-3.4711914-2.3482056-3.4711914-3.7775879c0-1.4291382,0.8513184-4.6835938,2.9594727-9.5362549
			c1.5488281-3.5657349,5.4035645-11.8357544,5.4035645-14.8986816c0-4.1918945-3.3652344-6.8915405-6.9384766-6.8915405
			c-3.9985352,0-4.6911621,1.6040649-5.7727051,1.6040649c-1.3127441,0-2.8408203-3.390686-6.0158691-3.390686
			c-4.338623,0-5.6391602,4.1186523-8.0126953,4.1186523c-2.4875488,0-4.0749512-2.8585205-7.7590332-2.8585205
			c-7.6730957,0-9.4350586,6.7871094-10.6447754,10.4405518c-1.3500977,4.0783691-5.8984375,18.5003662-6.3500977,20.3533325
			c-1.5876465,6.5130005,4.4370117,9.050354,7.286377,9.050354c3.7114258,0,5.6247559-3.0907593,6.543457-5.336792
			c0.8183594-2,7.9145508-19.7610474,8.0654297-20.1123657c0.9082031-2.1131592,2.1467285-2.5553589,3.1933594-2.2889404
			c1.3811035,0.3515625,2.0227051,1.5582275,1.3059082,3.7415161c-0.684082,2.0825806-4.1896973,10.4825439-5.3112793,13.4437866
			c-1.5083008,3.9816895,0.4638672,5.7009277,3.0163574,5.7009277c2.5522461,0,4.2529297-1.9605713,5.4526367-4.6707153
			c1.0534668-2.380188,8.1567383-16.0334473,8.9841309-17.866394c0.8972168-1.9873657,1.9372559-2.5341187,3.0551758-2.2808228
			c1.5622559,0.3538818,1.5065918,1.6984863,0.4855957,3.9445801c-1.020752,2.2460327-3.7402344,8.0537109-5.1740723,10.9959106
			c-1.137207,2.3330078-2.3483887,3.874939-2.3483887,7.6569214
			C2940.375,679.4966431,2948.309082,681.3898315,2952.8305664,681.3898315z"/>
	</g>
	<g id="Regular-S">
		<path d="M1431.0445557,610.718689c1.2010498,0,2.1745605,0.9736938,2.1745605,2.1746216
			c0,1.2009888-0.9735107,2.1745605-2.1745605,2.1745605c-1.2009277,0-2.1744385-0.9735718-2.1744385-2.1745605
			C1428.8701172,611.6923828,1429.8436279,610.718689,1431.0445557,610.718689z"/>
		<path d="M1457.7684326,613.4692383c2.2382812,0,4.0527344,1.8145752,4.0527344,4.0526733
			c0,2.2382812-1.8144531,4.0526733-4.0527344,4.0526733c-2.2380371,0-4.0523682-1.8143921-4.0523682-4.0526733
			C1453.7160645,615.2838135,1455.5303955,613.4692383,1457.7684326,613.4692383z"/>
		<path d="M1421.9665527,626.1449585c1.6833496,0,3.0479736,1.3647461,3.0479736,3.0479736
			c0,1.6834106-1.364624,3.0479736-3.0479736,3.0479736c-1.6832275,0-3.0478516-1.364563-3.0478516-3.0479736
			C1418.9187012,627.5097046,1420.2833252,626.1449585,1421.9665527,626.1449585z"/>
		<path d="M1488.3808594,635.9452515c1.8946533,0,3.430542,1.5359497,3.430542,3.4304199
			c0,1.8946533-1.5358887,3.430481-3.430542,3.430481c-1.8944092,0-3.4302979-1.5358276-3.4302979-3.430481
			C1484.9505615,637.4812012,1486.4864502,635.9452515,1488.3808594,635.9452515z"/>
		<path d="M1406.1789551,654.5182495c2.2385254,0,4.0529785,1.8146973,4.0529785,4.0529785
			c0,2.2384644-1.8144531,4.0529785-4.0529785,4.0529785c-2.2382812,0-4.0527344-1.8145142-4.0527344-4.0529785
			C1402.1262207,656.3329468,1403.9406738,654.5182495,1406.1789551,654.5182495z"/>
		<path d="M1449.3544922,700.4082031c1.4353027,0,2.5986328,1.1635742,2.5986328,2.5986938
			c0,1.4352417-1.1633301,2.5986328-2.5986328,2.5986328c-1.4351807,0-2.5985107-1.1633911-2.5985107-2.5986328
			C1446.7559814,701.5717773,1447.9193115,700.4082031,1449.3544922,700.4082031z"/>
		<path d="M1418.9606934,686.1224365c1.0310059,0,1.8666992,0.8358154,1.8666992,1.8667603
			c0,1.0310059-0.8356934,1.8667603-1.8666992,1.8667603s-1.8666992-0.8357544-1.8666992-1.8667603
			C1417.0939941,686.958252,1417.9296875,686.1224365,1418.9606934,686.1224365z"/>
		<path d="M1475.6623535,692.6419067c2.3265381,0,4.2124023,1.8860474,4.2124023,4.2124023
			c0,2.3264771-1.8858643,4.2124023-4.2124023,4.2124023c-2.3262939,0-4.2121582-1.8859253-4.2121582-4.2124023
			C1471.4501953,694.5279541,1473.3360596,692.6419067,1475.6623535,692.6419067z"/>
		<path d="M1494.6713867,660.7991943c1.3839111,0,2.5057373,1.1219482,2.5057373,2.5057983
			c0,1.3839722-1.1218262,2.5057983-2.5057373,2.5057983s-2.5057373-1.1218262-2.5057373-2.5057983
			C1492.1656494,661.9211426,1493.2874756,660.7991943,1494.6713867,660.7991943z"/>
		<path d="M1499.7169189,648.7550659c1.0292969,0,1.8636475,0.8344116,1.8636475,1.8636475
			s-0.8343506,1.8635864-1.8636475,1.8635864c-1.0291748,0-1.8635254-0.8343506-1.8635254-1.8635864
			S1498.6877441,648.7550659,1499.7169189,648.7550659z"/>
		<path d="M1488.7125244,654.425293c0,3.2045288-1.5447998,6.0238037-3.9019775,7.8378296
			c1.7589111,2.7380371,2.791748,5.9873047,2.791748,9.4830933c0,9.7116089-7.8724365,17.5838013-17.5838623,17.5838013
			c-0.2351074,0-0.4633789-0.026001-0.6962891-0.0350952c-1.1395264,5.2929688-5.8360596,9.2635498-11.4694824,9.2635498
			c-3.1097412,0-5.9176025-1.230896-8.0184326-3.2044067c-2.763916,2.2525024-6.2891846,3.6063232-10.1326904,3.6063232
			c-8.777832,0-15.8994141-7.0481567-16.0406494-15.7929688c-7.1282959-1.1710815-12.5726318-7.34375-12.5726318-14.8044434
			c0-4.401001,1.9046631-8.3475342,4.9207764-11.0950928c-1.2696533-2.1137085-2.0133057-4.5795898-2.0133057-7.2248535
			c0-7.0439453,5.1829834-12.8624268,11.9396973-13.8908081c3.0047607-7.8261108,10.5705566-13.3916016,19.4541016-13.3916016
			c4.2681885,0,8.2332764,1.2875366,11.538208,3.4877319c1.9694824-0.7392578,4.0936279-1.1626587,6.3212891-1.1626587
			c9.953125,0,18.0211182,8.0688477,18.0211182,18.0210571c0,0.5806274-0.0332031,1.1533203-0.086792,1.7198486
			C1485.5008545,645.9019775,1488.7125244,649.7753906,1488.7125244,654.425293z M1467.5371094,679.4711914
			c2.8405762,0,4.6411133-1.2995605,4.6411133-3.0631714c0-2.1234741-2.2980957-2.4788208-5.0124512-2.784668
			c-2.6540527-0.2991333-3.1560059-2.1350098-3.1560059-3.4345703c0-1.2994385,0.7740479-4.2583618,2.6905518-8.6704712
			c1.4083252-3.2420044,4.913208-10.7611084,4.913208-13.5459595c0-3.8112793-3.0598145-6.2658081-6.3085938-6.2658081
			c-3.635376,0-4.2652588,1.4584351-5.2486572,1.4584351c-1.1934814,0-2.5827637-3.0828857-5.4696045-3.0828857
			c-3.9447021,0-5.1270752,3.744751-7.2851562,3.744751c-2.2617188,0-3.7049561-2.598999-7.0546875-2.598999
			c-6.9763184,0-8.5783691,6.1708984-9.6781006,9.4925537c-1.2276611,3.7081299-5.3630371,16.8207397-5.7736816,18.5054321
			c-1.4434814,5.9216919,4.0340576,8.2286377,6.6248779,8.2286377c3.3743896,0,5.1140137-2.8101196,5.9493408-4.8522949
			c0.7440186-1.8183594,7.1959229-17.9667969,7.3331299-18.2861938c0.8258057-1.9213257,1.9517822-2.3233643,2.9034424-2.0811768
			c1.2556152,0.3197021,1.8391113,1.416748,1.1872559,3.4018555c-0.6218262,1.8934326-3.8092041,9.5307617-4.8291016,12.2231445
			c-1.3712158,3.6201782,0.4219971,5.1833496,2.7425537,5.1833496c2.3206787,0,3.8669434-1.7825928,4.9576416-4.2466431
			c0.9578857-2.1641235,7.4162598-14.5777588,8.168457-16.2442627c0.8156738-1.8069458,1.7613525-2.3040771,2.77771-2.0737305
			c1.4205322,0.3217773,1.369873,1.5442505,0.4416504,3.5864258c-0.9283447,2.0421143-3.4007568,7.3225098-4.7044678,9.9975586
			c-1.0339355,2.1211548-2.1350098,3.5230713-2.1350098,6.961731
			C1456.2125244,677.7498169,1463.4260254,679.4711914,1467.5371094,679.4711914z"/>
	</g>
	<g id="Ultralight-S">
		<path d="M541.7183228,610.7384033c1.1479492,0,2.0784912,0.930603,2.0784912,2.0784912
			c0,1.1480103-0.930542,2.0785522-2.0784912,2.0785522c-1.1478882,0-2.0784302-0.930542-2.0784302-2.0785522
			C539.6398926,611.6690063,540.5704346,610.7384033,541.7183228,610.7384033z"/>
		<path d="M567.2618408,613.3674316c2.1394653,0,3.8736572,1.734436,3.8736572,3.8736572
			c0,2.1394043-1.7341919,3.8736572-3.8736572,3.8736572c-2.1392212,0-3.8734741-1.7342529-3.8734741-3.8736572
			C563.3883667,615.1018677,565.1226196,613.3674316,567.2618408,613.3674316z"/>
		<path d="M533.0412598,625.4832764c1.6090088,0,2.9133301,1.3044434,2.9133301,2.9133301
			c0,1.6090698-1.3043213,2.9133301-2.9133301,2.9133301c-1.6088867,0-2.913208-1.3042603-2.913208-2.9133301
			C530.1280518,626.7877197,531.432373,625.4832764,533.0412598,625.4832764z"/>
		<path d="M596.5221558,634.850647c1.8109741,0,3.2789307,1.4681396,3.2789307,3.2789307
			c0,1.8109741-1.4679565,3.2789917-3.2789307,3.2789917c-1.810791,0-3.2787476-1.4680176-3.2787476-3.2789917
			C593.2434082,636.3187866,594.7113647,634.850647,596.5221558,634.850647z"/>
		<path d="M517.9510498,652.6033325c2.1395874,0,3.8739624,1.7345581,3.8739624,3.8739624
			c0,2.1395874-1.734375,3.8739624-3.8739624,3.8739624c-2.1394043,0-3.8737793-1.734375-3.8737793-3.8739624
			C514.0772705,654.3378906,515.8116455,652.6033325,517.9510498,652.6033325z"/>
		<path d="M559.2194824,696.4663696c1.3718872,0,2.4839478,1.1121826,2.4839478,2.4838867
			c0,1.3718872-1.1120605,2.4838867-2.4839478,2.4838867c-1.3717041,0-2.4837646-1.1119995-2.4837646-2.4838867
			C556.7357178,697.5785522,557.8477783,696.4663696,559.2194824,696.4663696z"/>
		<path d="M530.1681519,682.8115845c0.9854736,0,1.7843018,0.7989502,1.7843018,1.7843018
			c0,0.9854736-0.7988281,1.7843018-1.7843018,1.7843018c-0.9854126,0-1.7842407-0.7988281-1.7842407-1.7843018
			C528.3839111,683.6105347,529.1827393,682.8115845,530.1681519,682.8115845z"/>
		<path d="M584.3654175,689.0430908c2.2237549,0,4.0263062,1.8027954,4.0263062,4.0263062
			c0,2.2237549-1.8025513,4.0263672-4.0263062,4.0263672c-2.2235718,0-4.026123-1.8026123-4.026123-4.0263672
			C580.3392944,690.8458862,582.1418457,689.0430908,584.3654175,689.0430908z"/>
		<path d="M602.53479,658.6068726c1.3228149,0,2.3950806,1.0723877,2.3950806,2.3950806
			c0,1.3228149-1.0722656,2.3951416-2.3950806,2.3951416c-1.3226929,0-2.3950195-1.0723267-2.3950195-2.3951416
			C600.1397705,659.6792603,601.2120972,658.6068726,602.53479,658.6068726z"/>
		<path d="M607.3575439,647.0947266c0.9837646,0,1.78125,0.7975464,1.78125,1.781311s-0.7974854,1.78125-1.78125,1.78125
			s-1.78125-0.7974854-1.78125-1.78125S606.3737793,647.0947266,607.3575439,647.0947266z"/>
		<path d="M596.8391113,652.5145264c0,3.0629272-1.4765015,5.7576904-3.7296143,7.4915771
			c1.6812744,2.6170654,2.668396,5.7228394,2.668396,9.06427c0,9.2825928-7.5246582,16.8071289-16.8071289,16.8071289
			c-0.2246704,0-0.4429932-0.0248413-0.6655273-0.0335693c-1.0892334,5.0592041-5.5783081,8.8543701-10.9629517,8.8543701
			c-2.9723511,0-5.6561279-1.1765137-7.6642456-3.0628052c-2.6417847,2.1529541-6.0113525,3.4469604-9.6850586,3.4469604
			c-8.3901367,0-15.1971436-6.7368164-15.3321533-15.0953979c-6.8135376-1.1193237-12.017334-7.0193481-12.017334-14.1505127
			c0-4.206604,1.8205566-7.9788208,4.7033081-10.6049805c-1.213562-2.0203857-1.9242554-4.3773193-1.9242554-6.9058228
			c0-6.7327881,4.9539795-12.2942505,11.4122314-13.2772217c2.8721313-7.4804077,10.1037598-12.8001099,18.5949707-12.8001099
			c4.0796509,0,7.8695068,1.2306519,11.0284424,3.3336792c1.8825684-0.706604,3.9128418-1.1113281,6.0421753-1.1113281
			c9.5134277,0,17.2250977,7.7124634,17.2250977,17.2250977c0,0.5549927-0.0316772,1.102356-0.0830078,1.6438599
			C593.7692871,644.3676147,596.8391113,648.0699463,596.8391113,652.5145264z M576.598999,676.4541016
			c2.7151489,0,4.4360962-1.2421265,4.4360962-2.9277954c0-2.0297852-2.1965332-2.3693848-4.7910156-2.6617432
			c-2.5368652-0.2858887-3.0166016-2.0407104-3.0166016-3.2828369c0-1.2420654,0.7398682-4.0703125,2.5717773-8.2874756
			c1.3460083-3.0988159,4.696106-10.2858276,4.696106-12.9476929c0-3.6429443-2.9246216-5.9890747-6.0299683-5.9890747
			c-3.4747925,0-4.0768433,1.394043-5.0167847,1.394043c-1.1407471,0-2.468689-2.9467163-5.2280273-2.9467163
			c-3.7704468,0-4.9006348,3.5793457-6.9633789,3.5793457c-2.1617432,0-3.5413208-2.4841919-6.743103-2.4841919
			c-6.6682129,0-8.1995239,5.8983154-9.2506714,9.0733032c-1.1733398,3.5443115-5.1260986,16.0776978-5.5185547,17.6879883
			c-1.3796997,5.6601562,3.855896,7.8652344,6.3322144,7.8652344c3.2253418,0,4.8881836-2.6860352,5.6865845-4.6379395
			c0.7111206-1.7380981,6.8781128-17.1732788,7.0092163-17.4785767c0.7893066-1.8364258,1.8656006-2.2207642,2.7752075-1.9892578
			c1.2001953,0.305603,1.7578735,1.354187,1.1348267,3.2515869c-0.5944214,1.8098755-3.6409302,9.1098022-4.6157837,11.6832886
			c-1.31073,3.4602661,0.4032593,4.9544067,2.6213379,4.9544067c2.2182007,0,3.696167-1.7038574,4.7387695-4.059082
			c0.9154663-2.0684814,7.088623-13.9338379,7.8076172-15.5267334c0.7796631-1.7271118,1.6835327-2.2023315,2.6550293-1.9821777
			c1.3577881,0.3075562,1.3093872,1.4760742,0.4221191,3.4280396c-0.8872681,1.9519043-3.2505493,6.9990845-4.4967041,9.5559692
			c-0.9882202,2.0274658-2.0407104,3.3674927-2.0407104,6.6542358
			C565.7745972,674.8088379,572.6695557,676.4541016,576.598999,676.4541016z"/>
	</g>
</g>
</svg>
