<?xml version="1.0" encoding="utf-8"?>
<!-- Generator: Adobe Illustrator 25.2.3, SVG Export Plug-In . SVG Version: 6.00 Build 0)  -->
<svg version="1.1" id="Layer_1" xmlns="http://www.w3.org/2000/svg" xmlns:xlink="http://www.w3.org/1999/xlink" x="0px" y="0px"
	 viewBox="0 0 3300 2200" enable-background="new 0 0 3300 2200" xml:space="preserve">
<g id="Notes">
	<rect id="artboard" y="0" fill="#FFFFFF" width="3300" height="2200"/>
	<line fill="none" stroke="#000000" stroke-width="0.5" x1="263" y1="292" x2="3036" y2="292"/>
	<text transform="matrix(1 0 0 1 263 321.999939)" font-family="'SFProDisplay-Bold'" font-size="13px">Weight/Scale Variations</text>
	<text transform="matrix(1 0 0 1 535.0122681 321.999939)" font-family="'SFProDisplay-Regular'" font-size="13px">Ultralight</text>
	<text transform="matrix(1 0 0 1 844.3900146 321.999939)" font-family="'SFProDisplay-Regular'" font-size="13px">Thin</text>
	<text transform="matrix(1 0 0 1 1139.3619385 321.999939)" font-family="'SFProDisplay-Regular'" font-size="13px">Light</text>
	<text transform="matrix(1 0 0 1 1429.0291748 321.999939)" font-family="'SFProDisplay-Regular'" font-size="13px">Regular</text>
	<text transform="matrix(1 0 0 1 1724.2575684 321.999939)" font-family="'SFProDisplay-Regular'" font-size="13px">Medium</text>
	<text transform="matrix(1 0 0 1 2017.5556641 321.999939)" font-family="'SFProDisplay-Regular'" font-size="13px">Semibold</text>
	<text transform="matrix(1 0 0 1 2327.6750488 321.999939)" font-family="'SFProDisplay-Regular'" font-size="13px">Bold</text>
	<text transform="matrix(1 0 0 1 2619.2561035 321.999939)" font-family="'SFProDisplay-Regular'" font-size="13px">Heavy</text>
	<text transform="matrix(1 0 0 1 2918.4702148 321.999939)" font-family="'SFProDisplay-Regular'" font-size="13px">Black</text>
	<line fill="none" stroke="#000000" stroke-width="0.5" x1="263" y1="1903" x2="3036" y2="1903"/>
	<g transform="matrix(1 0 0 1 263 1933)">
		<path d="M9.2480497,0.830078C10.3287497,0.8300779,11.344367,0.625,12.2948999,0.214844
			c0.9505339-0.4101567,1.7887669-0.979818,2.5146999-1.708984c0.7258663-0.7291666,1.2955332-1.5690097,1.7090006-2.5195298
			c0.4134007-0.95052,0.6201-1.9628901,0.6201-3.0371099s-0.2066994-2.0865941-0.6201-3.0371203
			c-0.4134674-0.9505329-0.984767-1.7903662-1.7139006-2.5194998c-0.7291994-0.7292004-1.5690327-1.2988663-2.5194998-1.7089996
			c-0.9505339-0.4101334-1.9661732-0.6152-3.0469198-0.6152c-1.0742207,0-2.0865903,0.2050667-3.0371103,0.6152
			s-1.7871065,0.9797993-2.5097599,1.7089996C2.96875-11.8782663,2.4007132-11.0384331,1.9873-10.0879002
			C1.5738934-9.1373739,1.36719-8.125,1.36719-7.0507798S1.5738934-4.96419,1.9873-4.01367
			C2.4007132-3.0631497,2.9703767-2.2233067,3.69629-1.49414s1.5641298,1.2988274,2.5146499,1.708984
			C7.1614604,0.625,8.17383,0.8300779,9.2480497,0.830078z M9.2480497-0.654297c-0.8854198,0-1.71387-0.1643876-2.4853497-0.493163
			c-0.7714868-0.3287734-1.4485698-0.78613-2.03125-1.3720701C4.1487632-3.1054699,3.6930332-3.7858098,3.36426-4.5605502
			c-0.3287802-0.7747402-0.49317-1.6048164-0.49317-2.4902296c0-0.8854198,0.1627634-1.7155004,0.4882901-2.4902406
			c0.32552-0.7747192,0.7796199-1.4550467,1.3623002-2.0409794c0.5826797-0.5859337,1.2597632-1.0433006,2.03125-1.3720999
			C7.5244164-13.2829008,8.3528671-13.4473,9.2382803-13.4473c0.8919458,0,1.7236528,0.1643991,2.49512,0.4932003
			c0.7714672,0.3287992,1.4501667,0.7861662,2.0360994,1.3720999c0.5859337,0.5859327,1.0449333,1.2662601,1.3769999,2.0409794
			c0.3320007,0.7747402,0.4980001,1.6048207,0.4980001,2.4902406c0,0.8854132-0.1643667,1.7154894-0.4931002,2.4902296
			c-0.3287992,0.7747405-0.7845325,1.4550803-1.3671999,2.0410202c-0.5826664,0.5859401-1.2613993,1.0432967-2.0361996,1.3720701
			C10.9732666-0.8186846,10.1399498-0.654297,9.2480497-0.654297z M5.8398399-7.0410199
			c0,0.2148466,0.0683599,0.3890028,0.20508,0.52247c0.1367202,0.13346,0.3190136,0.2001901,0.5468802,0.2001901h1.9140601v1.92383
			c0,0.2213535,0.0667295,0.4003899,0.2001896,0.5371099c0.1334667,0.1367199,0.3076229,0.20508,0.5224705,0.20508
			c0.2213535,0,0.4003859-0.0683601,0.5370998-0.20508c0.1367197-0.1367199,0.20508-0.3157563,0.20508-0.5371099v-1.92383h1.9237995
			c0.2213993,0,0.4004335-0.06673,0.5370998-0.2001901c0.1367331-0.1334672,0.2051001-0.3076234,0.2051001-0.52247
			c0-0.2213535-0.068367-0.4003868-0.2051001-0.5371003c-0.1366663-0.1367197-0.3157005-0.2050796-0.5370998-0.2050796H9.9707003
			v-1.9140706c0-0.2278862-0.0683603-0.4101629-0.20508-0.5468292c-0.136714-0.1367331-0.3157463-0.2051001-0.5370998-0.2051001
			c-0.2148476,0-0.3890038,0.068367-0.5224705,0.2051001c-0.13346,0.1366663-0.2001896,0.318943-0.2001896,0.5468292v1.9140706
			H6.5918002c-0.2278666,0-0.4101601,0.0683599-0.5468802,0.2050796C5.9081998-7.4414067,5.8398399-7.2623734,5.8398399-7.0410199z"
			/>
	</g>
	<g transform="matrix(1 0 0 1 281.867 1933)">
		<path d="M11.7089996,2.9101601c1.3606672,0,2.6416006-0.2604167,3.8428001-0.78125
			c1.2011337-0.5208334,2.2607002-1.2402358,3.1786995-2.1582069c0.9179344-0.9179688,1.6373348-1.9775398,2.1582012-3.1787131
			c0.5207996-1.2011731,0.7812004-2.4820969,0.7812004-3.8427699c0-1.3606801-0.2604008-2.6416202-0.7812004-3.8428206
			c-0.5208664-1.2011337-1.2402668-2.2606993-2.1582012-3.1786995c-0.9179993-0.9179335-1.9792004-1.6373329-3.1835995-2.1581993
			c-1.2044668-0.5207996-2.4870329-0.7812004-3.8477001-0.7812004s-2.6415825,0.2604008-3.8427491,0.7812004
			c-1.2011733,0.5208664-2.2591166,1.2402658-3.17383,2.1581993c-0.9147131,0.9180002-1.6324866,1.9775658-2.1533201,3.1786995
			C2.0084672-9.6924,1.7480505-8.4114599,1.7480503-7.0507798C1.7480505-5.6901069,2.0084672-4.409183,2.5293005-3.20801
			s1.2402332,2.2607443,2.1582,3.1787131c0.9179664,0.9179712,1.9775367,1.6373736,3.17871,2.1582069
			S10.3483133,2.9101601,11.7089996,2.9101601z M11.7089996,1.25c-1.1523533,0-2.2298326-0.2148436-3.23244-0.644531
			C7.4739599,0.1757813,6.5934277-0.418295,5.8349605-1.17676c-0.75846-0.7584602-1.3509068-1.6389933-1.7773399-2.6416001
			S3.4179704-5.8984399,3.4179704-7.0507798c0-1.1523461,0.2132168-2.2298207,0.6396501-3.2324204
			s1.0172534-1.8847656,1.77246-2.6464996c0.7552066-0.7617331,1.6341133-1.3557997,2.6367192-1.7821999
			c1.0025997-0.4264669,2.0800667-0.6396999,3.2323999-0.6396999s2.2298002,0.213233,3.2323999,0.6396999
			c1.0025997,0.4264002,1.8847666,1.0204668,2.6465006,1.7821999c0.761734,0.761734,1.3574333,1.6438999,1.7870998,2.6464996
			C19.7949333-9.2806005,20.0098-8.203126,20.0098-7.0507798c0,1.1523399-0.213232,2.2298131-0.6396999,3.2324197
			c-0.4263992,1.0026069-1.0188332,1.88314-1.7772999,2.6416001c-0.7584667,0.7584649-1.6406336,1.3525413-2.6465006,1.7822289
			S12.8613329,1.25,11.7089996,1.25z M7.3925805-7.0410199c0,0.2343798,0.0781231,0.4264402,0.2343698,0.57618
			C7.7832036-6.3151002,7.9850273-6.2402301,8.23242-6.2402301h2.6464796v2.6660101
			c0,0.2408867,0.0748663,0.4378266,0.2246008,0.5908198c0.1497335,0.1529932,0.3417997,0.22949,0.5761995,0.22949
			c0.2474003,0,0.449234-0.0764968,0.6055002-0.22949c0.1561995-0.1529932,0.2342997-0.3499331,0.2342997-0.5908198v-2.6660101
			h2.6563005c0.2408667,0,0.4394331-0.0748701,0.5956993-0.2246099s0.2343998-0.3418002,0.2343998-0.57618
			c0-0.2473936-0.0781336-0.447587-0.2343998-0.6005802s-0.3548326-0.2294898-0.5956993-0.2294898h-2.6563005v-2.6465101
			c0-0.2538662-0.0781002-0.4573002-0.2342997-0.6103001c-0.1562662-0.1529999-0.3580999-0.2294998-0.6055002-0.2294998
			c-0.2343998,0-0.426466,0.0764999-0.5761995,0.2294998c-0.1497345,0.1529999-0.2246008,0.3564339-0.2246008,0.6103001v2.6465101
			H8.23242c-0.2539062,0-0.4573565,0.0764966-0.6103497,0.2294898S7.3925805-7.2884135,7.3925805-7.0410199z"/>
	</g>
	<g transform="matrix(1 0 0 1 305.646 1933)">
		<path d="M14.9707003,5.6640601c1.393199,0,2.7229662-0.2164702,3.9892988-0.6494102
			c1.2662678-0.4329467,2.4300003-1.0400431,3.4912014-1.8212898c1.0611992-0.7812533,1.9840317-1.7024773,2.7684994-2.7636721
			c0.7845325-1.0611987,1.3932667-2.2265646,1.8262005-3.496098c0.4329338-1.2695265,0.6493988-2.5976501,0.6493988-3.9843698
			c0-1.3932271-0.216465-2.7229667-0.6493988-3.9892201c-0.4329338-1.2663326-1.0416679-2.4300671-1.8262005-3.4912004
			c-0.7844677-1.0611992-1.7073002-1.984066-2.7684994-2.7686005c-1.0612011-0.7845325-2.2265682-1.3932667-3.4961014-1.8261986
			c-1.2695312-0.4329338-2.6009331-0.6494007-3.9941988-0.6494007c-1.3931999,0-2.7229328,0.2164669-3.9892006,0.6494007
			c-1.2662859,0.4329319-2.4284029,1.041666-3.4863496,1.8261986c-1.05794,0.7845345-1.9791632,1.7074013-2.76367,2.7686005
			C3.9371731-13.470067,3.3300765-12.3063326,2.9003899-11.04c-0.4296865,1.2662535-0.6445298,2.595993-0.6445298,3.9892201
			c0,1.3867197,0.21647,2.7148433,0.64941,3.9843698c0.4329467,1.2695335,1.0400431,2.4348993,1.82129,3.496098
			c0.7812529,1.0611948,1.7024765,1.9824188,2.76367,2.7636721c1.0612006,0.7812467,2.2249236,1.3883431,3.4911695,1.8212898
			C12.2477341,5.4475899,13.5775003,5.6640601,14.9707003,5.6640601z M14.9707003,3.8476601
			c-1.2044001,0-2.3518677-0.1839199-3.4424-0.55176c-1.0904799-0.3678403-2.0881939-0.88379-2.9931402-1.5478501
			c-0.904953-0.6640646-1.6910863-1.4501987-2.3583999-2.358402C5.5094399-1.5185572,4.9934897-2.5179067,4.6289101-3.6084001
			C4.2643232-4.6988935,4.0820298-5.8463535,4.0820298-7.0507798c0-1.2109399,0.1822934-2.3616471,0.5468802-3.4521203
			c0.3645797-1.0905333,0.8789029-2.0899,1.5429697-2.9981003c0.6640601-0.9081993,1.4485636-1.6943321,2.3535099-2.3583994
			c0.9049463-0.6640663,1.9026833-1.1783657,2.9932108-1.5429001c1.0904665-0.3645992,2.2378998-0.5468998,3.4422998-0.5468998
			c1.2109327,0,2.3616648,0.1823006,3.452199,0.5468998c1.0904655,0.3645344,2.0897999,0.8788338,2.9980011,1.5429001
			c0.9081993,0.6640673,1.6943321,1.4502001,2.3584003,2.3583994c0.6640682,0.9082003,1.1800327,1.907567,1.5478992,2.9981003
			c0.3678017,1.0904732,0.5517006,2.2411804,0.5517006,3.4521203c0.0065327,1.2044263-0.1725006,2.3518863-0.5370998,3.4423797
			c-0.3645325,1.0904934-0.8804684,2.0898428-1.5478001,2.9980481c-0.6673336,0.9082034-1.455101,1.6943374-2.3633003,2.358402
			c-0.9081993,0.6640601-1.9075336,1.1800098-2.9980011,1.5478501C17.3323669,3.6637402,16.181633,3.8476601,14.9707003,3.8476601z
			 M9.4531202-7.0410199c0,0.2539067,0.0862637,0.46387,0.25879,0.62989
			c0.1725264,0.1660132,0.3922567,0.2490201,0.6591902,0.2490201H14.0625v3.70117
			c0,0.2669265,0.0830002,0.4850265,0.2489996,0.6542999c0.1660004,0.1692734,0.375967,0.2539101,0.6299,0.2539101
			c0.2734671,0,0.4948339-0.0846367,0.6641006-0.2539101c0.1692657-0.1692734,0.2539005-0.3873733,0.2538996-0.6542999v-3.70117
			h3.7010994c0.2669334,0,0.485033-0.0830069,0.6543007-0.2490201c0.1693325-0.1660199,0.2539997-0.3759832,0.2539997-0.62989
			c0-0.2734332-0.0846672-0.4947867-0.2539997-0.6640601c-0.1692677-0.1692662-0.3873672-0.2539001-0.6543007-0.2539001h-3.7010994
			v-3.6914201c0.000001-0.2734003-0.0846338-0.4947672-0.2538996-0.6640997
			c-0.1692667-0.1692677-0.3906336-0.2539005-0.6641006-0.2539005c-0.253933,0-0.4638996,0.0862675-0.6299,0.2588005
			c-0.1659994,0.172533-0.2489996,0.3922672-0.2489996,0.6591997v3.6914201h-3.6913996
			c-0.2734404,0-0.4947968,0.0846338-0.6640701,0.2539001C9.5377569-7.5358067,9.4531202-7.3144531,9.4531202-7.0410199z"/>
	</g>
	<text transform="matrix(1 0 0 1 263 1953)" font-family="'SFProDisplay-Bold'" font-size="13px">Design Variations</text>
	<text transform="matrix(1 0 0 1 263 1971)" font-family="'SFProDisplay-Regular'" font-size="13px">Symbols are supported in up to nine weights and three scales.</text>
	<text transform="matrix(1 0 0 1 263 1989)" font-family="'SFProDisplay-Regular'" font-size="13px">For optimal layout with text and other symbols, vertically align</text>
	<text transform="matrix(1 0 0 1 263 2007)" font-family="'SFProDisplay-Regular'" font-size="13px">symbols with the adjacent text.</text>
	<line fill="none" stroke="#00AEEF" stroke-width="0.5" x1="776" y1="1919" x2="776" y2="1933"/>
	<g transform="matrix(1 0 0 1 776 1933)">
		<path d="M3.31055,0.15625c0.2604132,0,0.4622364-0.0553385,0.6054699-0.1660156
			C4.0592465-0.1204425,4.1764331-0.3125,4.26758-0.585938l1.2597599-3.4472618h5.7617598l1.2597008,3.4472618
			c0.0911331,0.273438,0.208333,0.4654954,0.3515997,0.5761724c0.143199,0.1106771,0.3417673,0.1660156,0.5957003,0.1660156
			c0.2603998,0,0.4670992-0.0716146,0.6201-0.2148438c0.1529999-0.1432295,0.2294998-0.3385418,0.2294998-0.5859372
			c0-0.14974-0.035799-0.325523-0.1073999-0.527349L9.6582003-13.3690996
			c-0.1171875-0.2995338-0.2766895-0.524168-0.4785099-0.6739006c-0.201827-0.1497335-0.4589901-0.2245998-0.7714901-0.2245998
			c-0.6054673,0-1.0156236,0.2962332-1.2304702,0.8887005L2.5976601-1.16211c-0.07162,0.2018234-0.10743,0.3776046-0.10743,0.527344
			c0,0.247396,0.0732434,0.441081,0.2197299,0.5810551S3.0566432,0.15625,3.31055,0.15625z M6.0058599-5.51758l2.3730502-6.5722198
			h0.0488195L10.8008003-5.51758H6.0058599z"/>
	</g>
	<line fill="none" stroke="#00AEEF" stroke-width="0.5" x1="793.1970215" y1="1919" x2="793.1970215" y2="1933"/>
	<text transform="matrix(1 0 0 1 776 1953)" font-family="'SFProDisplay-Bold'" font-size="13px">Margins</text>
	<text transform="matrix(1 0 0 1 776 1971)" font-family="'SFProDisplay-Regular'" font-size="13px">Leading and trailing margins on the left and right side of each symbol</text>
	<text transform="matrix(1 0 0 1 776 1989)" font-family="'SFProDisplay-Regular'" font-size="13px">can be adjusted by modifying the x-location of the margin guidelines.</text>
	<text transform="matrix(1 0 0 1 776 2007)" font-family="'SFProDisplay-Regular'" font-size="13px">Modifications are automatically applied proportionally to all</text>
	<text transform="matrix(1 0 0 1 776 2025)" font-family="'SFProDisplay-Regular'" font-size="13px">scales and weights.</text>
	<g transform="matrix(1 0 0 1 1289 1933)">
		<path d="M2.8418,1.86523l1.6992199,1.70899c0.429687,0.4361999,0.8837867,0.6380236,1.3622999,0.6054699
			c0.4785137-0.0325532,0.9488897-0.30599,1.41113-0.8203099L18.0077991-8.4277296l-0.9667988-0.9765701L6.4257798,2.2753899
			C6.25,2.47721,6.0725899,2.5911434,5.8935499,2.6171899c-0.1790328,0.0260401-0.3857369-0.0781267-0.62011-0.3125
			L4.1015601,1.14258c-0.2343733-0.234376-0.33691-0.4410824-0.30761-0.620119
			c0.0292933-0.1790367,0.14485-0.3597007,0.3466702-0.5419922L15.6152-10.8203001l-0.9765005-0.9667997L3.04688-0.898438
			C2.5520866-0.4427086,2.2867866,0.0227863,2.2509799,0.498047C2.2151732,0.973309,2.4121132,1.4290366,2.8418,1.86523z
			 M9.2578096-16.3281002C9.0494766-16.1262989,8.9322901-15.8951998,8.90625-15.6348
			c-0.0260401,0.2604666,0.0195341,0.4883337,0.1367197,0.6836004c0.1171865,0.182333,0.288084,0.319066,0.5126905,0.4101992
			c0.2246132,0.0911331,0.4996939,0.0976334,0.8252401,0.0195007c0.7291336-0.1692667,1.4680653-0.239234,2.2167997-0.2098999
			c0.7486668,0.0292664,1.4810667,0.2782669,2.1971998,0.7469997l-0.5859003,1.4551001
			c-0.1692657,0.416667-0.216466,0.7796326-0.1415997,1.0888996c0.0748663,0.3092003,0.2457666,0.6005335,0.5127001,0.8740005
			L16.875-8.2519503c0.2408657,0.2473936,0.4752331,0.3906202,0.7031002,0.4296803
			c0.2278671,0.0390668,0.4817677,0.0325565,0.7616997-0.0195303l1.0645008-0.1953101l0.6640987,0.6738305l-0.0390987,0.5566397
			c-0.0195332,0.2473936,0.0114002,0.4752569,0.0928001,0.6835899c0.0813332,0.2083335,0.242466,0.4329433,0.4833984,0.67383
			l0.7617016,0.7421904c0.2408676,0.2408867,0.5028992,0.3662133,0.7860985,0.3759799
			c0.2832012,0.0097599,0.5419998-0.1025472,0.7764015-0.3369203l2.910099-2.91992
			c0.2344017-0.2343731,0.3483334-0.4899068,0.3418007-0.7666001c-0.0064678-0.2766933-0.1301689-0.5354834-0.3711014-0.77637
			L25.0391006-9.89258c-0.2343998-0.24088-0.454134-0.4052534-0.6592007-0.4931202
			c-0.2050667-0.0879335-0.4280663-0.1221333-0.6690006-0.1026001L23.1348-10.4394999L22.4902-11.0741997L22.7343998-12.1973
			c0.0650673-0.2799339,0.0520325-0.5419664-0.0391006-0.7861004s-0.2831993-0.5127001-0.5761986-0.8056993l-2.1972008-2.1875
			c-0.8333321-0.8268003-1.7203999-1.4469004-2.6611996-1.860301c-0.940733-0.4133987-1.8880005-0.628233-2.8418007-0.6444988
			c-0.9537325-0.0163326-1.8716993,0.1578007-2.7538996,0.5223999C10.7828665-17.5944004,9.9804697-17.050766,9.2578096-16.3281002z
			 M10.7519999-15.9569998c0.6054668-0.4427328,1.2548666-0.7585001,1.9482002-0.9473009
			c0.6933327-0.1887989,1.3948326-0.249033,2.1044998-0.1806984c0.7096004,0.0683994,1.3980665,0.2588329,2.0654001,0.5712986
			c0.6673317,0.3125343,1.2776985,0.7487326,1.8311005,1.3086004l2.4315987,2.4120998
			c0.1172009,0.1171999,0.1904335,0.2311335,0.2197018,0.3418007c0.0293331,0.1106663,0.0244656,0.2506657-0.0146008,0.4199991
			l-0.3223,1.4843006L22.5195007-9.0625l0.9863987-0.0585899c0.1236687-0.0065136,0.2180691,0.0016232,0.2832012,0.0244102
			c0.0650654,0.0227861,0.146431,0.0830069,0.2440987,0.1806593l0.5762005,0.5761805l-2.4414005,2.4414001l-0.5761986-0.57617
			C21.494133-6.5722632,21.4322662-6.6536431,21.4062004-6.71875c-0.0259991-0.0651069-0.0357323-0.1627636-0.0291996-0.2929702
			l0.0682983-0.9765596l-1.4940987-1.4843802L18.4277-9.21875c-0.1627331,0.0325537-0.2912998,0.0374365-0.3857002,0.0146503
			c-0.0944004-0.0227871-0.2034664-0.0927744-0.3271999-0.20996l-2.0018997-2.0019407
			c-0.1302004-0.1171999-0.203433-0.2294998-0.2196999-0.3368998c-0.0162668-0.1074667,0.0146322-0.2523336,0.0927-0.4345999
			l0.8788996-2.0897999c-0.7811995-0.7292004-1.6601-1.2337675-2.6366997-1.5137005
			c-0.9765329-0.279932-1.9726343-0.2701664-2.9883003,0.0293007c-0.0780659,0.0195322-0.1285,0.0048666-0.1512995-0.0440006
			C10.6657-15.8544998,10.6868668-15.904933,10.7519999-15.9569998z"/>
	</g>
	<text transform="matrix(1 0 0 1 1289 1953)" font-family="'SFProDisplay-Bold'" font-size="13px">Exporting</text>
	<text transform="matrix(1 0 0 1 1289 1971)" font-family="'SFProDisplay-Regular'" font-size="13px">Symbols should be outlined when exporting to ensure the</text>
	<text transform="matrix(1 0 0 1 1289 1989)" font-family="'SFProDisplay-Regular'" font-size="13px">design is preserved when submitting to Xcode.</text>
	
		<text id="template-version" transform="matrix(1 0 0 1 2956.4257812 1933)" font-family="'SFProDisplay-Regular'" font-size="13px">Template v.3.0</text>
	<text transform="matrix(1 0 0 1 2880.0063477 1951)" font-family="'SFProDisplay-Regular'" font-size="13px">Requires Xcode 13 or greater</text>
	
		<text id="descriptive-name" transform="matrix(1 0 0 1 2889.3754883 1969)" font-family="'SFProDisplay-Regular'" font-size="13px">Generated from trash.circle</text>
	<text transform="matrix(1 0 0 1 2919.7490234 1987)" font-family="'SFProDisplay-Regular'" font-size="13px">Typeset at 100 points</text>
	<text transform="matrix(1 0 0 1 263 726)" font-family="'SFProDisplay-Regular'" font-size="13px">Small</text>
	<text transform="matrix(1 0 0 1 263 1156)" font-family="'SFProDisplay-Regular'" font-size="13px">Medium</text>
	<text transform="matrix(1 0 0 1 263 1586)" font-family="'SFProDisplay-Regular'" font-size="13px">Large</text>
</g>
<g id="Guides">
	<g id="H-reference" transform="matrix(1 0 0 1 339 696)">
		<path fill="#27AAE1" d="M0.976562,0h2.6855481l25.6835899-67.1387024h0.6836014v-3.3202972H28.125L0.976562,0z
			 M11.6698999-24.4629002h35.3027992L46.2402-26.7089996H12.4511995L11.6698999-24.4629002z M55.1269989,0h2.6366997
			L30.6152-70.4589996h-1.1718006v3.3202972L55.1269989,0z"/>
	</g>
	<line id="Baseline-S" fill="none" stroke="#27AAE1" stroke-width="0.5" x1="263" y1="696" x2="3036" y2="696"/>
	<line id="Capline-S" fill="none" stroke="#27AAE1" stroke-width="0.5" x1="263" y1="625.5410156" x2="3036" y2="625.5410156"/>
	<g id="H-reference_1_" transform="matrix(1 0 0 1 339 1126)">
		<path fill="#27AAE1" d="M0.976562,0h2.6855481l25.6835899-67.1387024h0.6836014v-3.3202972H28.125L0.976562,0z
			 M11.6698999-24.4629002h35.3027992L46.2402-26.7089996H12.4511995L11.6698999-24.4629002z M55.1269989,0h2.6366997
			L30.6152-70.4589996h-1.1718006v3.3202972L55.1269989,0z"/>
	</g>
	<line id="Baseline-M" fill="none" stroke="#27AAE1" stroke-width="0.5" x1="263" y1="1126" x2="3036" y2="1126"/>
	<line id="Capline-M" fill="none" stroke="#27AAE1" stroke-width="0.5" x1="263" y1="1055.5400391" x2="3036" y2="1055.5400391"/>
	<g id="H-reference_2_" transform="matrix(1 0 0 1 339 1556)">
		<path fill="#27AAE1" d="M0.976562,0h2.6855481l25.6835899-67.1387024h0.6836014v-3.3202972H28.125L0.976562,0z
			 M11.6698999-24.4629002h35.3027992L46.2402-26.7089996H12.4511995L11.6698999-24.4629002z M55.1269989,0h2.6366997
			L30.6152-70.4589996h-1.1718006v3.3202972L55.1269989,0z"/>
	</g>
	<line id="Baseline-L" fill="none" stroke="#27AAE1" stroke-width="0.5" x1="263" y1="1556" x2="3036" y2="1556"/>
	<line id="Capline-L" fill="none" stroke="#27AAE1" stroke-width="0.5" x1="263" y1="1485.5400391" x2="3036" y2="1485.5400391"/>
	
		<line id="left-margin-Ultralight-S" fill="none" stroke="#00AEEF" stroke-width="0.5" x1="504.0772705" y1="600.7849731" x2="504.0772705" y2="720.1209717"/>
	
		<line id="right-margin-Ultralight-S" fill="none" stroke="#00AEEF" stroke-width="0.5" x1="619.1387939" y1="600.7849731" x2="619.1387939" y2="720.1209717"/>
	
		<line id="left-margin-Regular-S" fill="none" stroke="#00AEEF" stroke-width="0.5" x1="1392.1262207" y1="600.7849731" x2="1392.1262207" y2="720.1209717"/>
	
		<line id="right-margin-Regular-S" fill="none" stroke="#00AEEF" stroke-width="0.5" x1="1511.5805664" y1="600.7849731" x2="1511.5805664" y2="720.1209717"/>
	
		<line id="left-margin-Black-S" fill="none" stroke="#00AEEF" stroke-width="0.5" x1="2870.8876953" y1="600.7849731" x2="2870.8876953" y2="720.1209717"/>
	
		<line id="right-margin-Black-S" fill="none" stroke="#00AEEF" stroke-width="0.5" x1="3000.2736816" y1="600.7849731" x2="3000.2736816" y2="720.1209717"/>
</g>
<g id="Symbols">
	<g id="Black-S">
		<path d="M2912.6938477,605.7717285c1.3210449,0,2.3918457,1.0709229,2.3918457,2.3917236
			c0,1.3209839-1.0708008,2.3917236-2.3918457,2.3917236c-1.3208008,0-2.3916016-1.0707397-2.3916016-2.3917236
			C2910.3022461,606.8426514,2911.3730469,605.7717285,2912.6938477,605.7717285z"/>
		<path d="M2942.0864258,608.796936c2.4619141,0,4.4572754,1.9957886,4.4572754,4.4573364
			c0,2.461853-1.9953613,4.4573975-4.4572754,4.4573975c-2.4616699,0-4.4570312-1.9955444-4.4570312-4.4573975
			C2937.6293945,610.7927246,2939.6247559,608.796936,2942.0864258,608.796936z"/>
		<path d="M2902.7092285,622.7384644c1.8515625,0,3.3522949,1.5010376,3.3522949,3.352356
			c0,1.8515015-1.5007324,3.3522949-3.3522949,3.3522949c-1.8513184,0-3.3520508-1.5007935-3.3520508-3.3522949
			C2899.3571777,624.239502,2900.8579102,622.7384644,2902.7092285,622.7384644z"/>
		<path d="M2975.7558594,633.517395c2.0837402,0,3.7729492,1.6893921,3.7729492,3.7730103
			c0,2.0838623-1.689209,3.7730103-3.7729492,3.7730103s-3.7729492-1.6891479-3.7729492-3.7730103
			C2971.9829102,635.2067871,2973.6721191,633.517395,2975.7558594,633.517395z"/>
		<path d="M2885.3452148,653.9450684c2.4619141,0,4.4577637,1.9959717,4.4577637,4.4577637
			c0,2.4619751-1.9958496,4.4577026-4.4577637,4.4577026c-2.4616699,0-4.4575195-1.9957275-4.4575195-4.4577026
			C2880.8876953,655.94104,2882.8835449,653.9450684,2885.3452148,653.9450684z"/>
		<path d="M2932.8322754,704.4176636c1.5786133,0,2.8581543,1.2797241,2.8581543,2.8581543
			c0,1.5786133-1.279541,2.8582153-2.8581543,2.8582153c-1.5783691,0-2.8581543-1.2796021-2.8581543-2.8582153
			C2929.9741211,705.6973877,2931.2539062,704.4176636,2932.8322754,704.4176636z"/>
		<path d="M2899.4033203,688.7053223c1.1337891,0,2.0532227,0.9193115,2.0532227,2.0531616
			c0,1.1339722-0.9194336,2.0531616-2.0532227,2.0531616c-1.1340332,0-2.0532227-0.9191895-2.0532227-2.0531616
			C2897.3500977,689.6246338,2898.2692871,688.7053223,2899.4033203,688.7053223z"/>
		<path d="M2961.767334,695.8757935c2.5588379,0,4.6330566,2.0744629,4.6330566,4.6330566
			c0,2.5588379-2.0742188,4.6330566-4.6330566,4.6330566c-2.5585938,0-4.6328125-2.0742188-4.6328125-4.6330566
			C2957.1345215,697.9502563,2959.2087402,695.8757935,2961.767334,695.8757935z"/>
		<path d="M2982.6745605,660.8532715c1.5219727,0,2.7558594,1.2340088,2.7558594,2.7560425
			c0,1.5221558-1.2338867,2.7559814-2.7558594,2.7559814c-1.5222168,0-2.7558594-1.2338257-2.7558594-2.7559814
			C2979.9187012,662.0872803,2981.1523438,660.8532715,2982.6745605,660.8532715z"/>
		<path d="M2988.223877,647.6064453c1.1320801,0,2.0498047,0.9177246,2.0498047,2.0496826
			c0,1.1320801-0.9177246,2.0497437-2.0498047,2.0497437c-1.1318359,0-2.0495605-0.9176636-2.0495605-2.0497437
			C2986.1743164,648.5241699,2987.092041,647.6064453,2988.223877,647.6064453z"/>
		<path d="M2930.8693848,655.9911499c-0.1157227,0.2693481-5.5568848,13.8880005-6.1843262,15.4215088
			c-0.7043457,1.722229-2.1713867,4.092041-5.017334,4.092041c-2.1848145,0-6.8041992-1.9454956-5.5869141-6.9395142
			c0.3461914-1.4207764,3.8337402-12.4790649,4.8691406-15.6062012c0.9274902-2.8013916,2.2785645-8.0055542,8.1618652-8.0055542
			c2.8249512,0,4.0422363,2.1918945,5.9494629,2.1918945c1.8200684,0,2.8171387-3.15802,6.1437988-3.15802
			c2.4345703,0,3.6064453,2.5998535,4.612793,2.5998535c0.8293457,0,1.3605957-1.2300415,4.4262695-1.2300415
			c2.7399902,0,5.3205566,2.0701294,5.3205566,5.2843018c0,2.3484497-2.9558105,8.6896973-4.1435547,11.4237671
			c-1.6162109,3.7208862-2.269043,6.2161865-2.269043,7.3121338s0.4230957,2.6442261,2.661377,2.8964233
			c2.2893066,0.2579956,4.2272949,0.5576782,4.2272949,2.3484497c0,1.4873657-1.5183105,2.583313-3.9140625,2.583313
			c-3.4667969,0-9.550293-1.4515991-9.550293-7.1236572c0-2.8999634,0.9284668-4.0821533,1.800293-5.8710938
			c1.0996094-2.2559204,3.1848145-6.7091064,3.9675293-8.4312744c0.782959-1.722229,0.8254395-2.7532349-0.3723145-3.0245972
			c-0.8571777-0.1941528-1.6547852,0.2250366-2.3425293,1.7489624c-0.6345215,1.4053955-6.0810547,11.8742676-6.888916,13.6992798
			c-0.9196777,2.0780029-2.223877,3.5813599-4.1809082,3.5813599s-3.4692383-1.3182983-2.3127441-4.3712769
			c0.8598633-2.2705688,3.5480957-8.7113647,4.0722656-10.3082275c0.5498047-1.6741943,0.0578613-2.5993652-1.0012207-2.8689575
			C2932.5153809,654.0317383,2931.565918,654.3708496,2930.8693848,655.9911499z"/>
		<path d="M2976.1274414,653.8446655c0,3.5245361-1.6989746,6.6253052-4.2915039,8.6204834
			c1.9345703,3.0114746,3.0703125,6.5852051,3.0703125,10.4301147c0,10.6814575-8.6584473,19.3397827-19.3398438,19.3397827
			c-0.2585449,0-0.5095215-0.0285645-0.765625-0.0385742c-1.253418,5.8215332-6.4189453,10.1885986-12.6149902,10.1885986
			c-3.4204102,0-6.5085449-1.3538208-8.8190918-3.524353c-3.0400391,2.477417-6.9172363,3.9664307-11.1445312,3.9664307
			c-9.654541,0-17.4873047-7.7520142-17.6425781-17.3701172c-7.840332-1.2880249-13.828125-8.0771484-13.828125-16.2828369
			c0-4.8405762,2.0947266-9.1812134,5.4121094-12.203064c-1.3964844-2.3248291-2.2143555-5.0369263-2.2143555-7.9464111
			c0-7.7473755,5.7004395-14.1469116,13.1318359-15.2780151c3.3049316-8.607605,11.6264648-14.7288818,21.3969727-14.7288818
			c4.6945801,0,9.0554199,1.4160767,12.6904297,3.8359985c2.1662598-0.8130493,4.5024414-1.2788086,6.9526367-1.2788086
			c10.9470215,0,19.8208008,8.8746338,19.8208008,19.8208008c0,0.6386108-0.0366211,1.2684326-0.095459,1.8915405
			C2972.5949707,644.4701538,2976.1274414,648.7303467,2976.1274414,653.8446655z M2962.9953613,670.0084229
			c0-4.0030518-1.9931641-7.0106201-2.9760742-8.3594971c0.588623-0.5199585,3.902832-2.3011475,3.902832-6.0976562
			c0-5.0948486-4.8762207-6.3212891-6.4311523-6.553894c0,0,0.2192383-1.9639893,0.2192383-2.8933105
			c0-7.239502-5.8896484-13.1292114-13.1291504-13.1292114c-3.0749512,0-5.5209961,1.1925659-5.5209961,1.1925659
			s-3.8066406-3.1331787-9.3857422-3.1331787c-11.5087891,0-14.8508301,10.9883423-14.8508301,10.9883423
			s-8.9040527,0.3960571-9.4399414,9.8709106c-0.1804199,3.189209,2.2141113,6.388855,2.2141113,6.388855
			s-4.6408691,3.1532593-4.6408691,8.9021606c0,8.4439697,7.777832,10.6175537,10.4677734,10.7285767l0.0258789,1.597229
			c0.1005859,6.2310181,5.2487793,11.300415,11.4763184,11.300415c4.8896484,0,7.7346191-2.9660645,8.546875-3.6375732
			c0.472168,0.3789062,2.7155762,3.302124,6.6032715,3.302124c5.184082,0,7.7202148-4.4352417,8.0419922-7.7932739
			c0,0,1.4921875,0.0905762,2.1123047,0.0905762C2957.2695312,682.772583,2962.9953613,677.0465698,2962.9953613,670.0084229z"/>
	</g>
	<g id="Regular-S">
		<path d="M1431.0445557,610.718689c1.2010498,0,2.1745605,0.9736938,2.1745605,2.1746216
			c0,1.2009888-0.9735107,2.1745605-2.1745605,2.1745605c-1.2009277,0-2.1744385-0.9735718-2.1744385-2.1745605
			C1428.8701172,611.6923828,1429.8436279,610.718689,1431.0445557,610.718689z"/>
		<path d="M1457.7684326,613.4692383c2.2382812,0,4.0527344,1.8145752,4.0527344,4.0526733
			c0,2.2382812-1.8144531,4.0526733-4.0527344,4.0526733c-2.2380371,0-4.0523682-1.8143921-4.0523682-4.0526733
			C1453.7160645,615.2838135,1455.5303955,613.4692383,1457.7684326,613.4692383z"/>
		<path d="M1421.9665527,626.1449585c1.6833496,0,3.0479736,1.3647461,3.0479736,3.0479736
			c0,1.6834106-1.364624,3.0479736-3.0479736,3.0479736c-1.6832275,0-3.0478516-1.364563-3.0478516-3.0479736
			C1418.9187012,627.5097046,1420.2833252,626.1449585,1421.9665527,626.1449585z"/>
		<path d="M1488.3808594,635.9452515c1.8946533,0,3.430542,1.5359497,3.430542,3.4304199
			c0,1.8946533-1.5358887,3.430481-3.430542,3.430481c-1.8944092,0-3.4302979-1.5358276-3.4302979-3.430481
			C1484.9505615,637.4812012,1486.4864502,635.9452515,1488.3808594,635.9452515z"/>
		<path d="M1406.1789551,654.5182495c2.2385254,0,4.0529785,1.8146973,4.0529785,4.0529785
			c0,2.2384644-1.8144531,4.0529785-4.0529785,4.0529785c-2.2382812,0-4.0527344-1.8145142-4.0527344-4.0529785
			C1402.1262207,656.3329468,1403.9406738,654.5182495,1406.1789551,654.5182495z"/>
		<path d="M1449.3544922,700.4082031c1.4353027,0,2.5986328,1.1635742,2.5986328,2.5986938
			c0,1.4352417-1.1633301,2.5986328-2.5986328,2.5986328c-1.4351807,0-2.5985107-1.1633911-2.5985107-2.5986328
			C1446.7559814,701.5717773,1447.9193115,700.4082031,1449.3544922,700.4082031z"/>
		<path d="M1418.9606934,686.1224365c1.0310059,0,1.8666992,0.8358154,1.8666992,1.8667603
			c0,1.0310059-0.8356934,1.8667603-1.8666992,1.8667603s-1.8666992-0.8357544-1.8666992-1.8667603
			C1417.0939941,686.958252,1417.9296875,686.1224365,1418.9606934,686.1224365z"/>
		<path d="M1475.6623535,692.6419067c2.3265381,0,4.2124023,1.8860474,4.2124023,4.2124023
			c0,2.3264771-1.8858643,4.2124023-4.2124023,4.2124023c-2.3262939,0-4.2121582-1.8859253-4.2121582-4.2124023
			C1471.4501953,694.5279541,1473.3360596,692.6419067,1475.6623535,692.6419067z"/>
		<path d="M1494.6713867,660.7991943c1.3839111,0,2.5057373,1.1219482,2.5057373,2.5057983
			c0,1.3839722-1.1218262,2.5057983-2.5057373,2.5057983s-2.5057373-1.1218262-2.5057373-2.5057983
			C1492.1656494,661.9211426,1493.2874756,660.7991943,1494.6713867,660.7991943z"/>
		<path d="M1499.7169189,648.7550659c1.0292969,0,1.8636475,0.8344116,1.8636475,1.8636475
			s-0.8343506,1.8635864-1.8636475,1.8635864c-1.0291748,0-1.8635254-0.8343506-1.8635254-1.8635864
			S1498.6877441,648.7550659,1499.7169189,648.7550659z"/>
		<path d="M1447.2298584,655.8719482c-0.1179199,0.2744751-5.6635742,14.1547852-6.3029785,15.7177124
			c-0.7181396,1.7553101-2.2133789,4.1706543-5.1137695,4.1706543c-2.2268066,0-6.9350586-1.9828491-5.6943359-7.0728149
			c0.3530273-1.4481201,3.9074707-12.71875,4.9626465-15.9060059c0.9453125-2.8551636,2.3222656-8.1593018,8.3187256-8.1593018
			c2.8791504,0,4.119751,2.2340088,6.0637207,2.2340088c1.8549805,0,2.8712158-3.218689,6.2618408-3.218689
			c2.4813232,0,3.6756592,2.6497803,4.7012939,2.6497803c0.8453369,0,1.3867188-1.2536621,4.5113525-1.2536621
			c2.7926025,0,5.4226074,2.1098633,5.4226074,5.3858643c0,2.3935547-3.0125732,8.8565674-4.2230225,11.6431885
			c-1.6473389,3.7922974-2.3127441,6.3355713-2.3127441,7.4525757s0.4313965,2.6950073,2.7127686,2.9520264
			c2.3331299,0.2629395,4.3083496,0.5683594,4.3083496,2.3935547c0,1.5159302-1.5476074,2.6329346-3.9892578,2.6329346
			c-3.5334473,0-9.7337646-1.4794922-9.7337646-7.260437c0-2.9556885,0.9464111-4.1606445,1.835083-5.9839478
			c1.1206055-2.2992554,3.2457275-6.8379517,4.0435791-8.5932007c0.7978516-1.7553101,0.8414307-2.8061523-0.3795166-3.0827026
			c-0.8736572-0.197876-1.6864014,0.2293701-2.3875732,1.7825317c-0.6466064,1.4324341-6.1977539,12.102417-7.0211182,13.9624634
			c-0.9375,2.1179199-2.2666016,3.6501465-4.2612305,3.6501465s-3.5358887-1.3436279-2.3572998-4.4552612
			c0.8765869-2.314209,3.6162109-8.8786621,4.1507568-10.5062256c0.5603027-1.7062988,0.0588379-2.649292-1.0205078-2.9240112
			C1448.9074707,653.8748779,1447.9396973,654.220459,1447.2298584,655.8719482z"/>
		<path d="M1488.7097168,654.425293c0,3.2045288-1.5446777,6.0238037-3.9018555,7.8378296
			c1.7589111,2.7380371,2.791626,5.9873047,2.791626,9.4830933c0,9.7116089-7.8723145,17.5838623-17.5837402,17.5838623
			c-0.2351074,0-0.463501-0.026001-0.6962891-0.0350952c-1.1396484,5.2929077-5.8361816,9.2635498-11.4696045,9.2635498
			c-3.1097412,0-5.9174805-1.230957-8.0183105-3.2044067c-2.763916,2.2524414-6.2893066,3.6062622-10.1326904,3.6062622
			c-8.777832,0-15.8994141-7.0480957-16.0406494-15.7929688c-7.128418-1.1710205-12.5726318-7.34375-12.5726318-14.8044434
			c0-4.401001,1.9046631-8.3475342,4.9206543-11.0950317c-1.2696533-2.1137695-2.0131836-4.5796509-2.0131836-7.2249146
			c0-7.0439453,5.1828613-12.8624268,11.9395752-13.8908081c3.0047607-7.8261108,10.5706787-13.3916016,19.4542236-13.3916016
			c4.2681885,0,8.2331543,1.2875366,11.5380859,3.4877319c1.9696045-0.7392578,4.0936279-1.1627197,6.3214111-1.1627197
			c9.9530029,0,18.0211182,8.0689087,18.0211182,18.0211182c0,0.5806885-0.0332031,1.1533203-0.0869141,1.7198486
			C1485.4980469,645.9019775,1488.7097168,649.7753906,1488.7097168,654.425293z M1480.4936523,670.2661743
			c0-4.1438599-2.0633545-7.2573242-3.0809326-8.6536255c0.609375-0.538269,4.0401611-2.3821411,4.0401611-6.3122559
			c0-5.2741089-5.0478516-6.5436401-6.6574707-6.7844849c0,0,0.2270508-2.0330811,0.2270508-2.9951172
			c0-7.4942017-6.0969238-13.5911865-13.5911865-13.5911865c-3.1831055,0-5.7150879,1.2345581-5.7150879,1.2345581
			s-3.9406738-3.2434692-9.7160645-3.2434692c-11.9136963,0-15.3735352,11.375061-15.3735352,11.375061
			s-9.2172852,0.4099731-9.7720947,10.2182007c-0.1866455,3.3014526,2.2921143,6.6135864,2.2921143,6.6135864
			s-4.8043213,3.2642212-4.8043213,9.2154541c0,8.7410889,8.0516357,10.9911499,10.8363037,11.1060791l0.0267334,1.6534424
			c0.104126,6.4502563,5.4335938,11.697998,11.880249,11.697998c5.0615234,0,8.0067139-3.0703735,8.8474121-3.7655029
			c0.4887695,0.3922119,2.8112793,3.4182739,6.8356934,3.4182739c5.3665771,0,7.9919434-4.5913086,8.3248291-8.0674438
			c0,0,1.5447998,0.09375,2.1867676,0.09375C1474.5662842,683.4794922,1480.4936523,677.5519409,1480.4936523,670.2661743z"/>
	</g>
	<g id="Ultralight-S">
		<path d="M541.7183228,610.7384033c1.1479492,0,2.0784912,0.930603,2.0784912,2.0784912
			c0,1.1480103-0.930542,2.0785522-2.0784912,2.0785522c-1.1478882,0-2.0784302-0.930542-2.0784302-2.0785522
			C539.6398926,611.6690063,540.5704346,610.7384033,541.7183228,610.7384033z"/>
		<path d="M567.2618408,613.3674316c2.1394653,0,3.8736572,1.734436,3.8736572,3.8736572
			c0,2.1394043-1.7341919,3.8736572-3.8736572,3.8736572c-2.1392212,0-3.8734741-1.7342529-3.8734741-3.8736572
			C563.3883667,615.1018677,565.1226196,613.3674316,567.2618408,613.3674316z"/>
		<path d="M533.0412598,625.4832764c1.6090088,0,2.9133301,1.3044434,2.9133301,2.9133301
			c0,1.6090698-1.3043213,2.9133301-2.9133301,2.9133301c-1.6088867,0-2.913208-1.3042603-2.913208-2.9133301
			C530.1280518,626.7877197,531.432373,625.4832764,533.0412598,625.4832764z"/>
		<path d="M596.5221558,634.850647c1.8109741,0,3.2789307,1.4681396,3.2789307,3.2789307
			c0,1.8109741-1.4679565,3.2789917-3.2789307,3.2789917c-1.810791,0-3.2787476-1.4680176-3.2787476-3.2789917
			C593.2434082,636.3187866,594.7113647,634.850647,596.5221558,634.850647z"/>
		<path d="M517.9510498,652.6033325c2.1395874,0,3.8739624,1.7345581,3.8739624,3.8739624
			c0,2.1395874-1.734375,3.8739624-3.8739624,3.8739624c-2.1394043,0-3.8737793-1.734375-3.8737793-3.8739624
			C514.0772705,654.3378906,515.8116455,652.6033325,517.9510498,652.6033325z"/>
		<path d="M559.2194824,696.4663696c1.3718872,0,2.4839478,1.1121826,2.4839478,2.4838867
			c0,1.3718872-1.1120605,2.4838867-2.4839478,2.4838867c-1.3717041,0-2.4837646-1.1119995-2.4837646-2.4838867
			C556.7357178,697.5785522,557.8477783,696.4663696,559.2194824,696.4663696z"/>
		<path d="M530.1681519,682.8115845c0.9854736,0,1.7843018,0.7989502,1.7843018,1.7843018
			c0,0.9854736-0.7988281,1.7843018-1.7843018,1.7843018c-0.9854126,0-1.7842407-0.7988281-1.7842407-1.7843018
			C528.3839111,683.6105347,529.1827393,682.8115845,530.1681519,682.8115845z"/>
		<path d="M584.3654175,689.0430908c2.2237549,0,4.0263062,1.8027954,4.0263062,4.0263062
			c0,2.2237549-1.8025513,4.0263672-4.0263062,4.0263672c-2.2235718,0-4.026123-1.8026123-4.026123-4.0263672
			C580.3392944,690.8458862,582.1418457,689.0430908,584.3654175,689.0430908z"/>
		<path d="M602.53479,658.6068726c1.3228149,0,2.3950806,1.0723877,2.3950806,2.3950806
			c0,1.3228149-1.0722656,2.3951416-2.3950806,2.3951416c-1.3226929,0-2.3950195-1.0723267-2.3950195-2.3951416
			C600.1397705,659.6792603,601.2120972,658.6068726,602.53479,658.6068726z"/>
		<path d="M607.3575439,647.0947266c0.9837646,0,1.78125,0.7975464,1.78125,1.781311s-0.7974854,1.78125-1.78125,1.78125
			s-1.78125-0.7974854-1.78125-1.78125S606.3737793,647.0947266,607.3575439,647.0947266z"/>
		<path d="M554.7728882,652.4099731c-0.1311646,0.3052979-6.2981567,15.7406006-7.0091553,17.4786377
			c-0.7985229,1.9519043-2.4612427,4.6378784-5.6866455,4.6378784c-2.4763184,0-7.7119141-2.2050171-6.3322754-7.8651733
			c0.3925171-1.6103516,4.3452148-14.1436768,5.5186768-17.6879883c1.0511475-3.1750488,2.5823975-9.0733643,9.2506714-9.0733643
			c3.2016602,0,4.5812988,2.4842529,6.743042,2.4842529c2.0628052,0,3.1928711-3.5793457,6.9633789-3.5793457
			c2.7593384,0,4.0873413,2.9467163,5.2280273,2.9467163c0.9399414,0,1.5419922-1.394165,5.0167236-1.394165
			c3.1053467,0,6.0300903,2.3462524,6.0300903,5.9892578c0,2.6616821-3.3500977,9.8488159-4.696167,12.9475708
			c-1.8319092,4.2172241-2.5717773,7.0454102-2.5717773,8.2875366s0.4797363,2.9968872,3.0166016,3.2827759
			c2.5945435,0.2923584,4.7910767,0.632019,4.7910767,2.6617432c0,1.68573-1.7209473,2.9278564-4.4361572,2.9278564
			c-3.9293823,0-10.8243408-1.6452637-10.8243408-8.0738525c0-3.2868042,1.0524902-4.62677,2.0406494-6.6542969
			c1.2461548-2.5568848,3.609436-7.6040649,4.4967041-9.5559692c0.887207-1.9519043,0.9356079-3.1204834-0.4221191-3.4280396
			c-0.9714966-0.2200317-1.8753052,0.2550659-2.6550293,1.9822388c-0.7189941,1.5928955-6.8920898,13.458252-7.8076782,15.5266724
			c-1.0424805,2.3552246-2.5205688,4.0591431-4.7386475,4.0591431s-3.9320679-1.4942017-2.6213989-4.9544678
			c0.9747925-2.5734253,4.0214233-9.873291,4.6157227-11.6832275c0.6231079-1.8974609,0.0654907-2.946106-1.1347656-3.2515869
			C556.6384277,650.189209,555.5621948,650.5734863,554.7728882,652.4099731z"/>
		<path d="M596.8391113,652.5145264c0,3.0629272-1.4765015,5.7576904-3.7296143,7.4915771
			c1.6812744,2.6170654,2.668396,5.7228394,2.668396,9.06427c0,9.2825928-7.5246582,16.8071289-16.8071289,16.8071289
			c-0.2246704,0-0.4429932-0.0248413-0.6655273-0.0335693c-1.0892334,5.0592041-5.5783081,8.8543701-10.9629517,8.8543701
			c-2.9723511,0-5.6561279-1.1765137-7.6642456-3.0628052c-2.6417847,2.1529541-6.0113525,3.4469604-9.6850586,3.4469604
			c-8.3901367,0-15.1971436-6.7368164-15.3321533-15.0953979c-6.8135376-1.1193237-12.017334-7.0193481-12.017334-14.1505127
			c0-4.206604,1.8205566-7.9788208,4.7033081-10.6049805c-1.213562-2.0203857-1.9242554-4.3773193-1.9242554-6.9058228
			c0-6.7327881,4.9539795-12.2942505,11.4122314-13.2772217c2.8721313-7.4804077,10.1037598-12.8001099,18.5949707-12.8001099
			c4.0796509,0,7.8695068,1.2306519,11.0284424,3.3336792c1.8825684-0.706604,3.9128418-1.1113281,6.0421753-1.1113281
			c9.5134277,0,17.2250977,7.7124634,17.2250977,17.2250977c0,0.5549927-0.0316772,1.102356-0.0830078,1.6438599
			C593.7692871,644.3676147,596.8391113,648.0699463,596.8391113,652.5145264z M593.5878906,669.0703735
			c0-4.5841064-2.2825928-8.0283203-3.4082031-9.572998c0.6740723-0.595459,4.4694214-2.6352539,4.4694214-6.9828491
			c0-5.8344727-5.5842285-7.2388916-7.3648071-7.5053101c0,0,0.2511597-2.2490845,0.2511597-3.3133545
			c0-8.2904053-6.7446899-15.0350952-15.0350952-15.0350952c-3.5213623,0-6.3223267,1.3656616-6.3223267,1.3656616
			s-4.359314-3.5880127-10.748291-3.5880127c-13.1794434,0-17.006897,12.5835571-17.006897,12.5835571
			s-10.1966553,0.4534912-10.8103027,11.303772c-0.2064819,3.6522217,2.5356445,7.3162842,2.5356445,7.3162842
			s-5.3146973,3.6110229-5.3146973,10.194519c0,9.6697388,8.9070435,12.1588745,11.9874878,12.2860107l0.029541,1.8291016
			c0.1152344,7.1355591,6.0109253,12.9408569,13.1424561,12.9408569c5.5993042,0,8.8574219-3.3966675,9.7874756-4.1656494
			c0.5407104,0.4338989,3.1099243,3.7814331,7.5618286,3.7814331c5.9368286,0,8.8411255-5.0790405,9.2093506-8.9244995
			c0,0,1.7089233,0.1036987,2.4191284,0.1036987C587.0307617,683.6875,593.5878906,677.130188,593.5878906,669.0703735z"/>
	</g>
</g>
</svg>
