<?xml version="1.0" encoding="utf-8"?>
<!-- Generator: Adobe Illustrator 25.2.3, SVG Export Plug-In . SVG Version: 6.00 Build 0)  -->
<svg version="1.1" id="Layer_1" xmlns="http://www.w3.org/2000/svg" xmlns:xlink="http://www.w3.org/1999/xlink" x="0px" y="0px"
	 viewBox="0 0 3300 2200" enable-background="new 0 0 3300 2200" xml:space="preserve">
<g id="Notes">
	<rect id="artboard" y="0" fill="#FFFFFF" width="3300" height="2200"/>
	<line fill="none" stroke="#000000" stroke-width="0.5" x1="263" y1="292" x2="3036" y2="292"/>
	<text transform="matrix(1 0 0 1 263 321.999939)" font-family="'SFProDisplay-Bold'" font-size="13px">Weight/Scale Variations</text>
	<text transform="matrix(1 0 0 1 535.0122681 321.999939)" font-family="'SFProDisplay-Regular'" font-size="13px">Ultralight</text>
	<text transform="matrix(1 0 0 1 844.3900146 321.999939)" font-family="'SFProDisplay-Regular'" font-size="13px">Thin</text>
	<text transform="matrix(1 0 0 1 1139.3619385 321.999939)" font-family="'SFProDisplay-Regular'" font-size="13px">Light</text>
	<text transform="matrix(1 0 0 1 1429.0291748 321.999939)" font-family="'SFProDisplay-Regular'" font-size="13px">Regular</text>
	<text transform="matrix(1 0 0 1 1724.2575684 321.999939)" font-family="'SFProDisplay-Regular'" font-size="13px">Medium</text>
	<text transform="matrix(1 0 0 1 2017.5556641 321.999939)" font-family="'SFProDisplay-Regular'" font-size="13px">Semibold</text>
	<text transform="matrix(1 0 0 1 2327.6750488 321.999939)" font-family="'SFProDisplay-Regular'" font-size="13px">Bold</text>
	<text transform="matrix(1 0 0 1 2619.2561035 321.999939)" font-family="'SFProDisplay-Regular'" font-size="13px">Heavy</text>
	<text transform="matrix(1 0 0 1 2918.4702148 321.999939)" font-family="'SFProDisplay-Regular'" font-size="13px">Black</text>
	<line fill="none" stroke="#000000" stroke-width="0.5" x1="263" y1="1903" x2="3036" y2="1903"/>
	<g transform="matrix(1 0 0 1 263 1933)">
		<path d="M9.2480497,0.830078C10.3287497,0.8300779,11.344367,0.625,12.2948999,0.214844
			c0.9505339-0.4101567,1.7887669-0.979818,2.5146999-1.708984c0.7258663-0.7291666,1.2955332-1.5690097,1.7090006-2.5195298
			c0.4134007-0.95052,0.6201-1.9628901,0.6201-3.0371099s-0.2066994-2.0865941-0.6201-3.0371203
			c-0.4134674-0.9505329-0.984767-1.7903662-1.7139006-2.5194998c-0.7291994-0.7292004-1.5690327-1.2988663-2.5194998-1.7089996
			c-0.9505339-0.4101334-1.9661732-0.6152-3.0469198-0.6152c-1.0742207,0-2.0865903,0.2050667-3.0371103,0.6152
			s-1.7871065,0.9797993-2.5097599,1.7089996C2.96875-11.8782663,2.4007132-11.0384331,1.9873-10.0879002
			C1.5738934-9.1373739,1.36719-8.125,1.36719-7.0507798S1.5738934-4.96419,1.9873-4.01367
			C2.4007132-3.0631497,2.9703767-2.2233067,3.69629-1.49414s1.5641298,1.2988274,2.5146499,1.708984
			C7.1614604,0.625,8.17383,0.8300779,9.2480497,0.830078z M9.2480497-0.654297c-0.8854198,0-1.71387-0.1643876-2.4853497-0.493163
			c-0.7714868-0.3287734-1.4485698-0.78613-2.03125-1.3720701C4.1487632-3.1054699,3.6930332-3.7858098,3.36426-4.5605502
			c-0.3287802-0.7747402-0.49317-1.6048164-0.49317-2.4902296c0-0.8854198,0.1627634-1.7155004,0.4882901-2.4902406
			c0.32552-0.7747192,0.7796199-1.4550467,1.3623002-2.0409794c0.5826797-0.5859337,1.2597632-1.0433006,2.03125-1.3720999
			C7.5244164-13.2829008,8.3528671-13.4473,9.2382803-13.4473c0.8919458,0,1.7236528,0.1643991,2.49512,0.4932003
			c0.7714672,0.3287992,1.4501667,0.7861662,2.0360994,1.3720999c0.5859337,0.5859327,1.0449333,1.2662601,1.3769999,2.0409794
			c0.3320007,0.7747402,0.4980001,1.6048207,0.4980001,2.4902406c0,0.8854132-0.1643667,1.7154894-0.4931002,2.4902296
			c-0.3287992,0.7747405-0.7845325,1.4550803-1.3671999,2.0410202c-0.5826664,0.5859401-1.2613993,1.0432967-2.0361996,1.3720701
			C10.9732666-0.8186846,10.1399498-0.654297,9.2480497-0.654297z M5.8398399-7.0410199
			c0,0.2148466,0.0683599,0.3890028,0.20508,0.52247c0.1367202,0.13346,0.3190136,0.2001901,0.5468802,0.2001901h1.9140601v1.92383
			c0,0.2213535,0.0667295,0.4003899,0.2001896,0.5371099c0.1334667,0.1367199,0.3076229,0.20508,0.5224705,0.20508
			c0.2213535,0,0.4003859-0.0683601,0.5370998-0.20508c0.1367197-0.1367199,0.20508-0.3157563,0.20508-0.5371099v-1.92383h1.9237995
			c0.2213993,0,0.4004335-0.06673,0.5370998-0.2001901c0.1367331-0.1334672,0.2051001-0.3076234,0.2051001-0.52247
			c0-0.2213535-0.068367-0.4003868-0.2051001-0.5371003c-0.1366663-0.1367197-0.3157005-0.2050796-0.5370998-0.2050796H9.9707003
			v-1.9140706c0-0.2278862-0.0683603-0.4101629-0.20508-0.5468292c-0.136714-0.1367331-0.3157463-0.2051001-0.5370998-0.2051001
			c-0.2148476,0-0.3890038,0.068367-0.5224705,0.2051001c-0.13346,0.1366663-0.2001896,0.318943-0.2001896,0.5468292v1.9140706
			H6.5918002c-0.2278666,0-0.4101601,0.0683599-0.5468802,0.2050796C5.9081998-7.4414067,5.8398399-7.2623734,5.8398399-7.0410199z"
			/>
	</g>
	<g transform="matrix(1 0 0 1 281.867 1933)">
		<path d="M11.7089996,2.9101601c1.3606672,0,2.6416006-0.2604167,3.8428001-0.78125
			c1.2011337-0.5208334,2.2607002-1.2402358,3.1786995-2.1582069c0.9179344-0.9179688,1.6373348-1.9775398,2.1582012-3.1787131
			c0.5207996-1.2011731,0.7812004-2.4820969,0.7812004-3.8427699c0-1.3606801-0.2604008-2.6416202-0.7812004-3.8428206
			c-0.5208664-1.2011337-1.2402668-2.2606993-2.1582012-3.1786995c-0.9179993-0.9179335-1.9792004-1.6373329-3.1835995-2.1581993
			c-1.2044668-0.5207996-2.4870329-0.7812004-3.8477001-0.7812004s-2.6415825,0.2604008-3.8427491,0.7812004
			c-1.2011733,0.5208664-2.2591166,1.2402658-3.17383,2.1581993c-0.9147131,0.9180002-1.6324866,1.9775658-2.1533201,3.1786995
			C2.0084672-9.6924,1.7480505-8.4114599,1.7480503-7.0507798C1.7480505-5.6901069,2.0084672-4.409183,2.5293005-3.20801
			s1.2402332,2.2607443,2.1582,3.1787131c0.9179664,0.9179712,1.9775367,1.6373736,3.17871,2.1582069
			S10.3483133,2.9101601,11.7089996,2.9101601z M11.7089996,1.25c-1.1523533,0-2.2298326-0.2148436-3.23244-0.644531
			C7.4739599,0.1757813,6.5934277-0.418295,5.8349605-1.17676c-0.75846-0.7584602-1.3509068-1.6389933-1.7773399-2.6416001
			S3.4179704-5.8984399,3.4179704-7.0507798c0-1.1523461,0.2132168-2.2298207,0.6396501-3.2324204
			s1.0172534-1.8847656,1.77246-2.6464996c0.7552066-0.7617331,1.6341133-1.3557997,2.6367192-1.7821999
			c1.0025997-0.4264669,2.0800667-0.6396999,3.2323999-0.6396999s2.2298002,0.213233,3.2323999,0.6396999
			c1.0025997,0.4264002,1.8847666,1.0204668,2.6465006,1.7821999c0.761734,0.761734,1.3574333,1.6438999,1.7870998,2.6464996
			C19.7949333-9.2806005,20.0098-8.203126,20.0098-7.0507798c0,1.1523399-0.213232,2.2298131-0.6396999,3.2324197
			c-0.4263992,1.0026069-1.0188332,1.88314-1.7772999,2.6416001c-0.7584667,0.7584649-1.6406336,1.3525413-2.6465006,1.7822289
			S12.8613329,1.25,11.7089996,1.25z M7.3925805-7.0410199c0,0.2343798,0.0781231,0.4264402,0.2343698,0.57618
			C7.7832036-6.3151002,7.9850273-6.2402301,8.23242-6.2402301h2.6464796v2.6660101
			c0,0.2408867,0.0748663,0.4378266,0.2246008,0.5908198c0.1497335,0.1529932,0.3417997,0.22949,0.5761995,0.22949
			c0.2474003,0,0.449234-0.0764968,0.6055002-0.22949c0.1561995-0.1529932,0.2342997-0.3499331,0.2342997-0.5908198v-2.6660101
			h2.6563005c0.2408667,0,0.4394331-0.0748701,0.5956993-0.2246099s0.2343998-0.3418002,0.2343998-0.57618
			c0-0.2473936-0.0781336-0.447587-0.2343998-0.6005802s-0.3548326-0.2294898-0.5956993-0.2294898h-2.6563005v-2.6465101
			c0-0.2538662-0.0781002-0.4573002-0.2342997-0.6103001c-0.1562662-0.1529999-0.3580999-0.2294998-0.6055002-0.2294998
			c-0.2343998,0-0.426466,0.0764999-0.5761995,0.2294998c-0.1497345,0.1529999-0.2246008,0.3564339-0.2246008,0.6103001v2.6465101
			H8.23242c-0.2539062,0-0.4573565,0.0764966-0.6103497,0.2294898S7.3925805-7.2884135,7.3925805-7.0410199z"/>
	</g>
	<g transform="matrix(1 0 0 1 305.646 1933)">
		<path d="M14.9707003,5.6640601c1.393199,0,2.7229662-0.2164702,3.9892988-0.6494102
			c1.2662678-0.4329467,2.4300003-1.0400431,3.4912014-1.8212898c1.0611992-0.7812533,1.9840317-1.7024773,2.7684994-2.7636721
			c0.7845325-1.0611987,1.3932667-2.2265646,1.8262005-3.496098c0.4329338-1.2695265,0.6493988-2.5976501,0.6493988-3.9843698
			c0-1.3932271-0.216465-2.7229667-0.6493988-3.9892201c-0.4329338-1.2663326-1.0416679-2.4300671-1.8262005-3.4912004
			c-0.7844677-1.0611992-1.7073002-1.984066-2.7684994-2.7686005c-1.0612011-0.7845325-2.2265682-1.3932667-3.4961014-1.8261986
			c-1.2695312-0.4329338-2.6009331-0.6494007-3.9941988-0.6494007c-1.3931999,0-2.7229328,0.2164669-3.9892006,0.6494007
			c-1.2662859,0.4329319-2.4284029,1.041666-3.4863496,1.8261986c-1.05794,0.7845345-1.9791632,1.7074013-2.76367,2.7686005
			C3.9371731-13.470067,3.3300765-12.3063326,2.9003899-11.04c-0.4296865,1.2662535-0.6445298,2.595993-0.6445298,3.9892201
			c0,1.3867197,0.21647,2.7148433,0.64941,3.9843698c0.4329467,1.2695335,1.0400431,2.4348993,1.82129,3.496098
			c0.7812529,1.0611948,1.7024765,1.9824188,2.76367,2.7636721c1.0612006,0.7812467,2.2249236,1.3883431,3.4911695,1.8212898
			C12.2477341,5.4475899,13.5775003,5.6640601,14.9707003,5.6640601z M14.9707003,3.8476601
			c-1.2044001,0-2.3518677-0.1839199-3.4424-0.55176c-1.0904799-0.3678403-2.0881939-0.88379-2.9931402-1.5478501
			c-0.904953-0.6640646-1.6910863-1.4501987-2.3583999-2.358402C5.5094399-1.5185572,4.9934897-2.5179067,4.6289101-3.6084001
			C4.2643232-4.6988935,4.0820298-5.8463535,4.0820298-7.0507798c0-1.2109399,0.1822934-2.3616471,0.5468802-3.4521203
			c0.3645797-1.0905333,0.8789029-2.0899,1.5429697-2.9981003c0.6640601-0.9081993,1.4485636-1.6943321,2.3535099-2.3583994
			c0.9049463-0.6640663,1.9026833-1.1783657,2.9932108-1.5429001c1.0904665-0.3645992,2.2378998-0.5468998,3.4422998-0.5468998
			c1.2109327,0,2.3616648,0.1823006,3.452199,0.5468998c1.0904655,0.3645344,2.0897999,0.8788338,2.9980011,1.5429001
			c0.9081993,0.6640673,1.6943321,1.4502001,2.3584003,2.3583994c0.6640682,0.9082003,1.1800327,1.907567,1.5478992,2.9981003
			c0.3678017,1.0904732,0.5517006,2.2411804,0.5517006,3.4521203c0.0065327,1.2044263-0.1725006,2.3518863-0.5370998,3.4423797
			c-0.3645325,1.0904934-0.8804684,2.0898428-1.5478001,2.9980481c-0.6673336,0.9082034-1.455101,1.6943374-2.3633003,2.358402
			c-0.9081993,0.6640601-1.9075336,1.1800098-2.9980011,1.5478501C17.3323669,3.6637402,16.181633,3.8476601,14.9707003,3.8476601z
			 M9.4531202-7.0410199c0,0.2539067,0.0862637,0.46387,0.25879,0.62989
			c0.1725264,0.1660132,0.3922567,0.2490201,0.6591902,0.2490201H14.0625v3.70117
			c0,0.2669265,0.0830002,0.4850265,0.2489996,0.6542999c0.1660004,0.1692734,0.375967,0.2539101,0.6299,0.2539101
			c0.2734671,0,0.4948339-0.0846367,0.6641006-0.2539101c0.1692657-0.1692734,0.2539005-0.3873733,0.2538996-0.6542999v-3.70117
			h3.7010994c0.2669334,0,0.485033-0.0830069,0.6543007-0.2490201c0.1693325-0.1660199,0.2539997-0.3759832,0.2539997-0.62989
			c0-0.2734332-0.0846672-0.4947867-0.2539997-0.6640601c-0.1692677-0.1692662-0.3873672-0.2539001-0.6543007-0.2539001h-3.7010994
			v-3.6914201c0.000001-0.2734003-0.0846338-0.4947672-0.2538996-0.6640997
			c-0.1692667-0.1692677-0.3906336-0.2539005-0.6641006-0.2539005c-0.253933,0-0.4638996,0.0862675-0.6299,0.2588005
			c-0.1659994,0.172533-0.2489996,0.3922672-0.2489996,0.6591997v3.6914201h-3.6913996
			c-0.2734404,0-0.4947968,0.0846338-0.6640701,0.2539001C9.5377569-7.5358067,9.4531202-7.3144531,9.4531202-7.0410199z"/>
	</g>
	<text transform="matrix(1 0 0 1 263 1953)" font-family="'SFProDisplay-Bold'" font-size="13px">Design Variations</text>
	<text transform="matrix(1 0 0 1 263 1971)" font-family="'SFProDisplay-Regular'" font-size="13px">Symbols are supported in up to nine weights and three scales.</text>
	<text transform="matrix(1 0 0 1 263 1989)" font-family="'SFProDisplay-Regular'" font-size="13px">For optimal layout with text and other symbols, vertically align</text>
	<text transform="matrix(1 0 0 1 263 2007)" font-family="'SFProDisplay-Regular'" font-size="13px">symbols with the adjacent text.</text>
	<line fill="none" stroke="#00AEEF" stroke-width="0.5" x1="776" y1="1919" x2="776" y2="1933"/>
	<g transform="matrix(1 0 0 1 776 1933)">
		<path d="M3.31055,0.15625c0.2604132,0,0.4622364-0.0553385,0.6054699-0.1660156
			C4.0592465-0.1204425,4.1764331-0.3125,4.26758-0.585938l1.2597599-3.4472618h5.7617598l1.2597008,3.4472618
			c0.0911331,0.273438,0.208333,0.4654954,0.3515997,0.5761724c0.143199,0.1106771,0.3417673,0.1660156,0.5957003,0.1660156
			c0.2603998,0,0.4670992-0.0716146,0.6201-0.2148438c0.1529999-0.1432295,0.2294998-0.3385418,0.2294998-0.5859372
			c0-0.14974-0.035799-0.325523-0.1073999-0.527349L9.6582003-13.3690996
			c-0.1171875-0.2995338-0.2766895-0.524168-0.4785099-0.6739006c-0.201827-0.1497335-0.4589901-0.2245998-0.7714901-0.2245998
			c-0.6054673,0-1.0156236,0.2962332-1.2304702,0.8887005L2.5976601-1.16211c-0.07162,0.2018234-0.10743,0.3776046-0.10743,0.527344
			c0,0.247396,0.0732434,0.441081,0.2197299,0.5810551S3.0566432,0.15625,3.31055,0.15625z M6.0058599-5.51758l2.3730502-6.5722198
			h0.0488195L10.8008003-5.51758H6.0058599z"/>
	</g>
	<line fill="none" stroke="#00AEEF" stroke-width="0.5" x1="793.1970215" y1="1919" x2="793.1970215" y2="1933"/>
	<text transform="matrix(1 0 0 1 776 1953)" font-family="'SFProDisplay-Bold'" font-size="13px">Margins</text>
	<text transform="matrix(1 0 0 1 776 1971)" font-family="'SFProDisplay-Regular'" font-size="13px">Leading and trailing margins on the left and right side of each symbol</text>
	<text transform="matrix(1 0 0 1 776 1989)" font-family="'SFProDisplay-Regular'" font-size="13px">can be adjusted by modifying the x-location of the margin guidelines.</text>
	<text transform="matrix(1 0 0 1 776 2007)" font-family="'SFProDisplay-Regular'" font-size="13px">Modifications are automatically applied proportionally to all</text>
	<text transform="matrix(1 0 0 1 776 2025)" font-family="'SFProDisplay-Regular'" font-size="13px">scales and weights.</text>
	<g transform="matrix(1 0 0 1 1289 1933)">
		<path d="M2.8418,1.86523l1.6992199,1.70899c0.429687,0.4361999,0.8837867,0.6380236,1.3622999,0.6054699
			c0.4785137-0.0325532,0.9488897-0.30599,1.41113-0.8203099L18.0077991-8.4277296l-0.9667988-0.9765701L6.4257798,2.2753899
			C6.25,2.47721,6.0725899,2.5911434,5.8935499,2.6171899c-0.1790328,0.0260401-0.3857369-0.0781267-0.62011-0.3125
			L4.1015601,1.14258c-0.2343733-0.234376-0.33691-0.4410824-0.30761-0.620119
			c0.0292933-0.1790367,0.14485-0.3597007,0.3466702-0.5419922L15.6152-10.8203001l-0.9765005-0.9667997L3.04688-0.898438
			C2.5520866-0.4427086,2.2867866,0.0227863,2.2509799,0.498047C2.2151732,0.973309,2.4121132,1.4290366,2.8418,1.86523z
			 M9.2578096-16.3281002C9.0494766-16.1262989,8.9322901-15.8951998,8.90625-15.6348
			c-0.0260401,0.2604666,0.0195341,0.4883337,0.1367197,0.6836004c0.1171865,0.182333,0.288084,0.319066,0.5126905,0.4101992
			c0.2246132,0.0911331,0.4996939,0.0976334,0.8252401,0.0195007c0.7291336-0.1692667,1.4680653-0.239234,2.2167997-0.2098999
			c0.7486668,0.0292664,1.4810667,0.2782669,2.1971998,0.7469997l-0.5859003,1.4551001
			c-0.1692657,0.416667-0.216466,0.7796326-0.1415997,1.0888996c0.0748663,0.3092003,0.2457666,0.6005335,0.5127001,0.8740005
			L16.875-8.2519503c0.2408657,0.2473936,0.4752331,0.3906202,0.7031002,0.4296803
			c0.2278671,0.0390668,0.4817677,0.0325565,0.7616997-0.0195303l1.0645008-0.1953101l0.6640987,0.6738305l-0.0390987,0.5566397
			c-0.0195332,0.2473936,0.0114002,0.4752569,0.0928001,0.6835899c0.0813332,0.2083335,0.242466,0.4329433,0.4833984,0.67383
			l0.7617016,0.7421904c0.2408676,0.2408867,0.5028992,0.3662133,0.7860985,0.3759799
			c0.2832012,0.0097599,0.5419998-0.1025472,0.7764015-0.3369203l2.910099-2.91992
			c0.2344017-0.2343731,0.3483334-0.4899068,0.3418007-0.7666001c-0.0064678-0.2766933-0.1301689-0.5354834-0.3711014-0.77637
			L25.0391006-9.89258c-0.2343998-0.24088-0.454134-0.4052534-0.6592007-0.4931202
			c-0.2050667-0.0879335-0.4280663-0.1221333-0.6690006-0.1026001L23.1348-10.4394999L22.4902-11.0741997L22.7343998-12.1973
			c0.0650673-0.2799339,0.0520325-0.5419664-0.0391006-0.7861004s-0.2831993-0.5127001-0.5761986-0.8056993l-2.1972008-2.1875
			c-0.8333321-0.8268003-1.7203999-1.4469004-2.6611996-1.860301c-0.940733-0.4133987-1.8880005-0.628233-2.8418007-0.6444988
			c-0.9537325-0.0163326-1.8716993,0.1578007-2.7538996,0.5223999C10.7828665-17.5944004,9.9804697-17.050766,9.2578096-16.3281002z
			 M10.7519999-15.9569998c0.6054668-0.4427328,1.2548666-0.7585001,1.9482002-0.9473009
			c0.6933327-0.1887989,1.3948326-0.249033,2.1044998-0.1806984c0.7096004,0.0683994,1.3980665,0.2588329,2.0654001,0.5712986
			c0.6673317,0.3125343,1.2776985,0.7487326,1.8311005,1.3086004l2.4315987,2.4120998
			c0.1172009,0.1171999,0.1904335,0.2311335,0.2197018,0.3418007c0.0293331,0.1106663,0.0244656,0.2506657-0.0146008,0.4199991
			l-0.3223,1.4843006L22.5195007-9.0625l0.9863987-0.0585899c0.1236687-0.0065136,0.2180691,0.0016232,0.2832012,0.0244102
			c0.0650654,0.0227861,0.146431,0.0830069,0.2440987,0.1806593l0.5762005,0.5761805l-2.4414005,2.4414001l-0.5761986-0.57617
			C21.494133-6.5722632,21.4322662-6.6536431,21.4062004-6.71875c-0.0259991-0.0651069-0.0357323-0.1627636-0.0291996-0.2929702
			l0.0682983-0.9765596l-1.4940987-1.4843802L18.4277-9.21875c-0.1627331,0.0325537-0.2912998,0.0374365-0.3857002,0.0146503
			c-0.0944004-0.0227871-0.2034664-0.0927744-0.3271999-0.20996l-2.0018997-2.0019407
			c-0.1302004-0.1171999-0.203433-0.2294998-0.2196999-0.3368998c-0.0162668-0.1074667,0.0146322-0.2523336,0.0927-0.4345999
			l0.8788996-2.0897999c-0.7811995-0.7292004-1.6601-1.2337675-2.6366997-1.5137005
			c-0.9765329-0.279932-1.9726343-0.2701664-2.9883003,0.0293007c-0.0780659,0.0195322-0.1285,0.0048666-0.1512995-0.0440006
			C10.6657-15.8544998,10.6868668-15.904933,10.7519999-15.9569998z"/>
	</g>
	<text transform="matrix(1 0 0 1 1289 1953)" font-family="'SFProDisplay-Bold'" font-size="13px">Exporting</text>
	<text transform="matrix(1 0 0 1 1289 1971)" font-family="'SFProDisplay-Regular'" font-size="13px">Symbols should be outlined when exporting to ensure the</text>
	<text transform="matrix(1 0 0 1 1289 1989)" font-family="'SFProDisplay-Regular'" font-size="13px">design is preserved when submitting to Xcode.</text>
	
		<text id="template-version" transform="matrix(1 0 0 1 2956.4257812 1933)" font-family="'SFProDisplay-Regular'" font-size="13px">Template v.3.0</text>
	<text transform="matrix(1 0 0 1 2880.0063477 1951)" font-family="'SFProDisplay-Regular'" font-size="13px">Requires Xcode 13 or greater</text>
	
		<text id="descriptive-name" transform="matrix(1 0 0 1 2889.3754883 1969)" font-family="'SFProDisplay-Regular'" font-size="13px">Generated from trash.circle</text>
	<text transform="matrix(1 0 0 1 2919.7490234 1987)" font-family="'SFProDisplay-Regular'" font-size="13px">Typeset at 100 points</text>
	<text transform="matrix(1 0 0 1 263 726)" font-family="'SFProDisplay-Regular'" font-size="13px">Small</text>
	<text transform="matrix(1 0 0 1 263 1156)" font-family="'SFProDisplay-Regular'" font-size="13px">Medium</text>
	<text transform="matrix(1 0 0 1 263 1586)" font-family="'SFProDisplay-Regular'" font-size="13px">Large</text>
</g>
<g id="Guides">
	<g id="H-reference" transform="matrix(1 0 0 1 339 696)">
		<path fill="#27AAE1" d="M0.976562,0h2.6855481l25.6835899-67.1387024h0.6836014v-3.3202972H28.125L0.976562,0z
			 M11.6698999-24.4629002h35.3027992L46.2402-26.7089996H12.4511995L11.6698999-24.4629002z M55.1269989,0h2.6366997
			L30.6152-70.4589996h-1.1718006v3.3202972L55.1269989,0z"/>
	</g>
	<line id="Baseline-S" fill="none" stroke="#27AAE1" stroke-width="0.5" x1="263" y1="696" x2="3036" y2="696"/>
	<line id="Capline-S" fill="none" stroke="#27AAE1" stroke-width="0.5" x1="263" y1="625.5410156" x2="3036" y2="625.5410156"/>
	<g id="H-reference_1_" transform="matrix(1 0 0 1 339 1126)">
		<path fill="#27AAE1" d="M0.976562,0h2.6855481l25.6835899-67.1387024h0.6836014v-3.3202972H28.125L0.976562,0z
			 M11.6698999-24.4629002h35.3027992L46.2402-26.7089996H12.4511995L11.6698999-24.4629002z M55.1269989,0h2.6366997
			L30.6152-70.4589996h-1.1718006v3.3202972L55.1269989,0z"/>
	</g>
	<line id="Baseline-M" fill="none" stroke="#27AAE1" stroke-width="0.5" x1="263" y1="1126" x2="3036" y2="1126"/>
	<line id="Capline-M" fill="none" stroke="#27AAE1" stroke-width="0.5" x1="263" y1="1055.5400391" x2="3036" y2="1055.5400391"/>
	<g id="H-reference_2_" transform="matrix(1 0 0 1 339 1556)">
		<path fill="#27AAE1" d="M0.976562,0h2.6855481l25.6835899-67.1387024h0.6836014v-3.3202972H28.125L0.976562,0z
			 M11.6698999-24.4629002h35.3027992L46.2402-26.7089996H12.4511995L11.6698999-24.4629002z M55.1269989,0h2.6366997
			L30.6152-70.4589996h-1.1718006v3.3202972L55.1269989,0z"/>
	</g>
	<line id="Baseline-L" fill="none" stroke="#27AAE1" stroke-width="0.5" x1="263" y1="1556" x2="3036" y2="1556"/>
	<line id="Capline-L" fill="none" stroke="#27AAE1" stroke-width="0.5" x1="263" y1="1485.5400391" x2="3036" y2="1485.5400391"/>
	
		<line id="left-margin-Ultralight-S" fill="none" stroke="#00AEEF" stroke-width="0.5" x1="515.4813232" y1="600.7849731" x2="515.4813232" y2="720.1209717"/>
	
		<line id="right-margin-Ultralight-S" fill="none" stroke="#00AEEF" stroke-width="0.5" x1="603.9413452" y1="600.7849731" x2="603.9413452" y2="720.1209717"/>
	
		<line id="left-margin-Regular-S" fill="none" stroke="#00AEEF" stroke-width="0.5" x1="1403.4890137" y1="600.7849731" x2="1403.4890137" y2="720.1209717"/>
	
		<line id="right-margin-Regular-S" fill="none" stroke="#00AEEF" stroke-width="0.5" x1="1496.2490234" y1="600.7849731" x2="1496.2490234" y2="720.1209717"/>
	
		<line id="left-margin-Black-S" fill="none" stroke="#00AEEF" stroke-width="0.5" x1="2884.3981934" y1="600.7849731" x2="2884.3981934" y2="720.1209717"/>
	
		<line id="right-margin-Black-S" fill="none" stroke="#00AEEF" stroke-width="0.5" x1="2982.3981934" y1="600.7849731" x2="2982.3981934" y2="720.1209717"/>
</g>
<g id="Symbols">
	<g id="Black-S">
		<path id="circle_30_" d="M2891.3981934,660.7948608c0-23.1959839,18.8039551-42,42-42s42,18.8040161,42,42
			c0,23.1960449-18.8039551,42-42,42S2891.3981934,683.9909058,2891.3981934,660.7948608z M2905.3981934,660.7948608
			c0,15.4639893,12.5361328,28,28,28s28-12.5360107,28-28c0-15.4639282-12.5361328-28-28-28
			S2905.3981934,645.3309326,2905.3981934,660.7948608z"/>
		<path d="M2931.3776855,651.0119629c-1.7397461-3.0320435-2.9724121-5.1802979-3.0871582-5.3804321
			c-0.640625-1.1164551-0.2548828-2.5405884,0.8613281-3.1810913c1.1164551-0.6405029,2.5405273-0.2550049,3.1811523,0.8614502
			c0.0820312,0.1428223,0.734375,1.2799683,1.7316895,3.0176392
			C2933.3291016,647.6113892,2932.404541,649.2223511,2931.3776855,651.0119629z"/>
		<path d="M2948.8745117,672.1400757c0.640625,1.116394,0.2548828,2.5405884-0.8613281,3.1810913
			s-2.5407715,0.2549438-3.1811523-0.8614502c-0.2270508-0.3955078-4.7990723-8.3632202-9.079834-15.8241577
			c-1.0307617-2.6794434-0.7338867-5.1690063,1.1057129-7.4378662
			C2941.6606445,659.567749,2948.5939941,671.6507568,2948.8745117,672.1400757z"/>
		<path d="M2927.7243652,664.4212036c-1.9523926,0-3.7851562,0-5.373291,0
			c4.8054199-8.3753052,11.8295898-20.6166992,12.1123047-21.109314c0.640625-1.1164551,2.0646973-1.5019531,3.1809082-0.8614502
			c1.1164551,0.6405029,1.5021973,2.0646362,0.8615723,3.1810913
			C2938.2485352,646.0802612,2932.3974609,656.2769165,2927.7243652,664.4212036z"/>
		<path d="M2919.6765137,669.0820312c1.7888184-0.4542847,3.3439941-0.0881958,4.5881348,1.3689575
			c-1.3156738,2.2927856-2.2036133,3.8403931-2.300293,4.008728c-0.640625,1.116394-2.0649414,1.5019531-3.1811523,0.8614502
			s-1.5019531-2.0646973-0.8613281-3.1810913C2918.0043945,671.9961548,2918.666748,670.8418579,2919.6765137,669.0820312z"/>
		<path d="M2935.7563477,663.2885742c1.6540527,0.2312622,3.6530762,1.9884033,2.6745605,4.6608887
			c-9.3876953,0-21.1340332,0-21.651123,0c-1.2873535,0-2.3303223-1.043396-2.3303223-2.3304443
			s1.0429688-2.3304443,2.3303223-2.3304443C2917.2485352,663.2885742,2926.9516602,663.2885742,2935.7563477,663.2885742z"/>
		<path d="M2950.0166016,663.2885742c1.2868652,0,2.3303223,1.043396,2.3303223,2.3304443s-1.043457,2.3304443-2.3303223,2.3304443
			c-0.230957,0-2.7116699,0-6.2121582,0c-0.7751465-1.3510742-1.6855469-2.937561-2.6743164-4.6608887
			C2945.9951172,663.2885742,2949.7302246,663.2885742,2950.0166016,663.2885742z"/>
	</g>
	<g id="Regular-S">
		<path id="circle_29_" d="M1410.4890137,660.7460938c0-21.7490234,17.6311035-39.3800049,39.3800049-39.3800049
			c21.7490234,0,39.3800049,17.6309814,39.3800049,39.3800049s-17.6309814,39.3800049-39.3800049,39.3800049
			C1428.1201172,700.1260986,1410.4890137,682.4951172,1410.4890137,660.7460938z M1417.6490479,660.7460938
			c0,17.7946167,14.425415,32.2200317,32.2199707,32.2200317c17.7946777,0,32.2200928-14.425415,32.2200928-32.2200317
			s-14.425415-32.2199707-32.2200928-32.2199707C1432.0744629,628.526123,1417.6490479,642.9514771,1417.6490479,660.7460938z"/>
		<path d="M1447.3878174,649.2867432c-2.1365967-3.7235718-3.6501465-6.3616943-3.7912598-6.6074219
			c-0.7867432-1.3710938-0.3128662-3.1199951,1.0579834-3.9065552c1.3709717-0.7866211,3.119751-0.3131714,3.9064941,1.0578613
			c0.100708,0.1754761,0.9018555,1.5718994,2.1263428,3.7058716
			C1449.7841797,645.1106567,1448.6489258,647.0889893,1447.3878174,649.2867432z"/>
		<path d="M1468.8747559,675.2329102c0.7867432,1.3710327,0.3129883,3.1199951-1.0579834,3.9065552
			c-1.3707275,0.7866211-3.119873,0.3131104-3.9064941-1.0578613c-0.2786865-0.4857178-5.8933105-10.2704468-11.1503906-19.4327393
			c-1.2657471-3.2905273-0.9012451-6.3477783,1.3579102-9.1340942
			C1460.0157471,659.7935181,1468.5300293,674.632019,1468.8747559,675.2329102z"/>
		<path d="M1442.9013672,665.7537842c-2.397583,0-4.6481934,0-6.5987549,0
			c5.9013672-10.2852173,14.5272217-25.3181763,14.8745117-25.9231567c0.7867432-1.3710327,2.5355225-1.8444824,3.9063721-1.0578613
			c1.3709717,0.7865601,1.8448486,2.5354614,1.0579834,3.9065552
			C1455.8254395,643.2303467,1448.6401367,655.7523193,1442.9013672,665.7537842z"/>
		<path d="M1433.0181885,671.4775391c2.1968994-0.5578613,4.1066895-0.1083374,5.6343994,1.6811523
			c-1.6156006,2.8156128-2.7060547,4.7161255-2.824707,4.9229126c-0.7867432,1.3709717-2.5357666,1.8444824-3.9067383,1.0578613
			c-1.3708496-0.7865601-1.8444824-2.5355225-1.0577393-3.9065552
			C1430.9647217,675.0562134,1431.7780762,673.6386719,1433.0181885,671.4775391z"/>
		<path d="M1452.7650146,664.362915c2.0311279,0.2839966,4.4859619,2.4418335,3.2844238,5.7237549
			c-11.5285645,0-25.9536133,0-26.588501,0c-1.5808105,0-2.8618164-1.2813721-2.8618164-2.8618774
			c0-1.5805664,1.2810059-2.8618774,2.8618164-2.8618774C1430.0367432,664.362915,1441.9525146,664.362915,1452.7650146,664.362915z
			"/>
		<path d="M1470.2772217,664.362915c1.5803223,0,2.8618164,1.281311,2.8618164,2.8618774
			c0,1.5805054-1.2814941,2.8618774-2.8618164,2.8618774c-0.2836914,0-3.3300781,0-7.6289062,0
			c-0.9517822-1.6591797-2.0698242-3.6074219-3.2841797-5.7237549
			C1465.3387451,664.362915,1469.9256592,664.362915,1470.2772217,664.362915z"/>
	</g>
	<g id="Ultralight-S">
		<path id="circle_32_" d="M522.4813232,660.7460938c0-20.5615845,16.668457-37.2299805,37.2300415-37.2299805
			s37.2299805,16.668396,37.2299805,37.2299805s-16.668396,37.2300415-37.2299805,37.2300415
			S522.4813232,681.3076782,522.4813232,660.7460938z M524.6713257,660.7460938
			c0,19.3520508,15.6879883,35.0400391,35.0400391,35.0400391s35.039978-15.6879883,35.039978-35.0400391
			s-15.6879272-35.039978-35.039978-35.039978S524.6713257,641.394043,524.6713257,660.7460938z"/>
		<path d="M557.3656006,649.9123535c-2.0199585-3.5202026-3.4509277-6.0143433-3.5842896-6.2466431
			c-0.7438354-1.2962646-0.2957764-2.949646,1.0001831-3.6932983c1.2960815-0.7436523,2.9494019-0.2960815,3.6932373,1.0001831
			c0.0952148,0.1658325,0.8526001,1.4860229,2.0103149,3.503479
			C559.6311035,645.9642944,558.5578613,647.8346558,557.3656006,649.9123535z"/>
		<path d="M577.6793213,674.4420166c0.7438354,1.2961426,0.2960205,2.949646-1.0001221,3.6932373
			c-1.2958984,0.7436523-2.949585,0.2960205-3.6932373-1.0001221c-0.2634888-0.4591675-5.5715332-9.7096558-10.541626-18.3717651
			c-1.1965942-3.1108398-0.8520508-6.0012207,1.2838135-8.635376
			C569.3040161,659.8455811,577.3535156,673.8739014,577.6793213,674.4420166z"/>
		<path d="M553.1240234,665.4804077c-2.2666016,0-4.3944092,0-6.2384644,0
			c5.5792236-9.7236938,13.7341309-23.9359131,14.062439-24.5078125c0.7438354-1.2962646,2.3970947-1.7438354,3.6930542-1.0001831
			c1.2961426,0.7436523,1.7441406,2.3970337,1.0003052,3.6932983
			C565.3425903,644.1866455,558.5494995,656.0249634,553.1240234,665.4804077z"/>
		<path d="M543.7804565,670.8916626c2.0769653-0.5274658,3.8825073-0.102417,5.3267212,1.5893555
			c-1.5272827,2.6619263-2.5581665,4.4586792-2.6704102,4.6541138c-0.7438354,1.2961426-2.3973389,1.7437744-3.6934814,1.0001221
			c-1.2958984-0.7435913-1.7437744-2.3970947-0.999939-3.6932373
			C541.8391113,674.2749634,542.6080933,672.9348145,543.7804565,670.8916626z"/>
		<path d="M562.4492188,664.1654663c1.9202271,0.2684937,4.2410278,2.3084717,3.1051025,5.4112549
			c-10.899231,0-24.5366821,0-25.1369629,0c-1.4944458,0-2.7055664-1.2113647-2.7055664-2.7056885
			c0-1.4942627,1.2111206-2.7055664,2.7055664-2.7055664C540.961731,664.1654663,552.2269897,664.1654663,562.4492188,664.1654663z"
			/>
		<path d="M579.0053101,664.1654663c1.4940796,0,2.7055664,1.2113037,2.7055664,2.7055664
			c0,1.4943237-1.2114868,2.7056885-2.7055664,2.7056885c-0.2681885,0-3.1483154,0-7.2123413,0
			c-0.8998413-1.5686035-1.9568481-3.4104614-3.1049194-5.4112549
			C574.3364868,664.1654663,578.6729126,664.1654663,579.0053101,664.1654663z"/>
	</g>
</g>
</svg>
