<?xml version="1.0" encoding="UTF-8"?>
<svg id="Layer_2" data-name="Layer 2" xmlns="http://www.w3.org/2000/svg" viewBox="0 0 460.48 297.78">
  <defs>
    <style>
      .cls-1 {
        fill: #dc3b40;
      }

      .cls-1, .cls-2, .cls-3 {
        stroke: #fff;
        stroke-miterlimit: 10;
      }

      .cls-2 {
        fill: none;
      }

      .cls-3 {
        fill: #30418d;
      }
    </style>
  </defs>
  <g id="Layer_2-2" data-name="Layer 2">
    <g id="Layer_1-2" data-name="Layer 1-2">
      <g id="Both">
        <g id="Word_Mark" data-name="Word Mark">
          <g>
            <path class="cls-3" d="M61.64,223.59c-.07,6.98-.29,9.36-1.3,11.52-1.87,4.1-5.76,6.05-13.25,6.55-2.95.29-8.71.36-18.29.36-13.83,0-18.29-.65-22.18-3.17-4.75-3.02-6.12-8.06-6.12-22.32,0-12.67,1.44-17.21,6.48-20.09,4.32-2.52,8.93-3.17,22.39-3.17,17.93,0,21.82.36,25.92,2.38,3.89,1.94,5.69,6.19,5.69,13.25v1.58h-13.97c-.29-5.26-1.37-5.69-14.04-5.69-11.95,0-14.11.29-15.91,1.87-1.73,1.58-2.09,3.53-2.09,11.31,0,11.52,1.08,12.38,15.12,12.38,10.87,0,12.46-.07,14.47-.94,2.09-.86,2.88-2.38,2.88-5.83h14.2Z"/>
            <path class="cls-3" d="M119.19,193.86c7.42,1.37,11.02,5.18,12.02,12.89.29,1.94.43,5.83.43,11.67,0,11.59-1.22,16.27-5.33,19.66-2.88,2.45-6.91,3.6-13.9,3.89-2.59.14-9,.22-13.68.22-11.45,0-17.28-.22-20.16-.79-5.33-.94-8.42-2.95-10.23-6.48-1.87-3.53-2.3-7.06-2.3-17.57,0-8.06.14-10.08,1.01-13.32,1.37-5.11,4.18-7.85,9.58-9.43,4.03-1.15,8.42-1.44,21.1-1.44,13.83,0,18.07.14,21.46.72v-.02ZM83.33,206.6c-1.94,1.51-2.52,3.89-2.52,10.8s.58,9.65,2.38,11.16c1.94,1.58,4.32,1.87,15.34,1.87,12.6,0,15.19-.43,16.85-2.74,1.37-1.73,1.73-4.18,1.73-10.58,0-12.1-.22-12.24-18.22-12.24-10.73,0-13.68.36-15.55,1.73h-.01Z"/>
            <path class="cls-3" d="M136.96,193.64h23.26l29.09,36.51-.36-36.51h13.83v48.03h-23.47l-28.66-36.15.36,36.15h-14.04v-48.03h0Z"/>
            <path class="cls-3" d="M208.02,193.64h23.26l29.09,36.51-.36-36.51h13.83v48.03h-23.47l-28.66-36.15.36,36.15h-14.04v-48.03h0Z"/>
            <path class="cls-1" d="M331.45,204.54h-52.36v-10.9h52.36v10.9ZM331.69,241.67h-52.36v-10.9h52.36v10.9ZM331.69,223.1h-52.36v-10.9h52.36v10.9Z"/>
            <path class="cls-3" d="M398.38,223.59c-.07,6.98-.29,9.36-1.3,11.52-1.87,4.1-5.76,6.05-13.25,6.55-2.95.29-8.71.36-18.29.36-13.83,0-18.29-.65-22.18-3.17-4.75-3.02-6.12-8.06-6.12-22.32,0-12.67,1.44-17.21,6.48-20.09,4.32-2.52,8.93-3.17,22.39-3.17,17.93,0,21.82.36,25.92,2.38,3.89,1.94,5.69,6.19,5.69,13.25v1.58h-13.97c-.29-5.26-1.37-5.69-14.04-5.69-11.95,0-14.11.29-15.91,1.87-1.73,1.58-2.09,3.53-2.09,11.31,0,11.52,1.08,12.38,15.12,12.38,10.87,0,12.46-.07,14.47-.94,2.09-.86,2.88-2.38,2.88-5.83h14.2Z"/>
            <path class="cls-3" d="M423.98,205.52h-21.39v-11.88h57.39v11.88h-21.39v36.15h-14.62v-36.15h0Z"/>
          </g>
          <g>
            <path class="cls-1" d="M188.79,259.97h-53.21v-10.9h53.21v10.9ZM189.05,297.1h-53.21v-10.9h53.21v10.9ZM188.79,278.28h-53.21v-10.9h53.21v10.9Z"/>
            <path class="cls-3" d="M193.77,248.82h41.48c10.15,0,14.91,1.15,18.22,4.46,2.66,2.59,3.74,5.62,4.25,11.74.14,2.23.29,5.54.29,7.85,0,4.32-.29,9.29-.72,12.02-.79,5.76-4.83,10.23-10.08,11.23-2.74.58-4.9.72-10.01.72h-43.42v-48.03h0ZM232.87,285.4c3.96,0,4.25,0,5.98-.58,3.53-1.08,4.46-3.6,4.46-11.88,0-10.08-1.73-12.17-10.15-12.17h-24.77v24.63h24.48Z"/>
            <path class="cls-3" d="M277.93,248.82v23.76c0,5.26,0,5.4.22,6.7.72,5.4,3.1,6.48,14.04,6.48s13.97-.29,15.77-1.66c1.44-1.08,2.16-3.17,2.23-6.84.05-.72.07-2.86.07-6.41v-22.03h14.62v25.2c.14,11.88-.86,15.41-5.11,19.23-3.46,2.66-7.78,3.82-14.04,3.89-2.23.07-3.53.07-6.41.07l-5.47.07c-13.54-.07-16.2-.22-19.73-1.15-8.71-2.66-11.02-7.2-10.8-21.46v-25.85h14.62-.01Z"/>
          </g>
        </g>
        <g id="Logo">
          <path class="cls-3" d="M207.72,60.01c-3.27,1.47-6.53,2.94-9.81,4.39-.32.14-.77.21-1.08.1-.8-.28-1.55-.68-2.63-1.17,9.73-6.68,20.42-9.68,31.87-10.23,14.37-.69,27.98,1.74,40.29,10.13-.9.43-1.55.82-2.25,1.04-.85.26-1.08.75-1.07,1.57.2,17.08-5.22,32.58-13.91,47.18-1.06,1.79-2.26,2.14-5.41,1.58-9.04-1.62-18.28-1.63-27.32.02-2.45.44-3.41.36-4.2-.95-6.54-10.87-11.42-22.35-13.43-34.85-.56-3.49-.63-7.06-.82-10.59-.03-.53.38-1.29.83-1.61,3.01-2.15,6.08-4.2,9.13-6.29l-.18-.33h0ZM230.27,60.32c-11.21.09-19.47,8.31-19.39,19.26.08,10.34,8.83,18.47,19.77,18.36,10.98-.1,19.43-8.52,19.33-19.26-.09-10.15-9-18.45-19.72-18.36h.01Z"/>
          <path class="cls-3" d="M191.61,44.77c-3.67-1.2-7.29-2.36-10.89-3.6-.33-.11-.71-.69-.7-1.03.39-9.21,3.66-16.83,12.59-21.25,11.91-5.9,23.84-11.76,35.69-17.76,1.71-.86,2.96-.81,4.6,0,15.82,7.91,31.67,15.74,47.51,23.61,6.08,3.02,12.13,6.08,18.2,9.12.35.18.68.39,1.37.79-10.5,3.44-20.66,6.76-31,10.15-.09-.88-.14-1.7-.27-2.51-.75-4.8-3.45-8.29-7.69-10.72-5.69-3.26-11.91-5.05-18.36-6.12-13.04-2.16-25.75-1-38.04,3.88-2.01.8-3.95,1.81-5.82,2.91-4.08,2.4-6.39,5.95-6.86,10.6-.06.57-.13,1.14-.2,1.71,0,.04-.05.07-.14.22h.01Z"/>
          <path class="cls-3" d="M200.55,49.09c2.29-1.16,4.48-2.28,6.98-3.55-.18,2.04-.3,3.69-.5,5.32-.03.24-.43.52-.73.64-3.54,1.46-7.09,2.9-10.73,4.38.09-.93.16-2.09.31-3.24.43-3.38.79-6.77,1.35-10.13.42-2.53,1.91-4.42,4.16-5.81,4.36-2.7,9.17-4.25,14.16-5.36,12.22-2.71,24.3-2.37,36.15,1.74,2.72.94,5.27,2.37,7.85,3.65,2.02,1,3.4,2.65,3.78,4.79.85,4.81,1.5,9.66,2.28,14.76-17.24-9.35-35.18-9.94-53.78-6.66.11-4.66.8-9.19,2.4-13.9-1.18.46-2.14.8-3.07,1.21-2.56,1.14-5.09,2.34-7.67,3.44-1.39.6-1.95,1.59-1.91,3.09,2.29-1.14,4.56-2.26,7.1-3.51-.25,1.37-.38,2.41-.65,3.42-.08.28-.53.52-.86.68-1.63.77-3.27,1.54-4.93,2.25-1.17.5-1.75,1.32-1.69,2.78h0Z"/>
          <path class="cls-1" d="M221.09,133.53c-1.59,4.65-1.58,9.02.67,13.17,1.49-1.73,2.92-3.39,4.35-5.06l.36.19c-.77,5.65.8,10.65,4.36,15.32,3.08-4.81,4.28-9.83,3.47-15.32.11-.04.23-.08.34-.12,1.48,1.64,2.97,3.28,4.45,4.91,1.89-2.05,2.08-7.02.41-13.1,1.48,0,2.91-.05,4.34.04.35.02.77.45.98.8,4.63,7.5,5.12,15.17.9,22.99-.36.67-.96,1.22-1.38,1.74-1.17-2.26-2.26-4.39-3.36-6.52-.16.04-.32.08-.49.12-.33,8.65-3.98,15.81-10.14,22.04-5.81-6.23-9.34-13.27-10.01-21.9-1.81,1.91-2.85,3.92-3.36,6.69-.81-1-1.52-1.63-1.92-2.42-3.87-7.62-3.5-15.11.83-22.45.5-.85,1.19-1.24,2.23-1.14.89.09,1.8.02,2.97.02h0Z"/>
          <path class="cls-3" d="M191.06,149.57c-3.87-7.9-4.89-16.31-4.14-24.96.87-9.92,5.14-18.39,12.28-25.81.99,2.34,1.84,4.47,2.77,6.56,2.53,5.7,5.47,11.18,9.21,16.24,1.16,1.57.56,3.91-1.18,4.74-6.71,3.17-12.03,7.82-15.37,14.35-1.2,2.34-1.77,4.99-2.61,7.5-.15.44-.23.9-.35,1.35-.2,0-.41.02-.61.04h0Z"/>
          <path class="cls-3" d="M261.77,98.76c7.51,7.94,11.61,16.98,12.38,27.42.66,8.87-2.52,21.18-4.83,23.68-.17-.42-.37-.74-.43-1.09-1.91-10.7-8.57-17.79-18.13-22.7-1.74-.89-2.25-2.77-1.1-4.36,4.83-6.66,8.38-13.97,11.47-21.51.16-.4.35-.79.65-1.45h-.01Z"/>
          <path class="cls-3" d="M177.69,93.04c-.96-1.74-1.78-3.25-2.66-4.84-.75,1.56-1.44,2.99-2.17,4.51-1.6-1.04-2.8-1.96-2.74-4.14.18-5.88.1-11.78.01-17.66-.03-2.2.46-4.03,2.53-5.2-2.34-2.31-2.57-5.08-.63-6.97,1.63-1.59,4.59-1.66,6.19-.14,2.07,1.95,1.87,4.62-.59,7.06,2.14,1.32,2.57,3.34,2.54,5.62-.06,6.2-.05,12.4-.09,18.59,0,.35-.17.76-.4,1.04-.57.68-1.22,1.3-2,2.12h0Z"/>
          <path class="cls-3" d="M230.53,128.47h-11.19c-2.41,0-2.98-.57-2.98-2.88,0-1.33.03-2.66,0-3.99-.03-1.12.54-1.64,1.63-1.68,1.05-.03,2.09-.01,3.14-.01h21.01c2.2,0,2.49.28,2.51,2.47.01,1.24.02,2.48.03,3.72,0,1.62-.78,2.36-2.55,2.37-3.87,0-7.73,0-11.6,0h0Z"/>
          <path class="cls-3" d="M180.64,24.71c-3.15,5.31-4.04,11-3.94,16.94.07,4.11.01,8.23.01,12.34v1.52h-3.07s-.13-.11-.13-.17c.16-6.27.06-12.56.6-18.81.33-3.83,1.94-7.45,4.83-10.32.54-.53,1.13-1.01,1.7-1.51h0Z"/>
          <path class="cls-3" d="M173.28,27.91c-1.07,3.25-2.14,6.51-3.28,9.96-2.96-1-6.17-2.09-9.5-3.22.24-.33.31-.53.45-.6,4.15-2.08,8.32-4.15,12.33-6.14Z"/>
          <path class="cls-2" d="M230.27,60.32c10.71-.09,19.63,8.21,19.72,18.36.09,10.75-8.35,19.16-19.33,19.26-10.94.1-19.69-8.02-19.77-18.36-.09-10.95,8.18-19.17,19.39-19.26h-.01ZM230.26,92.66c8.06.06,14.37-5.81,14.44-13.41.07-7.51-6.29-13.68-14.18-13.75-8.01-.07-14.17,5.78-14.27,13.55-.1,7.66,5.96,13.54,14,13.6h0Z"/>
          <path class="cls-3" d="M230.26,92.66c-8.04-.06-14.1-5.94-14-13.6.1-7.77,6.26-13.62,14.27-13.55,7.88.06,14.25,6.23,14.18,13.75-.07,7.6-6.39,13.47-14.44,13.41h0ZM230.21,86.03c4.12.02,7.43-3.06,7.42-6.91,0-3.82-3.42-7.17-7.29-7.17s-7.18,3.33-7.18,7.24,3.21,6.82,7.05,6.84Z"/>
          <path class="cls-2" d="M230.21,86.03c-3.84-.02-7.04-3.13-7.05-6.84,0-3.91,3.3-7.23,7.18-7.24,3.87,0,7.28,3.35,7.29,7.17,0,3.85-3.3,6.93-7.42,6.91Z"/>
        </g>
      </g>
    </g>
  </g>
</svg>