<svg width="336" height="207" viewBox="0 0 336 207" fill="none" xmlns="http://www.w3.org/2000/svg">
    <g filter="url(#filter0_d_61_967)">
        <path
            d="M53.5877 123.791H38.8172V119.843H53.5877V123.791ZM53.5877 117.142H38.8172V113.226H53.5877V117.142ZM78.1666 124.308V129H65.5316V107.71H78.1666V112.337H71.291V115.686H77.6651V120.296H71.291V124.308H78.1666ZM102.178 107.71V129H94.6387L86.8571 114.003H86.7277C86.911 116.441 87.0027 118.242 87.0027 119.406V129H81.9066V107.71H89.4294L97.1625 122.513H97.2595C97.1193 120.442 97.0492 118.716 97.0492 117.336V107.71H102.178ZM115.324 120.976V116.543H124.513V128.013C122.032 128.865 119.293 129.291 116.294 129.291C113.026 129.291 110.492 128.342 108.691 126.444C106.9 124.546 106.005 121.855 106.005 118.371C106.005 114.887 106.981 112.191 108.933 110.282C110.885 108.362 113.636 107.402 117.184 107.402C119.751 107.402 122.048 107.85 124.076 108.745L122.264 113.259C120.743 112.504 119.098 112.126 117.33 112.126C115.572 112.126 114.234 112.671 113.318 113.76C112.401 114.85 111.942 116.403 111.942 118.42C111.942 120.426 112.358 121.952 113.188 122.998C114.019 124.044 115.216 124.567 116.78 124.567C117.653 124.567 118.435 124.481 119.125 124.308V120.976H115.324ZM148.193 129H141.9L140.864 125.004H133.94L132.872 129H126.547L133.487 107.629H141.172L148.193 129ZM135.137 120.296H139.667C138.33 115.249 137.564 112.196 137.37 111.14C137.154 112.477 136.41 115.529 135.137 120.296ZM158.449 120.976V116.543H167.638V128.013C165.157 128.865 162.418 129.291 159.419 129.291C156.151 129.291 153.617 128.342 151.816 126.444C150.025 124.546 149.13 121.855 149.13 118.371C149.13 114.887 150.106 112.191 152.058 110.282C154.01 108.362 156.761 107.402 160.309 107.402C162.876 107.402 165.173 107.85 167.201 108.745L165.389 113.259C163.868 112.504 162.223 112.126 160.455 112.126C158.697 112.126 157.359 112.671 156.443 113.76C155.526 114.85 155.067 116.403 155.067 118.42C155.067 120.426 155.483 121.952 156.313 122.998C157.144 124.044 158.341 124.567 159.905 124.567C160.778 124.567 161.56 124.481 162.25 124.308V120.976H158.449ZM184.604 124.308V129H171.969V107.71H184.604V112.337H177.728V115.686H184.103V120.296H177.728V124.308H184.604ZM207.305 119.665C207.305 118.436 207.375 116.446 207.515 113.696H207.386L203.098 129H197.614L193.262 113.663H193.133C193.338 116.198 193.44 118.231 193.44 119.762V129H188.344V107.71H196.012L200.445 122.82H200.559L204.91 107.71H212.595V129H207.305V119.665ZM229.823 124.308V129H217.188V107.71H229.823V112.337H222.947V115.686H229.321V120.296H222.947V124.308H229.823ZM253.834 107.71V129H246.295L238.513 114.003H238.384C238.567 116.441 238.659 118.242 238.659 119.406V129H233.563V107.71H241.086L248.819 122.513H248.916C248.776 120.442 248.705 118.716 248.705 117.336V107.71H253.834ZM267.837 112.418V129H262.078V112.418H256.885V107.71H273.014V112.418H267.837ZM298.181 123.791H283.411V119.843H298.181V123.791ZM298.181 117.142H283.411V113.226H298.181V117.142Z"
            fill="white" />
    </g>
    <g filter="url(#filter1_d_61_967)">
        <mask id="path-2-outside-1_61_967" maskUnits="userSpaceOnUse" x="30" y="27" width="278"
            height="74" fill="black">
            <rect fill="white" x="30" y="27" width="278" height="74" />
            <path
                d="M72.6265 81.9252V96H34.7216V32.1294H72.6265V46.0101H51.9996V56.0566H71.122V69.8888H51.9996V81.9252H72.6265ZM141.893 96H123.013L119.907 84.0121H99.1348L95.9315 96H76.9548L97.7758 31.8868H120.829L141.893 96ZM102.726 69.8888H116.316C112.304 54.7462 110.006 45.5895 109.424 42.4186C108.777 46.4307 106.544 55.5875 102.726 69.8888ZM172.66 71.9272V58.6289H200.227V93.0394C192.785 95.5956 184.567 96.8736 175.572 96.8736C165.768 96.8736 158.165 94.0263 152.761 88.3316C147.39 82.637 144.704 74.5642 144.704 64.1132C144.704 53.6623 147.633 45.5733 153.489 39.8463C159.346 34.087 167.596 31.2073 178.241 31.2073C185.942 31.2073 192.834 32.55 198.917 35.2356L193.481 48.7765C188.919 46.5116 183.985 45.3792 178.678 45.3792C173.404 45.3792 169.392 47.0131 166.642 50.2811C163.892 53.549 162.516 58.2083 162.516 64.2588C162.516 70.277 163.762 74.8554 166.253 77.9939C168.745 81.1325 172.336 82.7017 177.028 82.7017C179.649 82.7017 181.995 82.4429 184.065 81.9252V71.9272H172.66ZM255.058 96H213.222V32.1294H230.5V82.0708H255.058V96ZM303.158 81.9252V96H265.253V32.1294H303.158V46.0101H282.531V56.0566H301.653V69.8888H282.531V81.9252H303.158Z" />
        </mask>
        <path
            d="M72.6265 81.9252V96H34.7216V32.1294H72.6265V46.0101H51.9996V56.0566H71.122V69.8888H51.9996V81.9252H72.6265ZM141.893 96H123.013L119.907 84.0121H99.1348L95.9315 96H76.9548L97.7758 31.8868H120.829L141.893 96ZM102.726 69.8888H116.316C112.304 54.7462 110.006 45.5895 109.424 42.4186C108.777 46.4307 106.544 55.5875 102.726 69.8888ZM172.66 71.9272V58.6289H200.227V93.0394C192.785 95.5956 184.567 96.8736 175.572 96.8736C165.768 96.8736 158.165 94.0263 152.761 88.3316C147.39 82.637 144.704 74.5642 144.704 64.1132C144.704 53.6623 147.633 45.5733 153.489 39.8463C159.346 34.087 167.596 31.2073 178.241 31.2073C185.942 31.2073 192.834 32.55 198.917 35.2356L193.481 48.7765C188.919 46.5116 183.985 45.3792 178.678 45.3792C173.404 45.3792 169.392 47.0131 166.642 50.2811C163.892 53.549 162.516 58.2083 162.516 64.2588C162.516 70.277 163.762 74.8554 166.253 77.9939C168.745 81.1325 172.336 82.7017 177.028 82.7017C179.649 82.7017 181.995 82.4429 184.065 81.9252V71.9272H172.66ZM255.058 96H213.222V32.1294H230.5V82.0708H255.058V96ZM303.158 81.9252V96H265.253V32.1294H303.158V46.0101H282.531V56.0566H301.653V69.8888H282.531V81.9252H303.158Z"
            fill="#071D5B" />
        <path
            d="M72.6265 81.9252H76.6265V77.9252H72.6265V81.9252ZM72.6265 96V100H76.6265V96H72.6265ZM34.7216 96H30.7216V100H34.7216V96ZM34.7216 32.1294V28.1294H30.7216V32.1294H34.7216ZM72.6265 32.1294H76.6265V28.1294H72.6265V32.1294ZM72.6265 46.0101V50.0101H76.6265V46.0101H72.6265ZM51.9996 46.0101V42.0101H47.9996V46.0101H51.9996ZM51.9996 56.0566H47.9996V60.0566H51.9996V56.0566ZM71.122 56.0566H75.122V52.0566H71.122V56.0566ZM71.122 69.8888V73.8888H75.122V69.8888H71.122ZM51.9996 69.8888V65.8888H47.9996V69.8888H51.9996ZM51.9996 81.9252H47.9996V85.9252H51.9996V81.9252ZM68.6265 81.9252V96H76.6265V81.9252H68.6265ZM72.6265 92H34.7216V100H72.6265V92ZM38.7216 96V32.1294H30.7216V96H38.7216ZM34.7216 36.1294H72.6265V28.1294H34.7216V36.1294ZM68.6265 32.1294V46.0101H76.6265V32.1294H68.6265ZM72.6265 42.0101H51.9996V50.0101H72.6265V42.0101ZM47.9996 46.0101V56.0566H55.9996V46.0101H47.9996ZM51.9996 60.0566H71.122V52.0566H51.9996V60.0566ZM67.122 56.0566V69.8888H75.122V56.0566H67.122ZM71.122 65.8888H51.9996V73.8888H71.122V65.8888ZM47.9996 69.8888V81.9252H55.9996V69.8888H47.9996ZM51.9996 85.9252H72.6265V77.9252H51.9996V85.9252ZM141.893 96V100H147.418L145.693 94.7515L141.893 96ZM123.013 96L119.141 97.0033L119.918 100H123.013V96ZM119.907 84.0121L123.779 83.0088L123.003 80.0121H119.907V84.0121ZM99.1348 84.0121V80.0121H96.0632L95.2703 82.9795L99.1348 84.0121ZM95.9315 96V100H99.003L99.7959 97.0326L95.9315 96ZM76.9548 96L73.1504 94.7645L71.4501 100H76.9548V96ZM97.7758 31.8868V27.8868H94.8692L93.9714 30.6513L97.7758 31.8868ZM120.829 31.8868L124.63 30.6383L123.726 27.8868H120.829V31.8868ZM102.726 69.8888L98.8616 68.857L97.5183 73.8888H102.726V69.8888ZM116.316 69.8888V73.8888H121.514L120.182 68.8643L116.316 69.8888ZM109.424 42.4186L113.358 41.696L105.475 41.7817L109.424 42.4186ZM141.893 92H123.013V100H141.893V92ZM126.886 94.9967L123.779 83.0088L116.035 85.0154L119.141 97.0033L126.886 94.9967ZM119.907 80.0121H99.1348V88.0121H119.907V80.0121ZM95.2703 82.9795L92.0671 94.9674L99.7959 97.0326L102.999 85.0447L95.2703 82.9795ZM95.9315 92H76.9548V100H95.9315V92ZM80.7592 97.2355L101.58 33.1223L93.9714 30.6513L73.1504 94.7645L80.7592 97.2355ZM97.7758 35.8868H120.829V27.8868H97.7758V35.8868ZM117.029 33.1353L138.093 97.2485L145.693 94.7515L124.63 30.6383L117.029 33.1353ZM102.726 73.8888H116.316V65.8888H102.726V73.8888ZM120.182 68.8643C116.15 53.6467 113.905 44.6757 113.358 41.696L105.49 43.1412C106.107 46.5033 108.457 55.8457 112.449 70.9133L120.182 68.8643ZM105.475 41.7817C104.867 45.5524 102.696 54.4953 98.8616 68.857L106.591 70.9205C110.393 56.6796 112.687 47.309 113.373 43.0555L105.475 41.7817ZM172.66 71.9272H168.66V75.9272H172.66V71.9272ZM172.66 58.6289V54.6289H168.66V58.6289H172.66ZM200.227 58.6289H204.227V54.6289H200.227V58.6289ZM200.227 93.0394L201.527 96.8225L204.227 95.8949V93.0394H200.227ZM152.761 88.3316L149.851 91.0762L149.859 91.0849L152.761 88.3316ZM153.489 39.8463L156.286 42.7062L156.294 42.6983L153.489 39.8463ZM198.917 35.2356L202.629 36.7257L204.069 33.1378L200.532 31.5763L198.917 35.2356ZM193.481 48.7765L191.702 52.3593L195.58 54.2845L197.193 50.2667L193.481 48.7765ZM166.642 50.2811L163.581 47.7055L163.581 47.7055L166.642 50.2811ZM166.253 77.9939L163.121 80.4809L163.121 80.4809L166.253 77.9939ZM184.065 81.9252L185.036 85.8057L188.065 85.0483V81.9252H184.065ZM184.065 71.9272H188.065V67.9272H184.065V71.9272ZM176.66 71.9272V58.6289H168.66V71.9272H176.66ZM172.66 62.6289H200.227V54.6289H172.66V62.6289ZM196.227 58.6289V93.0394H204.227V58.6289H196.227ZM198.928 89.2564C191.959 91.6499 184.187 92.8736 175.572 92.8736V100.874C184.947 100.874 193.611 99.5412 201.527 96.8225L198.928 89.2564ZM175.572 92.8736C166.574 92.8736 160.132 90.2881 155.663 85.5784L149.859 91.0849C156.197 97.7645 164.962 100.874 175.572 100.874V92.8736ZM155.671 85.5871C151.208 80.8553 148.704 73.8938 148.704 64.1132H140.704C140.704 75.2347 143.572 84.4187 149.851 91.0762L155.671 85.5871ZM148.704 64.1132C148.704 54.4261 151.397 47.487 156.286 42.7062L150.692 36.9865C143.868 43.6596 140.704 52.8985 140.704 64.1132H148.704ZM156.294 42.6983C161.199 37.8739 168.322 35.2073 178.241 35.2073V27.2073C166.87 27.2073 157.492 30.3 150.684 36.9943L156.294 42.6983ZM178.241 35.2073C185.473 35.2073 191.802 36.4668 197.301 38.8948L200.532 31.5763C193.866 28.6333 186.411 27.2073 178.241 27.2073V35.2073ZM195.205 33.7454L189.769 47.2864L197.193 50.2667L202.629 36.7257L195.205 33.7454ZM195.26 45.1938C190.121 42.6428 184.575 41.3792 178.678 41.3792V49.3792C183.394 49.3792 187.716 50.3804 191.702 52.3593L195.26 45.1938ZM178.678 41.3792C172.526 41.3792 167.267 43.3262 163.581 47.7055L169.702 52.8567C171.517 50.7001 174.282 49.3792 178.678 49.3792V41.3792ZM163.581 47.7055C160.015 51.9436 158.516 57.6529 158.516 64.2588H166.516C166.516 58.7637 167.768 55.1545 169.702 52.8567L163.581 47.7055ZM158.516 64.2588C158.516 70.7466 159.847 76.3573 163.121 80.4809L169.386 75.507C167.677 73.3535 166.516 69.8075 166.516 64.2588H158.516ZM163.121 80.4809C166.505 84.7445 171.35 86.7017 177.028 86.7017V78.7017C173.323 78.7017 170.985 77.5204 169.386 75.507L163.121 80.4809ZM177.028 86.7017C179.905 86.7017 182.585 86.4183 185.036 85.8057L183.095 78.0446C181.404 78.4674 179.393 78.7017 177.028 78.7017V86.7017ZM188.065 81.9252V71.9272H180.065V81.9252H188.065ZM184.065 67.9272H172.66V75.9272H184.065V67.9272ZM255.058 96V100H259.058V96H255.058ZM213.222 96H209.222V100H213.222V96ZM213.222 32.1294V28.1294H209.222V32.1294H213.222ZM230.5 32.1294H234.5V28.1294H230.5V32.1294ZM230.5 82.0708H226.5V86.0708H230.5V82.0708ZM255.058 82.0708H259.058V78.0708H255.058V82.0708ZM255.058 92H213.222V100H255.058V92ZM217.222 96V32.1294H209.222V96H217.222ZM213.222 36.1294H230.5V28.1294H213.222V36.1294ZM226.5 32.1294V82.0708H234.5V32.1294H226.5ZM230.5 86.0708H255.058V78.0708H230.5V86.0708ZM251.058 82.0708V96H259.058V82.0708H251.058ZM303.158 81.9252H307.158V77.9252H303.158V81.9252ZM303.158 96V100H307.158V96H303.158ZM265.253 96H261.253V100H265.253V96ZM265.253 32.1294V28.1294H261.253V32.1294H265.253ZM303.158 32.1294H307.158V28.1294H303.158V32.1294ZM303.158 46.0101V50.0101H307.158V46.0101H303.158ZM282.531 46.0101V42.0101H278.531V46.0101H282.531ZM282.531 56.0566H278.531V60.0566H282.531V56.0566ZM301.653 56.0566H305.653V52.0566H301.653V56.0566ZM301.653 69.8888V73.8888H305.653V69.8888H301.653ZM282.531 69.8888V65.8888H278.531V69.8888H282.531ZM282.531 81.9252H278.531V85.9252H282.531V81.9252ZM299.158 81.9252V96H307.158V81.9252H299.158ZM303.158 92H265.253V100H303.158V92ZM269.253 96V32.1294H261.253V96H269.253ZM265.253 36.1294H303.158V28.1294H265.253V36.1294ZM299.158 32.1294V46.0101H307.158V32.1294H299.158ZM303.158 42.0101H282.531V50.0101H303.158V42.0101ZM278.531 46.0101V56.0566H286.531V46.0101H278.531ZM282.531 60.0566H301.653V52.0566H282.531V60.0566ZM297.653 56.0566V69.8888H305.653V56.0566H297.653ZM301.653 65.8888H282.531V73.8888H301.653V65.8888ZM278.531 69.8888V81.9252H286.531V69.8888H278.531ZM282.531 85.9252H303.158V77.9252H282.531V85.9252Z"
            fill="#D60027" mask="url(#path-2-outside-1_61_967)" />
    </g>
    <g filter="url(#filter2_d_61_967)">
        <mask id="path-4-outside-2_61_967" maskUnits="userSpaceOnUse" x="32.579" y="29" width="273"
            height="70" fill="black">
            <rect fill="white" x="32.579" y="29" width="273" height="70" />
            <path
                d="M72.6266 81.9252V96H34.7216V32.1294H72.6266V46.0101H51.9997V56.0566H71.122V69.8888H51.9997V81.9252H72.6266ZM141.893 96H123.013L119.907 84.0121H99.1348L95.9315 96H76.9548L97.7758 31.8868H120.829L141.893 96ZM102.726 69.8888H116.316C112.304 54.7462 110.006 45.5895 109.424 42.4186C108.777 46.4307 106.544 55.5875 102.726 69.8888ZM172.66 71.9272V58.6289H200.227V93.0394C192.785 95.5956 184.567 96.8736 175.572 96.8736C165.768 96.8736 158.165 94.0263 152.761 88.3316C147.39 82.637 144.704 74.5642 144.704 64.1132C144.704 53.6623 147.633 45.5733 153.489 39.8463C159.346 34.087 167.596 31.2073 178.241 31.2073C185.942 31.2073 192.834 32.55 198.917 35.2356L193.481 48.7765C188.919 46.5116 183.985 45.3792 178.678 45.3792C173.404 45.3792 169.392 47.0131 166.642 50.2811C163.892 53.549 162.516 58.2083 162.516 64.2588C162.516 70.277 163.762 74.8554 166.254 77.9939C168.745 81.1325 172.336 82.7017 177.028 82.7017C179.649 82.7017 181.995 82.4429 184.065 81.9252V71.9272H172.66ZM255.058 96H213.222V32.1294H230.5V82.0708H255.058V96ZM303.158 81.9252V96H265.253V32.1294H303.158V46.0101H282.531V56.0566H301.653V69.8888H282.531V81.9252H303.158Z" />
        </mask>
        <path
            d="M72.6266 81.9252V96H34.7216V32.1294H72.6266V46.0101H51.9997V56.0566H71.122V69.8888H51.9997V81.9252H72.6266ZM141.893 96H123.013L119.907 84.0121H99.1348L95.9315 96H76.9548L97.7758 31.8868H120.829L141.893 96ZM102.726 69.8888H116.316C112.304 54.7462 110.006 45.5895 109.424 42.4186C108.777 46.4307 106.544 55.5875 102.726 69.8888ZM172.66 71.9272V58.6289H200.227V93.0394C192.785 95.5956 184.567 96.8736 175.572 96.8736C165.768 96.8736 158.165 94.0263 152.761 88.3316C147.39 82.637 144.704 74.5642 144.704 64.1132C144.704 53.6623 147.633 45.5733 153.489 39.8463C159.346 34.087 167.596 31.2073 178.241 31.2073C185.942 31.2073 192.834 32.55 198.917 35.2356L193.481 48.7765C188.919 46.5116 183.985 45.3792 178.678 45.3792C173.404 45.3792 169.392 47.0131 166.642 50.2811C163.892 53.549 162.516 58.2083 162.516 64.2588C162.516 70.277 163.762 74.8554 166.254 77.9939C168.745 81.1325 172.336 82.7017 177.028 82.7017C179.649 82.7017 181.995 82.4429 184.065 81.9252V71.9272H172.66ZM255.058 96H213.222V32.1294H230.5V82.0708H255.058V96ZM303.158 81.9252V96H265.253V32.1294H303.158V46.0101H282.531V56.0566H301.653V69.8888H282.531V81.9252H303.158Z"
            fill="#071D5B" />
        <path
            d="M72.6266 81.9252H74.6266V79.9252H72.6266V81.9252ZM72.6266 96V98H74.6266V96H72.6266ZM34.7216 96H32.7216V98H34.7216V96ZM34.7216 32.1294V30.1294H32.7216V32.1294H34.7216ZM72.6266 32.1294H74.6266V30.1294H72.6266V32.1294ZM72.6266 46.0101V48.0101H74.6266V46.0101H72.6266ZM51.9997 46.0101V44.0101H49.9997V46.0101H51.9997ZM51.9997 56.0566H49.9997V58.0566H51.9997V56.0566ZM71.122 56.0566H73.122V54.0566H71.122V56.0566ZM71.122 69.8888V71.8888H73.122V69.8888H71.122ZM51.9997 69.8888V67.8888H49.9997V69.8888H51.9997ZM51.9997 81.9252H49.9997V83.9252H51.9997V81.9252ZM70.6266 81.9252V96H74.6266V81.9252H70.6266ZM72.6266 94H34.7216V98H72.6266V94ZM36.7216 96V32.1294H32.7216V96H36.7216ZM34.7216 34.1294H72.6266V30.1294H34.7216V34.1294ZM70.6266 32.1294V46.0101H74.6266V32.1294H70.6266ZM72.6266 44.0101H51.9997V48.0101H72.6266V44.0101ZM49.9997 46.0101V56.0566H53.9997V46.0101H49.9997ZM51.9997 58.0566H71.122V54.0566H51.9997V58.0566ZM69.122 56.0566V69.8888H73.122V56.0566H69.122ZM71.122 67.8888H51.9997V71.8888H71.122V67.8888ZM49.9997 69.8888V81.9252H53.9997V69.8888H49.9997ZM51.9997 83.9252H72.6266V79.9252H51.9997V83.9252ZM141.893 96V98H144.655L143.793 95.3757L141.893 96ZM123.013 96L121.077 96.5017L121.466 98H123.013V96ZM119.907 84.0121L121.843 83.5105L121.455 82.0121H119.907V84.0121ZM99.1348 84.0121V82.0121H97.599L97.2026 83.4958L99.1348 84.0121ZM95.9315 96V98H97.4673L97.8638 96.5163L95.9315 96ZM76.9548 96L75.0526 95.3823L74.2025 98H76.9548V96ZM97.7758 31.8868V29.8868H96.3225L95.8736 31.269L97.7758 31.8868ZM120.829 31.8868L122.73 31.2625L122.278 29.8868H120.829V31.8868ZM102.726 69.8888L100.794 69.3729L100.122 71.8888H102.726V69.8888ZM116.316 69.8888V71.8888H118.915L118.249 69.3765L116.316 69.8888ZM109.424 42.4186L111.391 42.0573L107.449 42.1001L109.424 42.4186ZM141.893 94H123.013V98H141.893V94ZM124.95 95.4983L121.843 83.5105L117.971 84.5138L121.077 96.5017L124.95 95.4983ZM119.907 82.0121H99.1348V86.0121H119.907V82.0121ZM97.2026 83.4958L93.9993 95.4837L97.8638 96.5163L101.067 84.5284L97.2026 83.4958ZM95.9315 94H76.9548V98H95.9315V94ZM78.857 96.6177L99.678 32.5045L95.8736 31.269L75.0526 95.3823L78.857 96.6177ZM97.7758 33.8868H120.829V29.8868H97.7758V33.8868ZM118.929 32.511L139.993 96.6243L143.793 95.3757L122.73 31.2625L118.929 32.511ZM102.726 71.8888H116.316V67.8888H102.726V71.8888ZM118.249 69.3765C114.227 54.1965 111.956 45.1326 111.391 42.0573L107.457 42.7799C108.057 46.0464 110.38 55.296 114.382 70.401L118.249 69.3765ZM107.449 42.1001C106.822 45.9916 104.62 55.0414 100.794 69.3729L104.659 70.4046C108.469 56.1335 110.732 46.8699 111.398 42.7371L107.449 42.1001ZM172.66 71.9272H170.66V73.9272H172.66V71.9272ZM172.66 58.6289V56.6289H170.66V58.6289H172.66ZM200.227 58.6289H202.227V56.6289H200.227V58.6289ZM200.227 93.0394L200.877 94.931L202.227 94.4672V93.0394H200.227ZM152.761 88.3316L151.306 89.7039L151.31 89.7083L152.761 88.3316ZM153.489 39.8463L154.887 41.2762L154.891 41.2723L153.489 39.8463ZM198.917 35.2356L200.773 35.9807L201.493 34.1867L199.725 33.406L198.917 35.2356ZM193.481 48.7765L192.592 50.5679L194.531 51.5305L195.337 49.5216L193.481 48.7765ZM166.642 50.2811L165.112 48.9933L165.112 48.9933L166.642 50.2811ZM166.254 77.9939L164.687 79.2374L164.687 79.2374L166.254 77.9939ZM184.065 81.9252L184.551 83.8655L186.065 83.4867V81.9252H184.065ZM184.065 71.9272H186.065V69.9272H184.065V71.9272ZM174.66 71.9272V58.6289H170.66V71.9272H174.66ZM172.66 60.6289H200.227V56.6289H172.66V60.6289ZM198.227 58.6289V93.0394H202.227V58.6289H198.227ZM199.578 91.1479C192.372 93.6227 184.377 94.8736 175.572 94.8736V98.8736C184.757 98.8736 193.198 97.5684 200.877 94.931L199.578 91.1479ZM175.572 94.8736C166.171 94.8736 159.148 92.1572 154.212 86.955L151.31 89.7083C157.181 95.8954 165.365 98.8736 175.572 98.8736V94.8736ZM154.216 86.9594C149.299 81.7462 146.704 74.229 146.704 64.1132H142.704C142.704 74.8994 145.481 83.5279 151.306 89.7039L154.216 86.9594ZM146.704 64.1132C146.704 54.0442 149.515 46.5302 154.887 41.2762L152.091 38.4164C145.751 44.6165 142.704 53.2804 142.704 64.1132H146.704ZM154.891 41.2723C160.273 35.9804 167.959 33.2073 178.241 33.2073V29.2073C167.233 29.2073 158.419 32.1935 152.087 38.4203L154.891 41.2723ZM178.241 33.2073C185.708 33.2073 192.318 34.5084 198.109 37.0652L199.725 33.406C193.35 30.5917 186.177 29.2073 178.241 29.2073V33.2073ZM197.061 34.4905L191.625 48.0315L195.337 49.5216L200.773 35.9807L197.061 34.4905ZM194.37 46.9852C189.52 44.5772 184.28 43.3792 178.678 43.3792V47.3792C183.689 47.3792 188.318 48.446 192.592 50.5679L194.37 46.9852ZM178.678 43.3792C172.965 43.3792 168.329 45.1697 165.112 48.9933L168.172 51.5689C170.455 48.8566 173.843 47.3792 178.678 47.3792V43.3792ZM165.112 48.9933C161.953 52.7463 160.516 57.9306 160.516 64.2588H164.516C164.516 58.486 165.83 54.3518 168.172 51.5689L165.112 48.9933ZM160.516 64.2588C160.516 70.5118 161.805 75.6064 164.687 79.2374L167.82 76.7505C165.72 74.1045 164.516 70.0423 164.516 64.2588H160.516ZM164.687 79.2374C167.625 82.9385 171.843 84.7017 177.028 84.7017V80.7017C172.83 80.7017 169.865 79.3264 167.82 76.7505L164.687 79.2374ZM177.028 84.7017C179.777 84.7017 182.29 84.4306 184.551 83.8655L183.58 79.9849C181.699 80.4551 179.521 80.7017 177.028 80.7017V84.7017ZM186.065 81.9252V71.9272H182.065V81.9252H186.065ZM184.065 69.9272H172.66V73.9272H184.065V69.9272ZM255.058 96V98H257.058V96H255.058ZM213.222 96H211.222V98H213.222V96ZM213.222 32.1294V30.1294H211.222V32.1294H213.222ZM230.5 32.1294H232.5V30.1294H230.5V32.1294ZM230.5 82.0708H228.5V84.0708H230.5V82.0708ZM255.058 82.0708H257.058V80.0708H255.058V82.0708ZM255.058 94H213.222V98H255.058V94ZM215.222 96V32.1294H211.222V96H215.222ZM213.222 34.1294H230.5V30.1294H213.222V34.1294ZM228.5 32.1294V82.0708H232.5V32.1294H228.5ZM230.5 84.0708H255.058V80.0708H230.5V84.0708ZM253.058 82.0708V96H257.058V82.0708H253.058ZM303.158 81.9252H305.158V79.9252H303.158V81.9252ZM303.158 96V98H305.158V96H303.158ZM265.253 96H263.253V98H265.253V96ZM265.253 32.1294V30.1294H263.253V32.1294H265.253ZM303.158 32.1294H305.158V30.1294H303.158V32.1294ZM303.158 46.0101V48.0101H305.158V46.0101H303.158ZM282.531 46.0101V44.0101H280.531V46.0101H282.531ZM282.531 56.0566H280.531V58.0566H282.531V56.0566ZM301.653 56.0566H303.653V54.0566H301.653V56.0566ZM301.653 69.8888V71.8888H303.653V69.8888H301.653ZM282.531 69.8888V67.8888H280.531V69.8888H282.531ZM282.531 81.9252H280.531V83.9252H282.531V81.9252ZM301.158 81.9252V96H305.158V81.9252H301.158ZM303.158 94H265.253V98H303.158V94ZM267.253 96V32.1294H263.253V96H267.253ZM265.253 34.1294H303.158V30.1294H265.253V34.1294ZM301.158 32.1294V46.0101H305.158V32.1294H301.158ZM303.158 44.0101H282.531V48.0101H303.158V44.0101ZM280.531 46.0101V56.0566H284.531V46.0101H280.531ZM282.531 58.0566H301.653V54.0566H282.531V58.0566ZM299.653 56.0566V69.8888H303.653V56.0566H299.653ZM301.653 67.8888H282.531V71.8888H301.653V67.8888ZM280.531 69.8888V81.9252H284.531V69.8888H280.531ZM282.531 83.9252H303.158V79.9252H282.531V83.9252Z"
            fill="white" mask="url(#path-4-outside-2_61_967)" />
    </g>
    <defs>
        <filter id="filter0_d_61_967" x="34.8172" y="107.402" width="267.364" height="29.8888"
            filterUnits="userSpaceOnUse" color-interpolation-filters="sRGB">
            <feFlood flood-opacity="0" result="BackgroundImageFix" />
            <feColorMatrix in="SourceAlpha" type="matrix"
                values="0 0 0 0 0 0 0 0 0 0 0 0 0 0 0 0 0 0 127 0" result="hardAlpha" />
            <feOffset dy="4" />
            <feGaussianBlur stdDeviation="2" />
            <feComposite in2="hardAlpha" operator="out" />
            <feColorMatrix type="matrix" values="0 0 0 0 0 0 0 0 0 0 0 0 0 0 0 0 0 0 0.25 0" />
            <feBlend mode="normal" in2="BackgroundImageFix" result="effect1_dropShadow_61_967" />
            <feBlend mode="normal" in="SourceGraphic" in2="effect1_dropShadow_61_967" result="shape" />
        </filter>
        <filter id="filter1_d_61_967" x="30.7216" y="31.2073" width="276.436" height="73.6663"
            filterUnits="userSpaceOnUse" color-interpolation-filters="sRGB">
            <feFlood flood-opacity="0" result="BackgroundImageFix" />
            <feColorMatrix in="SourceAlpha" type="matrix"
                values="0 0 0 0 0 0 0 0 0 0 0 0 0 0 0 0 0 0 127 0" result="hardAlpha" />
            <feOffset dy="4" />
            <feGaussianBlur stdDeviation="2" />
            <feComposite in2="hardAlpha" operator="out" />
            <feColorMatrix type="matrix" values="0 0 0 0 0 0 0 0 0 0 0 0 0 0 0 0 0 0 0.25 0" />
            <feBlend mode="normal" in2="BackgroundImageFix" result="effect1_dropShadow_61_967" />
            <feBlend mode="normal" in="SourceGraphic" in2="effect1_dropShadow_61_967" result="shape" />
        </filter>
        <filter id="filter2_d_61_967" x="30.7216" y="31.2073" width="276.436" height="73.6663"
            filterUnits="userSpaceOnUse" color-interpolation-filters="sRGB">
            <feFlood flood-opacity="0" result="BackgroundImageFix" />
            <feColorMatrix in="SourceAlpha" type="matrix"
                values="0 0 0 0 0 0 0 0 0 0 0 0 0 0 0 0 0 0 127 0" result="hardAlpha" />
            <feOffset dy="4" />
            <feGaussianBlur stdDeviation="2" />
            <feComposite in2="hardAlpha" operator="out" />
            <feColorMatrix type="matrix" values="0 0 0 0 0 0 0 0 0 0 0 0 0 0 0 0 0 0 0.25 0" />
            <feBlend mode="normal" in2="BackgroundImageFix" result="effect1_dropShadow_61_967" />
            <feBlend mode="normal" in="SourceGraphic" in2="effect1_dropShadow_61_967" result="shape" />
        </filter>
    </defs>
</svg>
    