<?xml version="1.0" encoding="utf-8"?>
<!-- Generator: Adobe Illustrator 25.2.3, SVG Export Plug-In . SVG Version: 6.00 Build 0)  -->
<svg version="1.1" id="Layer_1" xmlns="http://www.w3.org/2000/svg" xmlns:xlink="http://www.w3.org/1999/xlink" x="0px" y="0px"
	 viewBox="0 0 3300 2200" enable-background="new 0 0 3300 2200" xml:space="preserve">
<g id="Notes">
	<rect id="artboard" y="0" fill="#FFFFFF" width="3300" height="2200"/>
	<line fill="none" stroke="#000000" stroke-width="0.5" x1="263" y1="292" x2="3036" y2="292"/>
	<text transform="matrix(1 0 0 1 263 321.999939)" font-family="'SFProDisplay-Bold'" font-size="13px">Weight/Scale Variations</text>
	<text transform="matrix(1 0 0 1 535.0122681 321.999939)" font-family="'SFProDisplay-Regular'" font-size="13px">Ultralight</text>
	<text transform="matrix(1 0 0 1 844.3900146 321.999939)" font-family="'SFProDisplay-Regular'" font-size="13px">Thin</text>
	<text transform="matrix(1 0 0 1 1139.3619385 321.999939)" font-family="'SFProDisplay-Regular'" font-size="13px">Light</text>
	<text transform="matrix(1 0 0 1 1429.0291748 321.999939)" font-family="'SFProDisplay-Regular'" font-size="13px">Regular</text>
	<text transform="matrix(1 0 0 1 1724.2575684 321.999939)" font-family="'SFProDisplay-Regular'" font-size="13px">Medium</text>
	<text transform="matrix(1 0 0 1 2017.5556641 321.999939)" font-family="'SFProDisplay-Regular'" font-size="13px">Semibold</text>
	<text transform="matrix(1 0 0 1 2327.6750488 321.999939)" font-family="'SFProDisplay-Regular'" font-size="13px">Bold</text>
	<text transform="matrix(1 0 0 1 2619.2561035 321.999939)" font-family="'SFProDisplay-Regular'" font-size="13px">Heavy</text>
	<text transform="matrix(1 0 0 1 2918.4702148 321.999939)" font-family="'SFProDisplay-Regular'" font-size="13px">Black</text>
	<line fill="none" stroke="#000000" stroke-width="0.5" x1="263" y1="1903" x2="3036" y2="1903"/>
	<g transform="matrix(1 0 0 1 263 1933)">
		<path d="M9.2480497,0.830078C10.3287497,0.8300779,11.344367,0.625,12.2948999,0.214844
			c0.9505339-0.4101567,1.7887669-0.979818,2.5146999-1.708984c0.7258663-0.7291666,1.2955332-1.5690097,1.7090006-2.5195298
			c0.4134007-0.95052,0.6201-1.9628901,0.6201-3.0371099s-0.2066994-2.0865941-0.6201-3.0371203
			c-0.4134674-0.9505329-0.984767-1.7903662-1.7139006-2.5194998c-0.7291994-0.7292004-1.5690327-1.2988663-2.5194998-1.7089996
			c-0.9505339-0.4101334-1.9661732-0.6152-3.0469198-0.6152c-1.0742207,0-2.0865903,0.2050667-3.0371103,0.6152
			s-1.7871065,0.9797993-2.5097599,1.7089996C2.96875-11.8782663,2.4007132-11.0384331,1.9873-10.0879002
			C1.5738934-9.1373739,1.36719-8.125,1.36719-7.0507798S1.5738934-4.96419,1.9873-4.01367
			C2.4007132-3.0631497,2.9703767-2.2233067,3.69629-1.49414s1.5641298,1.2988274,2.5146499,1.708984
			C7.1614604,0.625,8.17383,0.8300779,9.2480497,0.830078z M9.2480497-0.654297c-0.8854198,0-1.71387-0.1643876-2.4853497-0.493163
			c-0.7714868-0.3287734-1.4485698-0.78613-2.03125-1.3720701C4.1487632-3.1054699,3.6930332-3.7858098,3.36426-4.5605502
			c-0.3287802-0.7747402-0.49317-1.6048164-0.49317-2.4902296c0-0.8854198,0.1627634-1.7155004,0.4882901-2.4902406
			c0.32552-0.7747192,0.7796199-1.4550467,1.3623002-2.0409794c0.5826797-0.5859337,1.2597632-1.0433006,2.03125-1.3720999
			C7.5244164-13.2829008,8.3528671-13.4473,9.2382803-13.4473c0.8919458,0,1.7236528,0.1643991,2.49512,0.4932003
			c0.7714672,0.3287992,1.4501667,0.7861662,2.0360994,1.3720999c0.5859337,0.5859327,1.0449333,1.2662601,1.3769999,2.0409794
			c0.3320007,0.7747402,0.4980001,1.6048207,0.4980001,2.4902406c0,0.8854132-0.1643667,1.7154894-0.4931002,2.4902296
			c-0.3287992,0.7747405-0.7845325,1.4550803-1.3671999,2.0410202c-0.5826664,0.5859401-1.2613993,1.0432967-2.0361996,1.3720701
			C10.9732666-0.8186846,10.1399498-0.654297,9.2480497-0.654297z M5.8398399-7.0410199
			c0,0.2148466,0.0683599,0.3890028,0.20508,0.52247c0.1367202,0.13346,0.3190136,0.2001901,0.5468802,0.2001901h1.9140601v1.92383
			c0,0.2213535,0.0667295,0.4003899,0.2001896,0.5371099c0.1334667,0.1367199,0.3076229,0.20508,0.5224705,0.20508
			c0.2213535,0,0.4003859-0.0683601,0.5370998-0.20508c0.1367197-0.1367199,0.20508-0.3157563,0.20508-0.5371099v-1.92383h1.9237995
			c0.2213993,0,0.4004335-0.06673,0.5370998-0.2001901c0.1367331-0.1334672,0.2051001-0.3076234,0.2051001-0.52247
			c0-0.2213535-0.068367-0.4003868-0.2051001-0.5371003c-0.1366663-0.1367197-0.3157005-0.2050796-0.5370998-0.2050796H9.9707003
			v-1.9140706c0-0.2278862-0.0683603-0.4101629-0.20508-0.5468292c-0.136714-0.1367331-0.3157463-0.2051001-0.5370998-0.2051001
			c-0.2148476,0-0.3890038,0.068367-0.5224705,0.2051001c-0.13346,0.1366663-0.2001896,0.318943-0.2001896,0.5468292v1.9140706
			H6.5918002c-0.2278666,0-0.4101601,0.0683599-0.5468802,0.2050796C5.9081998-7.4414067,5.8398399-7.2623734,5.8398399-7.0410199z"
			/>
	</g>
	<g transform="matrix(1 0 0 1 281.867 1933)">
		<path d="M11.7089996,2.9101601c1.3606672,0,2.6416006-0.2604167,3.8428001-0.78125
			c1.2011337-0.5208334,2.2607002-1.2402358,3.1786995-2.1582069c0.9179344-0.9179688,1.6373348-1.9775398,2.1582012-3.1787131
			c0.5207996-1.2011731,0.7812004-2.4820969,0.7812004-3.8427699c0-1.3606801-0.2604008-2.6416202-0.7812004-3.8428206
			c-0.5208664-1.2011337-1.2402668-2.2606993-2.1582012-3.1786995c-0.9179993-0.9179335-1.9792004-1.6373329-3.1835995-2.1581993
			c-1.2044668-0.5207996-2.4870329-0.7812004-3.8477001-0.7812004s-2.6415825,0.2604008-3.8427491,0.7812004
			c-1.2011733,0.5208664-2.2591166,1.2402658-3.17383,2.1581993c-0.9147131,0.9180002-1.6324866,1.9775658-2.1533201,3.1786995
			C2.0084672-9.6924,1.7480505-8.4114599,1.7480503-7.0507798C1.7480505-5.6901069,2.0084672-4.409183,2.5293005-3.20801
			s1.2402332,2.2607443,2.1582,3.1787131c0.9179664,0.9179712,1.9775367,1.6373736,3.17871,2.1582069
			S10.3483133,2.9101601,11.7089996,2.9101601z M11.7089996,1.25c-1.1523533,0-2.2298326-0.2148436-3.23244-0.644531
			C7.4739599,0.1757813,6.5934277-0.418295,5.8349605-1.17676c-0.75846-0.7584602-1.3509068-1.6389933-1.7773399-2.6416001
			S3.4179704-5.8984399,3.4179704-7.0507798c0-1.1523461,0.2132168-2.2298207,0.6396501-3.2324204
			s1.0172534-1.8847656,1.77246-2.6464996c0.7552066-0.7617331,1.6341133-1.3557997,2.6367192-1.7821999
			c1.0025997-0.4264669,2.0800667-0.6396999,3.2323999-0.6396999s2.2298002,0.213233,3.2323999,0.6396999
			c1.0025997,0.4264002,1.8847666,1.0204668,2.6465006,1.7821999c0.761734,0.761734,1.3574333,1.6438999,1.7870998,2.6464996
			C19.7949333-9.2806005,20.0098-8.203126,20.0098-7.0507798c0,1.1523399-0.213232,2.2298131-0.6396999,3.2324197
			c-0.4263992,1.0026069-1.0188332,1.88314-1.7772999,2.6416001c-0.7584667,0.7584649-1.6406336,1.3525413-2.6465006,1.7822289
			S12.8613329,1.25,11.7089996,1.25z M7.3925805-7.0410199c0,0.2343798,0.0781231,0.4264402,0.2343698,0.57618
			C7.7832036-6.3151002,7.9850273-6.2402301,8.23242-6.2402301h2.6464796v2.6660101
			c0,0.2408867,0.0748663,0.4378266,0.2246008,0.5908198c0.1497335,0.1529932,0.3417997,0.22949,0.5761995,0.22949
			c0.2474003,0,0.449234-0.0764968,0.6055002-0.22949c0.1561995-0.1529932,0.2342997-0.3499331,0.2342997-0.5908198v-2.6660101
			h2.6563005c0.2408667,0,0.4394331-0.0748701,0.5956993-0.2246099s0.2343998-0.3418002,0.2343998-0.57618
			c0-0.2473936-0.0781336-0.447587-0.2343998-0.6005802s-0.3548326-0.2294898-0.5956993-0.2294898h-2.6563005v-2.6465101
			c0-0.2538662-0.0781002-0.4573002-0.2342997-0.6103001c-0.1562662-0.1529999-0.3580999-0.2294998-0.6055002-0.2294998
			c-0.2343998,0-0.426466,0.0764999-0.5761995,0.2294998c-0.1497345,0.1529999-0.2246008,0.3564339-0.2246008,0.6103001v2.6465101
			H8.23242c-0.2539062,0-0.4573565,0.0764966-0.6103497,0.2294898S7.3925805-7.2884135,7.3925805-7.0410199z"/>
	</g>
	<g transform="matrix(1 0 0 1 305.646 1933)">
		<path d="M14.9707003,5.6640601c1.393199,0,2.7229662-0.2164702,3.9892988-0.6494102
			c1.2662678-0.4329467,2.4300003-1.0400431,3.4912014-1.8212898c1.0611992-0.7812533,1.9840317-1.7024773,2.7684994-2.7636721
			c0.7845325-1.0611987,1.3932667-2.2265646,1.8262005-3.496098c0.4329338-1.2695265,0.6493988-2.5976501,0.6493988-3.9843698
			c0-1.3932271-0.216465-2.7229667-0.6493988-3.9892201c-0.4329338-1.2663326-1.0416679-2.4300671-1.8262005-3.4912004
			c-0.7844677-1.0611992-1.7073002-1.984066-2.7684994-2.7686005c-1.0612011-0.7845325-2.2265682-1.3932667-3.4961014-1.8261986
			c-1.2695312-0.4329338-2.6009331-0.6494007-3.9941988-0.6494007c-1.3931999,0-2.7229328,0.2164669-3.9892006,0.6494007
			c-1.2662859,0.4329319-2.4284029,1.041666-3.4863496,1.8261986c-1.05794,0.7845345-1.9791632,1.7074013-2.76367,2.7686005
			C3.9371731-13.470067,3.3300765-12.3063326,2.9003899-11.04c-0.4296865,1.2662535-0.6445298,2.595993-0.6445298,3.9892201
			c0,1.3867197,0.21647,2.7148433,0.64941,3.9843698c0.4329467,1.2695335,1.0400431,2.4348993,1.82129,3.496098
			c0.7812529,1.0611948,1.7024765,1.9824188,2.76367,2.7636721c1.0612006,0.7812467,2.2249236,1.3883431,3.4911695,1.8212898
			C12.2477341,5.4475899,13.5775003,5.6640601,14.9707003,5.6640601z M14.9707003,3.8476601
			c-1.2044001,0-2.3518677-0.1839199-3.4424-0.55176c-1.0904799-0.3678403-2.0881939-0.88379-2.9931402-1.5478501
			c-0.904953-0.6640646-1.6910863-1.4501987-2.3583999-2.358402C5.5094399-1.5185572,4.9934897-2.5179067,4.6289101-3.6084001
			C4.2643232-4.6988935,4.0820298-5.8463535,4.0820298-7.0507798c0-1.2109399,0.1822934-2.3616471,0.5468802-3.4521203
			c0.3645797-1.0905333,0.8789029-2.0899,1.5429697-2.9981003c0.6640601-0.9081993,1.4485636-1.6943321,2.3535099-2.3583994
			c0.9049463-0.6640663,1.9026833-1.1783657,2.9932108-1.5429001c1.0904665-0.3645992,2.2378998-0.5468998,3.4422998-0.5468998
			c1.2109327,0,2.3616648,0.1823006,3.452199,0.5468998c1.0904655,0.3645344,2.0897999,0.8788338,2.9980011,1.5429001
			c0.9081993,0.6640673,1.6943321,1.4502001,2.3584003,2.3583994c0.6640682,0.9082003,1.1800327,1.907567,1.5478992,2.9981003
			c0.3678017,1.0904732,0.5517006,2.2411804,0.5517006,3.4521203c0.0065327,1.2044263-0.1725006,2.3518863-0.5370998,3.4423797
			c-0.3645325,1.0904934-0.8804684,2.0898428-1.5478001,2.9980481c-0.6673336,0.9082034-1.455101,1.6943374-2.3633003,2.358402
			c-0.9081993,0.6640601-1.9075336,1.1800098-2.9980011,1.5478501C17.3323669,3.6637402,16.181633,3.8476601,14.9707003,3.8476601z
			 M9.4531202-7.0410199c0,0.2539067,0.0862637,0.46387,0.25879,0.62989
			c0.1725264,0.1660132,0.3922567,0.2490201,0.6591902,0.2490201H14.0625v3.70117
			c0,0.2669265,0.0830002,0.4850265,0.2489996,0.6542999c0.1660004,0.1692734,0.375967,0.2539101,0.6299,0.2539101
			c0.2734671,0,0.4948339-0.0846367,0.6641006-0.2539101c0.1692657-0.1692734,0.2539005-0.3873733,0.2538996-0.6542999v-3.70117
			h3.7010994c0.2669334,0,0.485033-0.0830069,0.6543007-0.2490201c0.1693325-0.1660199,0.2539997-0.3759832,0.2539997-0.62989
			c0-0.2734332-0.0846672-0.4947867-0.2539997-0.6640601c-0.1692677-0.1692662-0.3873672-0.2539001-0.6543007-0.2539001h-3.7010994
			v-3.6914201c0.000001-0.2734003-0.0846338-0.4947672-0.2538996-0.6640997
			c-0.1692667-0.1692677-0.3906336-0.2539005-0.6641006-0.2539005c-0.253933,0-0.4638996,0.0862675-0.6299,0.2588005
			c-0.1659994,0.172533-0.2489996,0.3922672-0.2489996,0.6591997v3.6914201h-3.6913996
			c-0.2734404,0-0.4947968,0.0846338-0.6640701,0.2539001C9.5377569-7.5358067,9.4531202-7.3144531,9.4531202-7.0410199z"/>
	</g>
	<text transform="matrix(1 0 0 1 263 1953)" font-family="'SFProDisplay-Bold'" font-size="13px">Design Variations</text>
	<text transform="matrix(1 0 0 1 263 1971)" font-family="'SFProDisplay-Regular'" font-size="13px">Symbols are supported in up to nine weights and three scales.</text>
	<text transform="matrix(1 0 0 1 263 1989)" font-family="'SFProDisplay-Regular'" font-size="13px">For optimal layout with text and other symbols, vertically align</text>
	<text transform="matrix(1 0 0 1 263 2007)" font-family="'SFProDisplay-Regular'" font-size="13px">symbols with the adjacent text.</text>
	<line fill="none" stroke="#00AEEF" stroke-width="0.5" x1="776" y1="1919" x2="776" y2="1933"/>
	<g transform="matrix(1 0 0 1 776 1933)">
		<path d="M3.31055,0.15625c0.2604132,0,0.4622364-0.0553385,0.6054699-0.1660156
			C4.0592465-0.1204425,4.1764331-0.3125,4.26758-0.585938l1.2597599-3.4472618h5.7617598l1.2597008,3.4472618
			c0.0911331,0.273438,0.208333,0.4654954,0.3515997,0.5761724c0.143199,0.1106771,0.3417673,0.1660156,0.5957003,0.1660156
			c0.2603998,0,0.4670992-0.0716146,0.6201-0.2148438c0.1529999-0.1432295,0.2294998-0.3385418,0.2294998-0.5859372
			c0-0.14974-0.035799-0.325523-0.1073999-0.527349L9.6582003-13.3690996
			c-0.1171875-0.2995338-0.2766895-0.524168-0.4785099-0.6739006c-0.201827-0.1497335-0.4589901-0.2245998-0.7714901-0.2245998
			c-0.6054673,0-1.0156236,0.2962332-1.2304702,0.8887005L2.5976601-1.16211c-0.07162,0.2018234-0.10743,0.3776046-0.10743,0.527344
			c0,0.247396,0.0732434,0.441081,0.2197299,0.5810551S3.0566432,0.15625,3.31055,0.15625z M6.0058599-5.51758l2.3730502-6.5722198
			h0.0488195L10.8008003-5.51758H6.0058599z"/>
	</g>
	<line fill="none" stroke="#00AEEF" stroke-width="0.5" x1="793.1970215" y1="1919" x2="793.1970215" y2="1933"/>
	<text transform="matrix(1 0 0 1 776 1953)" font-family="'SFProDisplay-Bold'" font-size="13px">Margins</text>
	<text transform="matrix(1 0 0 1 776 1971)" font-family="'SFProDisplay-Regular'" font-size="13px">Leading and trailing margins on the left and right side of each symbol</text>
	<text transform="matrix(1 0 0 1 776 1989)" font-family="'SFProDisplay-Regular'" font-size="13px">can be adjusted by modifying the x-location of the margin guidelines.</text>
	<text transform="matrix(1 0 0 1 776 2007)" font-family="'SFProDisplay-Regular'" font-size="13px">Modifications are automatically applied proportionally to all</text>
	<text transform="matrix(1 0 0 1 776 2025)" font-family="'SFProDisplay-Regular'" font-size="13px">scales and weights.</text>
	<g transform="matrix(1 0 0 1 1289 1933)">
		<path d="M2.8418,1.86523l1.6992199,1.70899c0.429687,0.4361999,0.8837867,0.6380236,1.3622999,0.6054699
			c0.4785137-0.0325532,0.9488897-0.30599,1.41113-0.8203099L18.0077991-8.4277296l-0.9667988-0.9765701L6.4257798,2.2753899
			C6.25,2.47721,6.0725899,2.5911434,5.8935499,2.6171899c-0.1790328,0.0260401-0.3857369-0.0781267-0.62011-0.3125
			L4.1015601,1.14258c-0.2343733-0.234376-0.33691-0.4410824-0.30761-0.620119
			c0.0292933-0.1790367,0.14485-0.3597007,0.3466702-0.5419922L15.6152-10.8203001l-0.9765005-0.9667997L3.04688-0.898438
			C2.5520866-0.4427086,2.2867866,0.0227863,2.2509799,0.498047C2.2151732,0.973309,2.4121132,1.4290366,2.8418,1.86523z
			 M9.2578096-16.3281002C9.0494766-16.1262989,8.9322901-15.8951998,8.90625-15.6348
			c-0.0260401,0.2604666,0.0195341,0.4883337,0.1367197,0.6836004c0.1171865,0.182333,0.288084,0.319066,0.5126905,0.4101992
			c0.2246132,0.0911331,0.4996939,0.0976334,0.8252401,0.0195007c0.7291336-0.1692667,1.4680653-0.239234,2.2167997-0.2098999
			c0.7486668,0.0292664,1.4810667,0.2782669,2.1971998,0.7469997l-0.5859003,1.4551001
			c-0.1692657,0.416667-0.216466,0.7796326-0.1415997,1.0888996c0.0748663,0.3092003,0.2457666,0.6005335,0.5127001,0.8740005
			L16.875-8.2519503c0.2408657,0.2473936,0.4752331,0.3906202,0.7031002,0.4296803
			c0.2278671,0.0390668,0.4817677,0.0325565,0.7616997-0.0195303l1.0645008-0.1953101l0.6640987,0.6738305l-0.0390987,0.5566397
			c-0.0195332,0.2473936,0.0114002,0.4752569,0.0928001,0.6835899c0.0813332,0.2083335,0.242466,0.4329433,0.4833984,0.67383
			l0.7617016,0.7421904c0.2408676,0.2408867,0.5028992,0.3662133,0.7860985,0.3759799
			c0.2832012,0.0097599,0.5419998-0.1025472,0.7764015-0.3369203l2.910099-2.91992
			c0.2344017-0.2343731,0.3483334-0.4899068,0.3418007-0.7666001c-0.0064678-0.2766933-0.1301689-0.5354834-0.3711014-0.77637
			L25.0391006-9.89258c-0.2343998-0.24088-0.454134-0.4052534-0.6592007-0.4931202
			c-0.2050667-0.0879335-0.4280663-0.1221333-0.6690006-0.1026001L23.1348-10.4394999L22.4902-11.0741997L22.7343998-12.1973
			c0.0650673-0.2799339,0.0520325-0.5419664-0.0391006-0.7861004s-0.2831993-0.5127001-0.5761986-0.8056993l-2.1972008-2.1875
			c-0.8333321-0.8268003-1.7203999-1.4469004-2.6611996-1.860301c-0.940733-0.4133987-1.8880005-0.628233-2.8418007-0.6444988
			c-0.9537325-0.0163326-1.8716993,0.1578007-2.7538996,0.5223999C10.7828665-17.5944004,9.9804697-17.050766,9.2578096-16.3281002z
			 M10.7519999-15.9569998c0.6054668-0.4427328,1.2548666-0.7585001,1.9482002-0.9473009
			c0.6933327-0.1887989,1.3948326-0.249033,2.1044998-0.1806984c0.7096004,0.0683994,1.3980665,0.2588329,2.0654001,0.5712986
			c0.6673317,0.3125343,1.2776985,0.7487326,1.8311005,1.3086004l2.4315987,2.4120998
			c0.1172009,0.1171999,0.1904335,0.2311335,0.2197018,0.3418007c0.0293331,0.1106663,0.0244656,0.2506657-0.0146008,0.4199991
			l-0.3223,1.4843006L22.5195007-9.0625l0.9863987-0.0585899c0.1236687-0.0065136,0.2180691,0.0016232,0.2832012,0.0244102
			c0.0650654,0.0227861,0.146431,0.0830069,0.2440987,0.1806593l0.5762005,0.5761805l-2.4414005,2.4414001l-0.5761986-0.57617
			C21.494133-6.5722632,21.4322662-6.6536431,21.4062004-6.71875c-0.0259991-0.0651069-0.0357323-0.1627636-0.0291996-0.2929702
			l0.0682983-0.9765596l-1.4940987-1.4843802L18.4277-9.21875c-0.1627331,0.0325537-0.2912998,0.0374365-0.3857002,0.0146503
			c-0.0944004-0.0227871-0.2034664-0.0927744-0.3271999-0.20996l-2.0018997-2.0019407
			c-0.1302004-0.1171999-0.203433-0.2294998-0.2196999-0.3368998c-0.0162668-0.1074667,0.0146322-0.2523336,0.0927-0.4345999
			l0.8788996-2.0897999c-0.7811995-0.7292004-1.6601-1.2337675-2.6366997-1.5137005
			c-0.9765329-0.279932-1.9726343-0.2701664-2.9883003,0.0293007c-0.0780659,0.0195322-0.1285,0.0048666-0.1512995-0.0440006
			C10.6657-15.8544998,10.6868668-15.904933,10.7519999-15.9569998z"/>
	</g>
	<text transform="matrix(1 0 0 1 1289 1953)" font-family="'SFProDisplay-Bold'" font-size="13px">Exporting</text>
	<text transform="matrix(1 0 0 1 1289 1971)" font-family="'SFProDisplay-Regular'" font-size="13px">Symbols should be outlined when exporting to ensure the</text>
	<text transform="matrix(1 0 0 1 1289 1989)" font-family="'SFProDisplay-Regular'" font-size="13px">design is preserved when submitting to Xcode.</text>
	
		<text id="template-version" transform="matrix(1 0 0 1 2956.4257812 1933)" font-family="'SFProDisplay-Regular'" font-size="13px">Template v.3.0</text>
	<text transform="matrix(1 0 0 1 2880.0063477 1951)" font-family="'SFProDisplay-Regular'" font-size="13px">Requires Xcode 13 or greater</text>
	
		<text id="descriptive-name" transform="matrix(1 0 0 1 2889.3754883 1969)" font-family="'SFProDisplay-Regular'" font-size="13px">Generated from trash.circle</text>
	<text transform="matrix(1 0 0 1 2919.7490234 1987)" font-family="'SFProDisplay-Regular'" font-size="13px">Typeset at 100 points</text>
	<text transform="matrix(1 0 0 1 263 726)" font-family="'SFProDisplay-Regular'" font-size="13px">Small</text>
	<text transform="matrix(1 0 0 1 263 1156)" font-family="'SFProDisplay-Regular'" font-size="13px">Medium</text>
	<text transform="matrix(1 0 0 1 263 1586)" font-family="'SFProDisplay-Regular'" font-size="13px">Large</text>
</g>
<g id="Guides">
	<g id="H-reference" transform="matrix(1 0 0 1 339 696)">
		<path fill="#27AAE1" d="M0.976562,0h2.6855481l25.6835899-67.1387024h0.6836014v-3.3202972H28.125L0.976562,0z
			 M11.6698999-24.4629002h35.3027992L46.2402-26.7089996H12.4511995L11.6698999-24.4629002z M55.1269989,0h2.6366997
			L30.6152-70.4589996h-1.1718006v3.3202972L55.1269989,0z"/>
	</g>
	<line id="Baseline-S" fill="none" stroke="#27AAE1" stroke-width="0.5" x1="263" y1="696" x2="3036" y2="696"/>
	<line id="Capline-S" fill="none" stroke="#27AAE1" stroke-width="0.5" x1="263" y1="625.5410156" x2="3036" y2="625.5410156"/>
	<g id="H-reference_1_" transform="matrix(1 0 0 1 339 1126)">
		<path fill="#27AAE1" d="M0.976562,0h2.6855481l25.6835899-67.1387024h0.6836014v-3.3202972H28.125L0.976562,0z
			 M11.6698999-24.4629002h35.3027992L46.2402-26.7089996H12.4511995L11.6698999-24.4629002z M55.1269989,0h2.6366997
			L30.6152-70.4589996h-1.1718006v3.3202972L55.1269989,0z"/>
	</g>
	<line id="Baseline-M" fill="none" stroke="#27AAE1" stroke-width="0.5" x1="263" y1="1126" x2="3036" y2="1126"/>
	<line id="Capline-M" fill="none" stroke="#27AAE1" stroke-width="0.5" x1="263" y1="1055.5400391" x2="3036" y2="1055.5400391"/>
	<g id="H-reference_2_" transform="matrix(1 0 0 1 339 1556)">
		<path fill="#27AAE1" d="M0.976562,0h2.6855481l25.6835899-67.1387024h0.6836014v-3.3202972H28.125L0.976562,0z
			 M11.6698999-24.4629002h35.3027992L46.2402-26.7089996H12.4511995L11.6698999-24.4629002z M55.1269989,0h2.6366997
			L30.6152-70.4589996h-1.1718006v3.3202972L55.1269989,0z"/>
	</g>
	<line id="Baseline-L" fill="none" stroke="#27AAE1" stroke-width="0.5" x1="263" y1="1556" x2="3036" y2="1556"/>
	<line id="Capline-L" fill="none" stroke="#27AAE1" stroke-width="0.5" x1="263" y1="1485.5400391" x2="3036" y2="1485.5400391"/>
	
		<line id="left-margin-Ultralight-S" fill="none" stroke="#00AEEF" stroke-width="0.5" x1="519.3008423" y1="600.7849731" x2="519.3008423" y2="720.1209717"/>
	
		<line id="right-margin-Ultralight-S" fill="none" stroke="#00AEEF" stroke-width="0.5" x1="600.1218262" y1="600.7849731" x2="600.1218262" y2="720.1209717"/>
	
		<line id="left-margin-Regular-S" fill="none" stroke="#00AEEF" stroke-width="0.5" x1="1407.2454834" y1="600.7849731" x2="1407.2454834" y2="720.1209717"/>
	
		<line id="right-margin-Regular-S" fill="none" stroke="#00AEEF" stroke-width="0.5" x1="1492.4926758" y1="600.7849731" x2="1492.4926758" y2="720.1209717"/>
	
		<line id="left-margin-Black-S" fill="none" stroke="#00AEEF" stroke-width="0.5" x1="2888.4660645" y1="600.7849731" x2="2888.4660645" y2="720.1209717"/>
	
		<line id="right-margin-Black-S" fill="none" stroke="#00AEEF" stroke-width="0.5" x1="2978.3303223" y1="600.7849731" x2="2978.3303223" y2="720.1209717"/>
</g>
<g id="Symbols">
	<g id="Black-S">
		<path d="M2933.4001465,700.1201782v0.2875366c-5.3649902,0.6044312-23.947998,1.3060303-25.0983887-0.6352539
			c-0.2619629-0.4417725-0.4433594-1.5357056,1.0107422-2.6088867c1.6984863-1.255127,4.390625-2.2666016,6.4953613-2.8956909
			C2919.9516602,697.7733765,2926.3884277,700.1201782,2933.4001465,700.1201782z"/>
		<path d="M2933.4001465,700.1201782c7.0124512,0,13.4484863-2.3468018,17.5930176-5.8522949
			c2.1040039,0.6290894,4.7961426,1.640564,6.4953613,2.8956909c1.453125,1.0731812,1.2719727,2.1671143,1.0100098,2.6088867
			c-1.1503906,1.9412842-19.7333984,1.2396851-25.0983887,0.6352539V700.1201782z"/>
		<path d="M2930.0048828,637.2467651c0.111084,1.3931274-0.6530762,2.6304932-1.7045898,2.7653809
			c-1.0532227,0.1357422-1.9960938-0.8834839-2.1079102-2.2773438c-0.1101074-1.3939209,0.6530762-2.6312866,1.7023926-2.7654419
			C2928.9501953,634.8329468,2929.8945312,635.8536377,2930.0048828,637.2467651"/>
		<path d="M2936.6936035,637.7124023c0.2150879-0.385437,1.6806641-2.4122925,4.7143555-1.6744995
			c0.7971191,0.1942749,1.1657715,0.4795532,1.2436523,0.5913086c0.1147461,0.1657715,0.1464844,0.4016724,0.0300293,0.7192993
			c-0.2304688,0.6298828-0.7070312,0.612915-0.9707031,0.489563c-0.1704102-0.0794067-2.2834473-1.487915-4.2302246,0.6137085
			c-0.1340332,0.144165-0.3737793,0.1934814-0.6005859,0.0223389
			C2936.652832,638.3021851,2936.5595703,637.9545288,2936.6936035,637.7124023"/>
		<path d="M2964.9074707,670.9735718c3.4228516,11.0153198,2.3137207,15.5739746,1.4694824,15.6765137
			c-1.8117676,0.2189331-7.0527344-8.2923584-7.0527344-8.2923584c0,8.6484985-7.8083496,21.9281616-25.6889648,22.0499268
			c-0.0793457-0.0007935-0.3947754-0.0007935-0.4741211,0c-17.8806152-0.1217651-25.6889648-13.4014282-25.6889648-22.0499268
			c0,0-5.2409668,8.5112915-7.0527344,8.2923584c-0.8442383-0.1025391-1.9533691-4.6611938,1.4694824-15.6765137
			c0.7180176-2.3097534,1.6977539-5.00354,2.6899414-7.5907593l0,0l0,0
			c4.0258789,1.2138062,8.4802246,2.2199707,12.9318848,2.9719849v11.7739868c0,0,5.5593262,1.1209106,11.1293945,0.3446045
			v-10.8339844c1.6315918,0.0917969,3.2258301,0.1504517,4.715332,0.1323853h0.0854492
			c8.4897461,0.102478,19.7163086-1.6575317,28.7766113-4.3889771l0,0l0,0
			C2963.2097168,665.9700317,2964.1894531,668.6638184,2964.9074707,670.9735718z"/>
		<path d="M2933.3554688,657.8535767c-14.3173828-0.0964355-25.1176758-3.4995117-25.1547852-3.5109253
			c-0.0029297-0.1056519-0.0476074-1.8850098-0.0476074-2.8032227c0-15.4591675,7.2978516-30.9938354,25.2446289-30.9945679
			c17.9477539,0.0007324,25.2456055,15.5354004,25.2456055,30.9945679c0,0.9182129-0.0446777,2.6975708-0.0476074,2.8032227
			c0,0-10.8139648,3.4136963-25.1547852,3.5109253H2933.3554688z M2940.2624512,630.6080933
			c-2.432373-0.1087036-4.5117188,2.6635742-4.6433105,6.1906738c-0.1335449,3.5278931,1.7321777,6.4760132,4.1652832,6.5855103
			c2.4345703,0.1102905,4.5146484-2.6636353,4.6450195-6.1891479
			C2944.5620117,633.6672363,2942.6970215,630.7182617,2940.2624512,630.6080933z M2926.5339355,630.6080933
			c-2.4345703,0.1101685-4.2995605,3.0591431-4.1677246,6.5870361c0.1311035,3.5255127,2.2111816,6.2994385,4.645752,6.1891479
			c2.4331055-0.1087036,4.2988281-3.0576172,4.1655273-6.5855103
			C2931.0456543,633.2716675,2928.9663086,630.4993896,2926.5339355,630.6080933z M2918.0395508,648.3638306
			c-0.0292969,0.062439-0.0476074,0.1318359-0.0476074,0.2050781c0,0.1040649,0.0354004,0.1974487,0.0893555,0.2775879
			c0.5488281,0.798645,7.8242188,4.74823,15.2734375,4.74823h0.0869141c7.4492188,0,14.7246094-3.9487915,15.2724609-4.74823
			c0.0549316-0.0794678,0.0895996-0.1741943,0.0895996-0.2783203c0-0.0732422-0.0175781-0.1419067-0.046875-0.2043457
			c-0.6508789-1.440918-7.2028809-3.0467529-15.3151855-3.0467529h-0.0869141
			C2925.2424316,645.3170776,2918.6904297,646.9229126,2918.0395508,648.3638306z"/>
	</g>
	<g id="Regular-S">
		<path d="M1449.8708496,697.4724731v0.2685547c-5.010498,0.5645142-22.3653564,1.2197266-23.4395752-0.5932617
			c-0.244873-0.4125366-0.4140625-1.4342651,0.9438477-2.4364624c1.5861816-1.1721802,4.1004639-2.1168213,6.06604-2.7043457
			C1437.3111572,695.2808228,1443.3225098,697.4724731,1449.8708496,697.4724731z"/>
		<path d="M1449.8708496,697.4724731c6.5491943,0,12.5596924-2.1916504,16.4304199-5.4655151
			c1.9649658,0.5875244,4.479126,1.5321655,6.06604,2.7043457c1.3571777,1.0021973,1.1879883,2.0239258,0.9432373,2.4364624
			c-1.0742188,1.8129883-18.4291992,1.1577759-23.4396973,0.5932617V697.4724731z"/>
		<path d="M1446.6999512,638.7542114c0.1037598,1.3010254-0.6098633,2.456665-1.5919189,2.5826416
			c-0.9835205,0.126709-1.8640137-0.8251343-1.9685059-2.1268921c-0.1029053-1.3017578,0.6098633-2.4573364,1.5898438-2.5826416
			C1445.7149658,636.4998779,1446.5970459,637.453186,1446.6999512,638.7542114"/>
		<path d="M1452.9466553,639.1890869c0.2009277-0.3599854,1.5697021-2.2528687,4.402832-1.5638428
			c0.7445068,0.1814575,1.088623,0.447876,1.161377,0.5522461c0.1072998,0.1547852,0.1368408,0.3751221,0.0280762,0.6717529
			c-0.21521,0.5882568-0.6602783,0.5723877-0.9064941,0.4572144c-0.1590576-0.0741577-2.1325684-1.3895874-3.9505615,0.5731201
			c-0.1253662,0.1346436-0.3492432,0.1807251-0.5609131,0.020874
			C1452.9085693,639.7398682,1452.8214111,639.4151611,1452.9466553,639.1890869"/>
		<path d="M1479.2958984,670.2520752c3.1967773,10.2873535,2.1607666,14.5447388,1.3724365,14.640564
			c-1.6921387,0.2044067-6.5866699-7.7443848-6.5866699-7.7443848c0,8.0769653-7.2921143,20.4790039-23.9912109,20.5927734
			c-0.0740967-0.0007935-0.3686523-0.0007935-0.442749,0c-16.6990967-0.1137695-23.991333-12.5158081-23.991333-20.5927734
			c0,0-4.8945312,7.9487915-6.5865479,7.7443848c-0.7884521-0.0958252-1.8243408-4.3532104,1.3724365-14.640564
			c0.6702881-2.1570435,1.5854492-4.6728516,2.512085-7.0890503l0,0l0,0
			c3.7598877,1.133606,7.9197998,2.0732422,12.0772705,2.7755737v10.9958496c0,0,5.1918945,1.046875,10.3939209,0.3218384
			v-10.117981c1.5236816,0.0857544,3.0125732,0.1404419,4.4035645,0.1236572h0.0799561
			c7.9284668,0.0957031,18.413208-1.5480347,26.8746338-4.098938l0,0l0,0
			C1477.7104492,665.5792236,1478.6254883,668.0950317,1479.2958984,670.2520752z"/>
		<path d="M1449.8291016,657.9991455c-13.3710938-0.0900269-23.4577637-3.2681885-23.4921875-3.2788696
			c-0.0029297-0.0986938-0.0446777-1.760437-0.0446777-2.6179199c0-14.437561,6.8156738-28.9456177,23.576416-28.946228
			c16.7615967,0.0006104,23.5771484,14.508667,23.5771484,28.946228c0,0.8574829-0.041748,2.5192261-0.0445557,2.6179199
			c0,0-10.0993652,3.1881104-23.4921875,3.2788696H1449.8291016z M1456.279541,632.5542603
			c-2.2714844-0.1015015-4.2133789,2.4876099-4.3364258,5.7815552c-0.1245117,3.2947388,1.6177979,6.0480347,3.8900146,6.1502686
			c2.2738037,0.1030273,4.2163086-2.4875488,4.3380127-5.7800903
			C1460.2950439,635.4112549,1458.5533447,632.6571655,1456.279541,632.5542603z M1443.4584961,632.5542603
			c-2.2736816,0.1029053-4.0153809,2.8569946-3.8924561,6.1517334c0.1225586,3.2925415,2.0651855,5.8831177,4.3388672,5.7800903
			c2.2723389-0.1015015,4.0146484-2.8555298,3.8901367-6.1502686
			C1447.6719971,635.0418701,1445.7301025,632.4527588,1443.4584961,632.5542603z M1435.5255127,649.1365356
			c-0.0273438,0.0583496-0.0446777,0.1231689-0.0446777,0.1915283c0,0.097229,0.0333252,0.1844482,0.0834961,0.2592773
			c0.5126953,0.7458496,7.307251,4.4344482,14.2640381,4.4344482h0.0812988c6.9567871,0,13.7514648-3.6878052,14.2631836-4.4344482
			c0.0511475-0.0741577,0.0834961-0.1626587,0.0834961-0.2598877c0-0.0684204-0.0163574-0.1325684-0.0437012-0.190918
			c-0.6079102-1.3456421-6.7269287-2.8453369-14.3029785-2.8453369h-0.0812988
			C1442.2524414,646.2911987,1436.1333008,647.7908936,1435.5255127,649.1365356z"/>
	</g>
	<g id="Ultralight-S">
		<path d="M559.7130127,694.9810791v0.2503662c-4.6705933,0.5261841-20.8482056,1.1369019-21.8495483-0.5530396
			c-0.2282104-0.3845825-0.3859253-1.3369751,0.8798828-2.2712402c1.4785767-1.0925903,3.8222656-1.9732056,5.654541-2.520874
			C548.0053101,692.9380493,553.6088257,694.9810791,559.7130127,694.9810791z"/>
		<path d="M559.7130127,694.9810791c6.1048584,0,11.7077026-2.0430298,15.3158569-5.0947876
			c1.831604,0.5476685,4.175293,1.4282837,5.65448,2.520874c1.2651367,0.9342651,1.1074219,1.8866577,0.8792725,2.2712402
			c-1.0014038,1.6899414-17.1790161,1.0792236-21.8496094,0.5530396V694.9810791z"/>
		<path d="M556.7572632,640.2460938c0.0966187,1.2127686-0.5684814,2.289978-1.4839478,2.4074707
			c-0.9168091,0.118103-1.7376099-0.769165-1.8349609-1.982605c-0.0959473-1.213501,0.5684814-2.2907104,1.4819336-2.4074707
			C555.8391113,638.1447144,556.6612549,639.0333252,556.7572632,640.2460938"/>
		<path d="M562.5802002,640.6514893c0.1872559-0.3355713,1.4631348-2.1000977,4.104126-1.4577637
			c0.6940308,0.1691284,1.0148315,0.4174194,1.0825806,0.5147705c0.1000366,0.1442871,0.1275635,0.3496704,0.0261841,0.6261597
			c-0.2006836,0.5483398-0.6154175,0.5335693-0.8449707,0.4262085c-0.1483154-0.0691528-1.9879761-1.2953491-3.6826782,0.5342407
			c-0.1167603,0.1254883-0.3255005,0.168457-0.5228271,0.0194702
			C562.5446777,641.164917,562.4634399,640.8622437,562.5802002,640.6514893"/>
		<path d="M587.1419678,669.6072388c2.9798584,9.5894775,2.0142212,13.5580444,1.2792969,13.6473999
			c-1.5772705,0.1905518-6.1397705-7.2190552-6.1397705-7.2190552c0,7.5290527-6.7975464,19.0897827-22.3638306,19.1958008
			c-0.0690308-0.0007324-0.3435669-0.0007324-0.4126587,0c-15.5662842-0.1060181-22.3637695-11.666748-22.3637695-19.1958008
			c0,0-4.5625,7.4096069-6.1398315,7.2190552c-0.7348633-0.0893555-1.7005615-4.0579224,1.2793579-13.6473999
			c0.6248779-2.0107422,1.4779053-4.355835,2.3417358-6.6082153l0,0l0,0
			c3.5047607,1.0567627,7.3825073,1.9326782,11.2579346,2.5872803v10.25c0,0,4.8397217,0.9758301,9.6888428,0.2999878v-9.4316406
			c1.4202881,0.0799561,2.8081665,0.1309814,4.1047974,0.1152954h0.0745239
			c7.390686,0.0892334,17.1641846-1.4429932,25.0516357-3.8209229l0,0l0,0
			C585.6640625,665.2514038,586.5170288,667.5964966,587.1419678,669.6072388z"/>
		<path d="M559.6740723,658.1854858c-12.4639893-0.0838623-21.866394-3.0464478-21.8985596-3.0564575
			c-0.0026855-0.0919189-0.0415649-1.6409302-0.0415649-2.4403076c0-13.4581299,6.3532715-26.9819946,21.9769897-26.982605
			c15.6245117,0.0006104,21.9778442,13.5244751,21.9778442,26.982605c0,0.7993774-0.0389404,2.3483887-0.0415649,2.4403076
			c0,0-9.4142456,2.9718628-21.8986206,3.0564575H559.6740723z M565.6870117,634.4667358
			c-2.1174927-0.0946045-3.9276123,2.3187866-4.0422974,5.3893433c-0.1160889,3.071228,1.5080566,5.6377563,3.6261597,5.7330322
			c2.1195068,0.0960693,3.9302979-2.3187866,4.0437012-5.3880005
			C569.4301147,637.1298828,567.8065186,634.5626831,565.6870117,634.4667358z M553.7357178,634.4667358
			c-2.1195679,0.0959473-3.743103,2.663147-3.628418,5.734375c0.1142578,3.0692139,1.9249878,5.4840698,4.0444946,5.3880005
			c2.118103-0.0946045,3.7423096-2.6618042,3.6262207-5.7330322
			C557.6633301,636.7855225,555.8532104,634.3721313,553.7357178,634.4667358z M546.3407593,649.9241333
			c-0.0254517,0.0543823-0.0415039,0.1147461-0.0415039,0.1785278c0,0.0906372,0.0309448,0.171875,0.0777588,0.2416382
			c0.4778442,0.6953125,6.8115845,4.133667,13.2964478,4.133667h0.0758057c6.4848022,0,12.8185425-3.4376831,13.2955933-4.133667
			c0.0476685-0.0691528,0.0778198-0.1516113,0.0778198-0.2422485c0-0.0637817-0.0153198-0.1235352-0.0407715-0.1779175
			c-0.5666504-1.2543945-6.2705688-2.6523438-13.3326416-2.6523438h-0.0758057
			C552.6113892,647.2717896,546.9074097,648.6697388,546.3407593,649.9241333z"/>
	</g>
</g>
</svg>
