<?xml version="1.0" encoding="utf-8"?>
<!-- Generator: Adobe Illustrator 25.2.3, SVG Export Plug-In . SVG Version: 6.00 Build 0)  -->
<svg version="1.1" id="Layer_1" xmlns="http://www.w3.org/2000/svg" xmlns:xlink="http://www.w3.org/1999/xlink" x="0px" y="0px"
	 viewBox="0 0 3300 2200" enable-background="new 0 0 3300 2200" xml:space="preserve">
<g id="Notes">
	<rect id="artboard" y="0" fill="#FFFFFF" width="3300" height="2200"/>
	<line fill="none" stroke="#000000" stroke-width="0.5" x1="263" y1="292" x2="3036" y2="292"/>
	<text transform="matrix(1 0 0 1 263 321.999939)" font-family="'SFProDisplay-Bold'" font-size="13px">Weight/Scale Variations</text>
	<text transform="matrix(1 0 0 1 535.0122681 321.999939)" font-family="'SFProDisplay-Regular'" font-size="13px">Ultralight</text>
	<text transform="matrix(1 0 0 1 844.3900146 321.999939)" font-family="'SFProDisplay-Regular'" font-size="13px">Thin</text>
	<text transform="matrix(1 0 0 1 1139.3619385 321.999939)" font-family="'SFProDisplay-Regular'" font-size="13px">Light</text>
	<text transform="matrix(1 0 0 1 1429.0291748 321.999939)" font-family="'SFProDisplay-Regular'" font-size="13px">Regular</text>
	<text transform="matrix(1 0 0 1 1724.2575684 321.999939)" font-family="'SFProDisplay-Regular'" font-size="13px">Medium</text>
	<text transform="matrix(1 0 0 1 2017.5556641 321.999939)" font-family="'SFProDisplay-Regular'" font-size="13px">Semibold</text>
	<text transform="matrix(1 0 0 1 2327.6750488 321.999939)" font-family="'SFProDisplay-Regular'" font-size="13px">Bold</text>
	<text transform="matrix(1 0 0 1 2619.2561035 321.999939)" font-family="'SFProDisplay-Regular'" font-size="13px">Heavy</text>
	<text transform="matrix(1 0 0 1 2918.4702148 321.999939)" font-family="'SFProDisplay-Regular'" font-size="13px">Black</text>
	<line fill="none" stroke="#000000" stroke-width="0.5" x1="263" y1="1903" x2="3036" y2="1903"/>
	<g transform="matrix(1 0 0 1 263 1933)">
		<path d="M9.2480497,0.830078C10.3287497,0.8300779,11.344367,0.625,12.2948999,0.214844
			c0.9505339-0.4101567,1.7887669-0.979818,2.5146999-1.708984c0.7258663-0.7291666,1.2955332-1.5690097,1.7090006-2.5195298
			c0.4134007-0.95052,0.6201-1.9628901,0.6201-3.0371099s-0.2066994-2.0865941-0.6201-3.0371203
			c-0.4134674-0.9505329-0.984767-1.7903662-1.7139006-2.5194998c-0.7291994-0.7292004-1.5690327-1.2988663-2.5194998-1.7089996
			c-0.9505339-0.4101334-1.9661732-0.6152-3.0469198-0.6152c-1.0742207,0-2.0865903,0.2050667-3.0371103,0.6152
			s-1.7871065,0.9797993-2.5097599,1.7089996C2.96875-11.8782663,2.4007132-11.0384331,1.9873-10.0879002
			C1.5738934-9.1373739,1.36719-8.125,1.36719-7.0507798S1.5738934-4.96419,1.9873-4.01367
			C2.4007132-3.0631497,2.9703767-2.2233067,3.69629-1.49414s1.5641298,1.2988274,2.5146499,1.708984
			C7.1614604,0.625,8.17383,0.8300779,9.2480497,0.830078z M9.2480497-0.654297c-0.8854198,0-1.71387-0.1643876-2.4853497-0.493163
			c-0.7714868-0.3287734-1.4485698-0.78613-2.03125-1.3720701C4.1487632-3.1054699,3.6930332-3.7858098,3.36426-4.5605502
			c-0.3287802-0.7747402-0.49317-1.6048164-0.49317-2.4902296c0-0.8854198,0.1627634-1.7155004,0.4882901-2.4902406
			c0.32552-0.7747192,0.7796199-1.4550467,1.3623002-2.0409794c0.5826797-0.5859337,1.2597632-1.0433006,2.03125-1.3720999
			C7.5244164-13.2829008,8.3528671-13.4473,9.2382803-13.4473c0.8919458,0,1.7236528,0.1643991,2.49512,0.4932003
			c0.7714672,0.3287992,1.4501667,0.7861662,2.0360994,1.3720999c0.5859337,0.5859327,1.0449333,1.2662601,1.3769999,2.0409794
			c0.3320007,0.7747402,0.4980001,1.6048207,0.4980001,2.4902406c0,0.8854132-0.1643667,1.7154894-0.4931002,2.4902296
			c-0.3287992,0.7747405-0.7845325,1.4550803-1.3671999,2.0410202c-0.5826664,0.5859401-1.2613993,1.0432967-2.0361996,1.3720701
			C10.9732666-0.8186846,10.1399498-0.654297,9.2480497-0.654297z M5.8398399-7.0410199
			c0,0.2148466,0.0683599,0.3890028,0.20508,0.52247c0.1367202,0.13346,0.3190136,0.2001901,0.5468802,0.2001901h1.9140601v1.92383
			c0,0.2213535,0.0667295,0.4003899,0.2001896,0.5371099c0.1334667,0.1367199,0.3076229,0.20508,0.5224705,0.20508
			c0.2213535,0,0.4003859-0.0683601,0.5370998-0.20508c0.1367197-0.1367199,0.20508-0.3157563,0.20508-0.5371099v-1.92383h1.9237995
			c0.2213993,0,0.4004335-0.06673,0.5370998-0.2001901c0.1367331-0.1334672,0.2051001-0.3076234,0.2051001-0.52247
			c0-0.2213535-0.068367-0.4003868-0.2051001-0.5371003c-0.1366663-0.1367197-0.3157005-0.2050796-0.5370998-0.2050796H9.9707003
			v-1.9140706c0-0.2278862-0.0683603-0.4101629-0.20508-0.5468292c-0.136714-0.1367331-0.3157463-0.2051001-0.5370998-0.2051001
			c-0.2148476,0-0.3890038,0.068367-0.5224705,0.2051001c-0.13346,0.1366663-0.2001896,0.318943-0.2001896,0.5468292v1.9140706
			H6.5918002c-0.2278666,0-0.4101601,0.0683599-0.5468802,0.2050796C5.9081998-7.4414067,5.8398399-7.2623734,5.8398399-7.0410199z"
			/>
	</g>
	<g transform="matrix(1 0 0 1 281.867 1933)">
		<path d="M11.7089996,2.9101601c1.3606672,0,2.6416006-0.2604167,3.8428001-0.78125
			c1.2011337-0.5208334,2.2607002-1.2402358,3.1786995-2.1582069c0.9179344-0.9179688,1.6373348-1.9775398,2.1582012-3.1787131
			c0.5207996-1.2011731,0.7812004-2.4820969,0.7812004-3.8427699c0-1.3606801-0.2604008-2.6416202-0.7812004-3.8428206
			c-0.5208664-1.2011337-1.2402668-2.2606993-2.1582012-3.1786995c-0.9179993-0.9179335-1.9792004-1.6373329-3.1835995-2.1581993
			c-1.2044668-0.5207996-2.4870329-0.7812004-3.8477001-0.7812004s-2.6415825,0.2604008-3.8427491,0.7812004
			c-1.2011733,0.5208664-2.2591166,1.2402658-3.17383,2.1581993c-0.9147131,0.9180002-1.6324866,1.9775658-2.1533201,3.1786995
			C2.0084672-9.6924,1.7480505-8.4114599,1.7480503-7.0507798C1.7480505-5.6901069,2.0084672-4.409183,2.5293005-3.20801
			s1.2402332,2.2607443,2.1582,3.1787131c0.9179664,0.9179712,1.9775367,1.6373736,3.17871,2.1582069
			S10.3483133,2.9101601,11.7089996,2.9101601z M11.7089996,1.25c-1.1523533,0-2.2298326-0.2148436-3.23244-0.644531
			C7.4739599,0.1757813,6.5934277-0.418295,5.8349605-1.17676c-0.75846-0.7584602-1.3509068-1.6389933-1.7773399-2.6416001
			S3.4179704-5.8984399,3.4179704-7.0507798c0-1.1523461,0.2132168-2.2298207,0.6396501-3.2324204
			s1.0172534-1.8847656,1.77246-2.6464996c0.7552066-0.7617331,1.6341133-1.3557997,2.6367192-1.7821999
			c1.0025997-0.4264669,2.0800667-0.6396999,3.2323999-0.6396999s2.2298002,0.213233,3.2323999,0.6396999
			c1.0025997,0.4264002,1.8847666,1.0204668,2.6465006,1.7821999c0.761734,0.761734,1.3574333,1.6438999,1.7870998,2.6464996
			C19.7949333-9.2806005,20.0098-8.203126,20.0098-7.0507798c0,1.1523399-0.213232,2.2298131-0.6396999,3.2324197
			c-0.4263992,1.0026069-1.0188332,1.88314-1.7772999,2.6416001c-0.7584667,0.7584649-1.6406336,1.3525413-2.6465006,1.7822289
			S12.8613329,1.25,11.7089996,1.25z M7.3925805-7.0410199c0,0.2343798,0.0781231,0.4264402,0.2343698,0.57618
			C7.7832036-6.3151002,7.9850273-6.2402301,8.23242-6.2402301h2.6464796v2.6660101
			c0,0.2408867,0.0748663,0.4378266,0.2246008,0.5908198c0.1497335,0.1529932,0.3417997,0.22949,0.5761995,0.22949
			c0.2474003,0,0.449234-0.0764968,0.6055002-0.22949c0.1561995-0.1529932,0.2342997-0.3499331,0.2342997-0.5908198v-2.6660101
			h2.6563005c0.2408667,0,0.4394331-0.0748701,0.5956993-0.2246099s0.2343998-0.3418002,0.2343998-0.57618
			c0-0.2473936-0.0781336-0.447587-0.2343998-0.6005802s-0.3548326-0.2294898-0.5956993-0.2294898h-2.6563005v-2.6465101
			c0-0.2538662-0.0781002-0.4573002-0.2342997-0.6103001c-0.1562662-0.1529999-0.3580999-0.2294998-0.6055002-0.2294998
			c-0.2343998,0-0.426466,0.0764999-0.5761995,0.2294998c-0.1497345,0.1529999-0.2246008,0.3564339-0.2246008,0.6103001v2.6465101
			H8.23242c-0.2539062,0-0.4573565,0.0764966-0.6103497,0.2294898S7.3925805-7.2884135,7.3925805-7.0410199z"/>
	</g>
	<g transform="matrix(1 0 0 1 305.646 1933)">
		<path d="M14.9707003,5.6640601c1.393199,0,2.7229662-0.2164702,3.9892988-0.6494102
			c1.2662678-0.4329467,2.4300003-1.0400431,3.4912014-1.8212898c1.0611992-0.7812533,1.9840317-1.7024773,2.7684994-2.7636721
			c0.7845325-1.0611987,1.3932667-2.2265646,1.8262005-3.496098c0.4329338-1.2695265,0.6493988-2.5976501,0.6493988-3.9843698
			c0-1.3932271-0.216465-2.7229667-0.6493988-3.9892201c-0.4329338-1.2663326-1.0416679-2.4300671-1.8262005-3.4912004
			c-0.7844677-1.0611992-1.7073002-1.984066-2.7684994-2.7686005c-1.0612011-0.7845325-2.2265682-1.3932667-3.4961014-1.8261986
			c-1.2695312-0.4329338-2.6009331-0.6494007-3.9941988-0.6494007c-1.3931999,0-2.7229328,0.2164669-3.9892006,0.6494007
			c-1.2662859,0.4329319-2.4284029,1.041666-3.4863496,1.8261986c-1.05794,0.7845345-1.9791632,1.7074013-2.76367,2.7686005
			C3.9371731-13.470067,3.3300765-12.3063326,2.9003899-11.04c-0.4296865,1.2662535-0.6445298,2.595993-0.6445298,3.9892201
			c0,1.3867197,0.21647,2.7148433,0.64941,3.9843698c0.4329467,1.2695335,1.0400431,2.4348993,1.82129,3.496098
			c0.7812529,1.0611948,1.7024765,1.9824188,2.76367,2.7636721c1.0612006,0.7812467,2.2249236,1.3883431,3.4911695,1.8212898
			C12.2477341,5.4475899,13.5775003,5.6640601,14.9707003,5.6640601z M14.9707003,3.8476601
			c-1.2044001,0-2.3518677-0.1839199-3.4424-0.55176c-1.0904799-0.3678403-2.0881939-0.88379-2.9931402-1.5478501
			c-0.904953-0.6640646-1.6910863-1.4501987-2.3583999-2.358402C5.5094399-1.5185572,4.9934897-2.5179067,4.6289101-3.6084001
			C4.2643232-4.6988935,4.0820298-5.8463535,4.0820298-7.0507798c0-1.2109399,0.1822934-2.3616471,0.5468802-3.4521203
			c0.3645797-1.0905333,0.8789029-2.0899,1.5429697-2.9981003c0.6640601-0.9081993,1.4485636-1.6943321,2.3535099-2.3583994
			c0.9049463-0.6640663,1.9026833-1.1783657,2.9932108-1.5429001c1.0904665-0.3645992,2.2378998-0.5468998,3.4422998-0.5468998
			c1.2109327,0,2.3616648,0.1823006,3.452199,0.5468998c1.0904655,0.3645344,2.0897999,0.8788338,2.9980011,1.5429001
			c0.9081993,0.6640673,1.6943321,1.4502001,2.3584003,2.3583994c0.6640682,0.9082003,1.1800327,1.907567,1.5478992,2.9981003
			c0.3678017,1.0904732,0.5517006,2.2411804,0.5517006,3.4521203c0.0065327,1.2044263-0.1725006,2.3518863-0.5370998,3.4423797
			c-0.3645325,1.0904934-0.8804684,2.0898428-1.5478001,2.9980481c-0.6673336,0.9082034-1.455101,1.6943374-2.3633003,2.358402
			c-0.9081993,0.6640601-1.9075336,1.1800098-2.9980011,1.5478501C17.3323669,3.6637402,16.181633,3.8476601,14.9707003,3.8476601z
			 M9.4531202-7.0410199c0,0.2539067,0.0862637,0.46387,0.25879,0.62989
			c0.1725264,0.1660132,0.3922567,0.2490201,0.6591902,0.2490201H14.0625v3.70117
			c0,0.2669265,0.0830002,0.4850265,0.2489996,0.6542999c0.1660004,0.1692734,0.375967,0.2539101,0.6299,0.2539101
			c0.2734671,0,0.4948339-0.0846367,0.6641006-0.2539101c0.1692657-0.1692734,0.2539005-0.3873733,0.2538996-0.6542999v-3.70117
			h3.7010994c0.2669334,0,0.485033-0.0830069,0.6543007-0.2490201c0.1693325-0.1660199,0.2539997-0.3759832,0.2539997-0.62989
			c0-0.2734332-0.0846672-0.4947867-0.2539997-0.6640601c-0.1692677-0.1692662-0.3873672-0.2539001-0.6543007-0.2539001h-3.7010994
			v-3.6914201c0.000001-0.2734003-0.0846338-0.4947672-0.2538996-0.6640997
			c-0.1692667-0.1692677-0.3906336-0.2539005-0.6641006-0.2539005c-0.253933,0-0.4638996,0.0862675-0.6299,0.2588005
			c-0.1659994,0.172533-0.2489996,0.3922672-0.2489996,0.6591997v3.6914201h-3.6913996
			c-0.2734404,0-0.4947968,0.0846338-0.6640701,0.2539001C9.5377569-7.5358067,9.4531202-7.3144531,9.4531202-7.0410199z"/>
	</g>
	<text transform="matrix(1 0 0 1 263 1953)" font-family="'SFProDisplay-Bold'" font-size="13px">Design Variations</text>
	<text transform="matrix(1 0 0 1 263 1971)" font-family="'SFProDisplay-Regular'" font-size="13px">Symbols are supported in up to nine weights and three scales.</text>
	<text transform="matrix(1 0 0 1 263 1989)" font-family="'SFProDisplay-Regular'" font-size="13px">For optimal layout with text and other symbols, vertically align</text>
	<text transform="matrix(1 0 0 1 263 2007)" font-family="'SFProDisplay-Regular'" font-size="13px">symbols with the adjacent text.</text>
	<line fill="none" stroke="#00AEEF" stroke-width="0.5" x1="776" y1="1919" x2="776" y2="1933"/>
	<g transform="matrix(1 0 0 1 776 1933)">
		<path d="M3.31055,0.15625c0.2604132,0,0.4622364-0.0553385,0.6054699-0.1660156
			C4.0592465-0.1204425,4.1764331-0.3125,4.26758-0.585938l1.2597599-3.4472618h5.7617598l1.2597008,3.4472618
			c0.0911331,0.273438,0.208333,0.4654954,0.3515997,0.5761724c0.143199,0.1106771,0.3417673,0.1660156,0.5957003,0.1660156
			c0.2603998,0,0.4670992-0.0716146,0.6201-0.2148438c0.1529999-0.1432295,0.2294998-0.3385418,0.2294998-0.5859372
			c0-0.14974-0.035799-0.325523-0.1073999-0.527349L9.6582003-13.3690996
			c-0.1171875-0.2995338-0.2766895-0.524168-0.4785099-0.6739006c-0.201827-0.1497335-0.4589901-0.2245998-0.7714901-0.2245998
			c-0.6054673,0-1.0156236,0.2962332-1.2304702,0.8887005L2.5976601-1.16211c-0.07162,0.2018234-0.10743,0.3776046-0.10743,0.527344
			c0,0.247396,0.0732434,0.441081,0.2197299,0.5810551S3.0566432,0.15625,3.31055,0.15625z M6.0058599-5.51758l2.3730502-6.5722198
			h0.0488195L10.8008003-5.51758H6.0058599z"/>
	</g>
	<line fill="none" stroke="#00AEEF" stroke-width="0.5" x1="793.1970215" y1="1919" x2="793.1970215" y2="1933"/>
	<text transform="matrix(1 0 0 1 776 1953)" font-family="'SFProDisplay-Bold'" font-size="13px">Margins</text>
	<text transform="matrix(1 0 0 1 776 1971)" font-family="'SFProDisplay-Regular'" font-size="13px">Leading and trailing margins on the left and right side of each symbol</text>
	<text transform="matrix(1 0 0 1 776 1989)" font-family="'SFProDisplay-Regular'" font-size="13px">can be adjusted by modifying the x-location of the margin guidelines.</text>
	<text transform="matrix(1 0 0 1 776 2007)" font-family="'SFProDisplay-Regular'" font-size="13px">Modifications are automatically applied proportionally to all</text>
	<text transform="matrix(1 0 0 1 776 2025)" font-family="'SFProDisplay-Regular'" font-size="13px">scales and weights.</text>
	<g transform="matrix(1 0 0 1 1289 1933)">
		<path d="M2.8418,1.86523l1.6992199,1.70899c0.429687,0.4361999,0.8837867,0.6380236,1.3622999,0.6054699
			c0.4785137-0.0325532,0.9488897-0.30599,1.41113-0.8203099L18.0077991-8.4277296l-0.9667988-0.9765701L6.4257798,2.2753899
			C6.25,2.47721,6.0725899,2.5911434,5.8935499,2.6171899c-0.1790328,0.0260401-0.3857369-0.0781267-0.62011-0.3125
			L4.1015601,1.14258c-0.2343733-0.234376-0.33691-0.4410824-0.30761-0.620119
			c0.0292933-0.1790367,0.14485-0.3597007,0.3466702-0.5419922L15.6152-10.8203001l-0.9765005-0.9667997L3.04688-0.898438
			C2.5520866-0.4427086,2.2867866,0.0227863,2.2509799,0.498047C2.2151732,0.973309,2.4121132,1.4290366,2.8418,1.86523z
			 M9.2578096-16.3281002C9.0494766-16.1262989,8.9322901-15.8951998,8.90625-15.6348
			c-0.0260401,0.2604666,0.0195341,0.4883337,0.1367197,0.6836004c0.1171865,0.182333,0.288084,0.319066,0.5126905,0.4101992
			c0.2246132,0.0911331,0.4996939,0.0976334,0.8252401,0.0195007c0.7291336-0.1692667,1.4680653-0.239234,2.2167997-0.2098999
			c0.7486668,0.0292664,1.4810667,0.2782669,2.1971998,0.7469997l-0.5859003,1.4551001
			c-0.1692657,0.416667-0.216466,0.7796326-0.1415997,1.0888996c0.0748663,0.3092003,0.2457666,0.6005335,0.5127001,0.8740005
			L16.875-8.2519503c0.2408657,0.2473936,0.4752331,0.3906202,0.7031002,0.4296803
			c0.2278671,0.0390668,0.4817677,0.0325565,0.7616997-0.0195303l1.0645008-0.1953101l0.6640987,0.6738305l-0.0390987,0.5566397
			c-0.0195332,0.2473936,0.0114002,0.4752569,0.0928001,0.6835899c0.0813332,0.2083335,0.242466,0.4329433,0.4833984,0.67383
			l0.7617016,0.7421904c0.2408676,0.2408867,0.5028992,0.3662133,0.7860985,0.3759799
			c0.2832012,0.0097599,0.5419998-0.1025472,0.7764015-0.3369203l2.910099-2.91992
			c0.2344017-0.2343731,0.3483334-0.4899068,0.3418007-0.7666001c-0.0064678-0.2766933-0.1301689-0.5354834-0.3711014-0.77637
			L25.0391006-9.89258c-0.2343998-0.24088-0.454134-0.4052534-0.6592007-0.4931202
			c-0.2050667-0.0879335-0.4280663-0.1221333-0.6690006-0.1026001L23.1348-10.4394999L22.4902-11.0741997L22.7343998-12.1973
			c0.0650673-0.2799339,0.0520325-0.5419664-0.0391006-0.7861004s-0.2831993-0.5127001-0.5761986-0.8056993l-2.1972008-2.1875
			c-0.8333321-0.8268003-1.7203999-1.4469004-2.6611996-1.860301c-0.940733-0.4133987-1.8880005-0.628233-2.8418007-0.6444988
			c-0.9537325-0.0163326-1.8716993,0.1578007-2.7538996,0.5223999C10.7828665-17.5944004,9.9804697-17.050766,9.2578096-16.3281002z
			 M10.7519999-15.9569998c0.6054668-0.4427328,1.2548666-0.7585001,1.9482002-0.9473009
			c0.6933327-0.1887989,1.3948326-0.249033,2.1044998-0.1806984c0.7096004,0.0683994,1.3980665,0.2588329,2.0654001,0.5712986
			c0.6673317,0.3125343,1.2776985,0.7487326,1.8311005,1.3086004l2.4315987,2.4120998
			c0.1172009,0.1171999,0.1904335,0.2311335,0.2197018,0.3418007c0.0293331,0.1106663,0.0244656,0.2506657-0.0146008,0.4199991
			l-0.3223,1.4843006L22.5195007-9.0625l0.9863987-0.0585899c0.1236687-0.0065136,0.2180691,0.0016232,0.2832012,0.0244102
			c0.0650654,0.0227861,0.146431,0.0830069,0.2440987,0.1806593l0.5762005,0.5761805l-2.4414005,2.4414001l-0.5761986-0.57617
			C21.494133-6.5722632,21.4322662-6.6536431,21.4062004-6.71875c-0.0259991-0.0651069-0.0357323-0.1627636-0.0291996-0.2929702
			l0.0682983-0.9765596l-1.4940987-1.4843802L18.4277-9.21875c-0.1627331,0.0325537-0.2912998,0.0374365-0.3857002,0.0146503
			c-0.0944004-0.0227871-0.2034664-0.0927744-0.3271999-0.20996l-2.0018997-2.0019407
			c-0.1302004-0.1171999-0.203433-0.2294998-0.2196999-0.3368998c-0.0162668-0.1074667,0.0146322-0.2523336,0.0927-0.4345999
			l0.8788996-2.0897999c-0.7811995-0.7292004-1.6601-1.2337675-2.6366997-1.5137005
			c-0.9765329-0.279932-1.9726343-0.2701664-2.9883003,0.0293007c-0.0780659,0.0195322-0.1285,0.0048666-0.1512995-0.0440006
			C10.6657-15.8544998,10.6868668-15.904933,10.7519999-15.9569998z"/>
	</g>
	<text transform="matrix(1 0 0 1 1289 1953)" font-family="'SFProDisplay-Bold'" font-size="13px">Exporting</text>
	<text transform="matrix(1 0 0 1 1289 1971)" font-family="'SFProDisplay-Regular'" font-size="13px">Symbols should be outlined when exporting to ensure the</text>
	<text transform="matrix(1 0 0 1 1289 1989)" font-family="'SFProDisplay-Regular'" font-size="13px">design is preserved when submitting to Xcode.</text>
	
		<text id="template-version" transform="matrix(1 0 0 1 2956.4257812 1933)" font-family="'SFProDisplay-Regular'" font-size="13px">Template v.3.0</text>
	<text transform="matrix(1 0 0 1 2880.0063477 1951)" font-family="'SFProDisplay-Regular'" font-size="13px">Requires Xcode 13 or greater</text>
	
		<text id="descriptive-name" transform="matrix(1 0 0 1 2889.3754883 1969)" font-family="'SFProDisplay-Regular'" font-size="13px">Generated from trash.circle</text>
	<text transform="matrix(1 0 0 1 2919.7490234 1987)" font-family="'SFProDisplay-Regular'" font-size="13px">Typeset at 100 points</text>
	<text transform="matrix(1 0 0 1 263 726)" font-family="'SFProDisplay-Regular'" font-size="13px">Small</text>
	<text transform="matrix(1 0 0 1 263 1156)" font-family="'SFProDisplay-Regular'" font-size="13px">Medium</text>
	<text transform="matrix(1 0 0 1 263 1586)" font-family="'SFProDisplay-Regular'" font-size="13px">Large</text>
</g>
<g id="Guides">
	<g id="H-reference" transform="matrix(1 0 0 1 339 696)">
		<path fill="#27AAE1" d="M0.976562,0h2.6855481l25.6835899-67.1387024h0.6836014v-3.3202972H28.125L0.976562,0z
			 M11.6698999-24.4629002h35.3027992L46.2402-26.7089996H12.4511995L11.6698999-24.4629002z M55.1269989,0h2.6366997
			L30.6152-70.4589996h-1.1718006v3.3202972L55.1269989,0z"/>
	</g>
	<line id="Baseline-S" fill="none" stroke="#27AAE1" stroke-width="0.5" x1="263" y1="696" x2="3036" y2="696"/>
	<line id="Capline-S" fill="none" stroke="#27AAE1" stroke-width="0.5" x1="263" y1="625.5410156" x2="3036" y2="625.5410156"/>
	<g id="H-reference_1_" transform="matrix(1 0 0 1 339 1126)">
		<path fill="#27AAE1" d="M0.976562,0h2.6855481l25.6835899-67.1387024h0.6836014v-3.3202972H28.125L0.976562,0z
			 M11.6698999-24.4629002h35.3027992L46.2402-26.7089996H12.4511995L11.6698999-24.4629002z M55.1269989,0h2.6366997
			L30.6152-70.4589996h-1.1718006v3.3202972L55.1269989,0z"/>
	</g>
	<line id="Baseline-M" fill="none" stroke="#27AAE1" stroke-width="0.5" x1="263" y1="1126" x2="3036" y2="1126"/>
	<line id="Capline-M" fill="none" stroke="#27AAE1" stroke-width="0.5" x1="263" y1="1055.5400391" x2="3036" y2="1055.5400391"/>
	<g id="H-reference_2_" transform="matrix(1 0 0 1 339 1556)">
		<path fill="#27AAE1" d="M0.976562,0h2.6855481l25.6835899-67.1387024h0.6836014v-3.3202972H28.125L0.976562,0z
			 M11.6698999-24.4629002h35.3027992L46.2402-26.7089996H12.4511995L11.6698999-24.4629002z M55.1269989,0h2.6366997
			L30.6152-70.4589996h-1.1718006v3.3202972L55.1269989,0z"/>
	</g>
	<line id="Baseline-L" fill="none" stroke="#27AAE1" stroke-width="0.5" x1="263" y1="1556" x2="3036" y2="1556"/>
	<line id="Capline-L" fill="none" stroke="#27AAE1" stroke-width="0.5" x1="263" y1="1485.5400391" x2="3036" y2="1485.5400391"/>
	
		<line id="left-margin-Ultralight-S" fill="none" stroke="#00AEEF" stroke-width="0.5" x1="505.9113464" y1="600.7849731" x2="505.9113464" y2="720.1209717"/>
	
		<line id="right-margin-Ultralight-S" fill="none" stroke="#00AEEF" stroke-width="0.5" x1="614.848999" y1="600.7849731" x2="614.848999" y2="720.1209717"/>
	
		<line id="left-margin-Regular-S" fill="none" stroke="#00AEEF" stroke-width="0.5" x1="1395.1190186" y1="600.7849731" x2="1395.1190186" y2="720.1209717"/>
	
		<line id="right-margin-Regular-S" fill="none" stroke="#00AEEF" stroke-width="0.5" x1="1505.9857178" y1="600.7849731" x2="1505.9857178" y2="720.1209717"/>
	
		<line id="left-margin-Black-S" fill="none" stroke="#00AEEF" stroke-width="0.5" x1="2874.1794434" y1="600.7849731" x2="2874.1794434" y2="720.1209717"/>
	
		<line id="right-margin-Black-S" fill="none" stroke="#00AEEF" stroke-width="0.5" x1="2994.1201172" y1="600.7849731" x2="2994.1201172" y2="720.1209717"/>
</g>
<g id="Symbols">
	<g id="Black-S">
		<path d="M2925.5383301,692.8588867L2925.5383301,692.8588867c16.2856445-1.6027222,28.645752-11.5859375,27.5727539-22.2890015
			c-1.0458984-10.6895142-15.1174316-18.0648193-31.4165039-16.4485474
			c-16.2856445,1.616333-28.645752,11.5859985-27.5861816,22.2890625
			C2895.1677246,687.0998535,2909.2392578,694.4752197,2925.5383301,692.8588867z M2958.1230469,657.3404541
			L2958.1230469,657.3404541c5.6503906,1.7521362,11.9389648,5.9899292,11.9255371,13.4603271
			c0,12.3465576-17.8068848,27.8986206-44.578125,27.8986206c-20.4145508,0-41.2910156-9.9016724-41.2910156-26.173645
			c0-8.5162964,5.392334-18.3636475,14.6691895-27.640564c12.4008789-12.4008789,26.8664551-18.0512695,32.2993164-12.6046143
			c2.390625,2.4041138,2.621582,6.546814,1.0866699,11.5044556c-0.8149414,2.4855957,2.3361816,1.1137695,2.3361816,1.1137695
			c10.0239258-4.1970215,18.7712402-4.4415283,21.9631348,0.1222534c1.7114258,2.4448242,1.5483398,5.8540649-0.0273438,9.8065796
			C2955.7868652,656.6477051,2956.7375488,656.9193726,2958.1230469,657.3404541z"/>
		<path d="M2975.9025879,627.553833L2975.9025879,627.553833c6.465332,7.15802,8.2175293,16.9238892,5.4467773,25.4673462v0.0135498
			c-0.6384277,1.9694824-2.7573242,3.0560913-4.7404785,2.4177246c-1.9829102-0.6383667-3.0695801-2.7572632-2.4311523-4.7402954
			l0,0c1.9694824-6.085022,0.7197266-13.0256958-3.8710938-18.1192017
			c-4.5908203-5.0934448-11.3686523-7.0357666-17.630127-5.7046509c-2.0375977,0.4346313-4.0341797-0.8557129-4.46875-2.8931274
			c-0.4345703-2.0238037,0.8557129-4.0339966,2.8930664-4.468689l0,0
			C2959.9023438,617.6520996,2969.4372559,620.3822021,2975.9025879,627.553833z"/>
		<path d="M2965.973877,636.5183105L2965.973877,636.5183105c3.151123,3.4907227,3.9931641,8.2446289,2.6484375,12.4144897
			c-0.5568848,1.7114258-2.3769531,2.6350098-4.0883789,2.0917358c-1.7114258-0.5568848-2.6350098-2.390564-2.0915527-4.0883789l0,0
			c0.6655273-2.0373535,0.2443848-4.3599854-1.2905273-6.0714111c-1.534668-1.6978149-3.8166504-2.3497925-5.9082031-1.9015503l0,0
			c-1.7387695,0.3803101-3.463623-0.7334595-3.8439941-2.4855957c-0.3666992-1.7521973,0.7470703-3.4907227,2.4992676-3.8574829
			C2958.1772461,631.6965332,2962.8225098,633.0275879,2965.973877,636.5183105z"/>
		<path d="M2926.4348145,673.4901123L2926.4348145,673.4901123c0.543457-0.9915161,0.1901855-2.0916748-0.7878418-2.4448242
			c-0.9643555-0.3803101-2.1730957,0.0814819-2.7436523,1.0322266c-0.5568848,0.9508057-0.2580566,2.0510254,0.7199707,2.4448853
			C2924.6013184,674.9298706,2925.864502,674.4680786,2926.4348145,673.4901123z M2921.232666,680.1455688L2921.232666,680.1455688
			c1.548584-2.539917,0.7336426-5.4329834-1.8200684-6.5332031c-2.5263672-1.0594482-5.7861328,0.0271606-7.3481445,2.4720459
			c-1.5754395,2.4584351-0.8286133,5.3787231,1.6706543,6.5196533
			C2916.2751465,683.7585449,2919.6572266,682.6583862,2921.232666,680.1455688z M2927.1547852,662.352417L2927.1547852,662.352417
			c8.0273438,2.078125,12.1291504,9.6436157,8.8422852,17.0053711c-3.3278809,7.5111694-12.8898926,11.5316162-21.012207,8.9102173
			c-7.8237305-2.5263672-11.1513672-10.2684326-7.7150879-17.2363281
			C2910.6384277,664.199646,2919.3991699,660.3286133,2927.1547852,662.352417z"/>
	</g>
	<g id="Regular-S">
		<path d="M1442.7229004,689.8989258L1442.7229004,689.8989258c14.8068848-1.4572144,26.0447998-10.5340576,25.0692139-20.2653198
			c-0.9509277-9.7189941-13.744873-16.4246826-28.5640869-14.9551392
			c-14.8068848,1.4696045-26.0447998,10.5340576-25.081543,20.2653809
			C1415.1097412,684.6627808,1427.9036865,691.3684692,1442.7229004,689.8989258z M1472.348999,657.6052856L1472.348999,657.6052856
			c5.1373291,1.5930786,10.8551025,5.446106,10.8427734,12.2382202c0,11.2255859-16.1899414,25.3656006-40.5306396,25.3656006
			c-18.5610352,0-37.5421143-9.0026855-37.5421143-23.7971802c0-7.743103,4.90271-16.6963501,13.3374023-25.1309814
			c11.2749023-11.2750244,24.427002-16.4123535,29.3668213-11.4602661c2.1734619,2.1858521,2.3834229,5.9524536,0.987915,10.4599609
			c-0.7409668,2.2599487,2.1240234,1.0126343,2.1240234,1.0126343c9.1138916-3.815979,17.0668945-4.038269,19.9689941,0.111145
			c1.5560303,2.2229004,1.4078369,5.3225708-0.0246582,8.9162598
			C1470.2249756,656.9754639,1471.0893555,657.2224731,1472.348999,657.6052856z"/>
		<path d="M1488.5144043,630.5231323L1488.5144043,630.5231323c5.8782959,6.5081177,7.4713135,15.3873291,4.9520264,23.1550903
			v0.0123291c-0.5803223,1.7906494-2.5068359,2.7786255-4.3099365,2.1981812
			c-1.8029785-0.5804443-2.7908936-2.506897-2.2104492-4.3099365l0,0c1.7906494-5.5325317,0.654541-11.8430176-3.5196533-16.4740601
			c-4.1740723-4.6309814-10.3364258-6.3969727-16.0294189-5.1867065c-1.852417,0.3951416-3.6677246-0.7780151-4.0629883-2.6304321
			c-0.3951416-1.8400879,0.7780762-3.6677856,2.6304932-4.0629272l0,0
			C1473.9667969,621.5204468,1482.6361084,624.0026245,1488.5144043,630.5231323z"/>
		<path d="M1479.4869385,638.6737061L1479.4869385,638.6737061c2.8651123,3.1737671,3.6307373,7.4960938,2.4082031,11.2873535
			c-0.5063477,1.5559692-2.1611328,2.395752-3.7171631,1.9017944c-1.5560303-0.5063477-2.395752-2.1735229-1.9018555-3.7171631l0,0
			c0.6051025-1.852417,0.22229-3.9641724-1.1732178-5.5202026c-1.3953857-1.5436401-3.4700928-2.1364136-5.3719482-1.7288818l0,0
			c-1.5806885,0.3457642-3.1490479-0.6668701-3.494873-2.2599487c-0.333374-1.5930786,0.6791992-3.1737671,2.2723389-3.5072021
			C1472.3984375,634.2896729,1476.6219482,635.499939,1479.4869385,638.6737061z"/>
		<path d="M1443.5379639,672.2886963L1443.5379639,672.2886963c0.4940186-0.9014893,0.1728516-1.9017944-0.7163086-2.2229004
			c-0.876709-0.3457642-1.9758301,0.0740967-2.4945068,0.9385986c-0.5063477,0.8644409-0.2346191,1.8647461,0.654541,2.2228394
			C1441.8708496,673.5977173,1443.0192871,673.1778564,1443.5379639,672.2886963z M1438.8081055,678.3399048
			L1438.8081055,678.3399048c1.4078369-2.3093262,0.6668701-4.9397583-1.6547852-5.9400635
			c-2.2969971-0.9632568-5.2608643,0.0247192-6.6810303,2.2476196c-1.4324951,2.2352295-0.7532959,4.8903198,1.519043,5.9276733
			C1434.3006592,681.6248169,1437.3756104,680.6245117,1438.8081055,678.3399048z M1444.1925049,662.1622314
			L1444.1925049,662.1622314c7.2984619,1.8894653,11.0279541,8.7680664,8.0394287,15.4614258
			c-3.0256348,6.8291626-11.7196045,10.4846191-19.1044922,8.1011353
			c-7.1132812-2.296936-10.1387939-9.3361206-7.0144043-15.6713257
			C1429.1756592,663.8417358,1437.1409912,660.3221436,1444.1925049,662.1622314z"/>
	</g>
	<g id="Ultralight-S">
		<path d="M552.7169189,688.842041L552.7169189,688.842041c14.4925537-1.4263306,25.4918823-10.3104248,24.5369873-19.835144
			c-0.9306641-9.5126343-13.453064-16.0759888-27.9577026-14.6375732
			c-14.4925537,1.4383545-25.4918823,10.3103638-24.5491333,19.835083
			C525.6898804,683.717041,538.2122803,690.2803955,552.7169189,688.842041z M581.7141113,657.2340088L581.7141113,657.2340088
			c5.0282593,1.5592041,10.6246338,5.3304443,10.6125488,11.9783936c0,10.9872437-15.8463135,24.8271484-39.6702271,24.8271484
			c-18.1670532,0-36.7450562-8.8115845-36.7450562-23.2920532c0-7.5786743,4.798584-16.3419189,13.0541382-24.5974731
			c11.0356445-11.0356445,23.9085083-16.0639038,28.7434082-11.2169189c2.1273193,2.1394043,2.3328247,5.8259888,0.96698,10.237854
			c-0.7252197,2.2119751,2.0789795,0.9911499,2.0789795,0.9911499c8.9203491-3.7349854,16.7045288-3.9525146,19.5450439,0.1087646
			c1.5229492,2.1757202,1.3779297,5.2095947-0.0241699,8.7269897
			C579.6351318,656.6175537,580.4812012,656.8592529,581.7141113,657.2340088z"/>
		<path d="M597.5362549,630.7267456L597.5362549,630.7267456c5.75354,6.3699341,7.3127441,15.0606689,4.8469849,22.6635132v0.012085
			c-0.5681152,1.7526245-2.4536743,2.7196045-4.2184448,2.1514893c-1.7647095-0.5680542-2.7316895-2.4536743-2.1635742-4.2183838
			l0,0c1.7526245-5.4151001,0.640564-11.5916748-3.4448853-16.1243896
			c-4.0854492-4.5326538-10.1170044-6.2611694-15.689209-5.0765991c-1.8130493,0.3867798-3.5899048-0.7614746-3.9766846-2.574585
			c-0.3867798-1.8009644,0.7614746-3.5899048,2.574585-3.9766846l0,0
			C583.2975464,621.9151611,591.7827759,624.3446655,597.5362549,630.7267456z"/>
		<path d="M588.7005005,638.7042847L588.7005005,638.7042847c2.8042603,3.1064453,3.5536499,7.3369141,2.3569946,11.0477295
			c-0.4955444,1.5229492-2.1152344,2.3449097-3.6382446,1.8613892c-1.5229492-0.4955444-2.3449097-2.1273193-1.8613892-3.6382446
			l0,0c0.5922852-1.8130493,0.2175293-3.8799438-1.1483154-5.4029541c-1.3658447-1.5109253-3.3964844-2.0910645-5.2579346-1.6921997
			l0,0c-1.5471802,0.3384399-3.0822144-0.65271-3.4206543-2.2119751c-0.326355-1.5592651,0.6647949-3.1063843,2.2240601-3.4327393
			C581.7624512,634.4133301,585.8963013,635.5979004,588.7005005,638.7042847z"/>
		<path d="M553.5146484,671.6056519L553.5146484,671.6056519c0.4835205-0.8823242,0.1692505-1.8613892-0.7010498-2.1756592
			c-0.8582153-0.3384399-1.93396,0.0725098-2.4415894,0.9185791c-0.4956055,0.8461304-0.2296753,1.8251953,0.640564,2.1757202
			C551.8828735,672.8869019,553.007019,672.4759521,553.5146484,671.6056519z M548.8852539,677.5283813L548.8852539,677.5283813
			c1.3779297-2.2603149,0.65271-4.8348389-1.6196899-5.8139038c-2.24823-0.9428101-5.1491699,0.0241699-6.5391846,2.1998291
			c-1.4020996,2.1878052-0.7373047,4.7865601,1.4867554,5.8018799
			C544.4734497,680.7435913,547.4831543,679.7645264,548.8852539,677.5283813z M554.1552734,661.6941528L554.1552734,661.6941528
			c7.1435547,1.8493652,10.7938843,8.5819092,7.8687744,15.1331787
			c-2.9613647,6.6842651-11.4707642,10.2620239-18.6989136,7.9291992c-6.9622192-2.2481689-9.923584-9.1379395-6.8655396-15.338623
			C539.4572144,663.3380127,547.253479,659.8931885,554.1552734,661.6941528z"/>
	</g>
</g>
</svg>
