<?xml version="1.0" encoding="utf-8"?>
<!-- Generator: Adobe Illustrator 25.2.3, SVG Export Plug-In . SVG Version: 6.00 Build 0)  -->
<svg version="1.1" id="Layer_1" xmlns="http://www.w3.org/2000/svg" xmlns:xlink="http://www.w3.org/1999/xlink" x="0px" y="0px"
	 viewBox="0 0 3300 2200" enable-background="new 0 0 3300 2200" xml:space="preserve">
<g id="Notes">
	<rect id="artboard" y="0" fill="#FFFFFF" width="3300" height="2200"/>
	<line fill="none" stroke="#000000" stroke-width="0.5" x1="263" y1="292" x2="3036" y2="292"/>
	<text transform="matrix(1 0 0 1 263 321.999939)" font-family="'SFProDisplay-Bold'" font-size="13px">Weight/Scale Variations</text>
	<text transform="matrix(1 0 0 1 535.0122681 321.999939)" font-family="'SFProDisplay-Regular'" font-size="13px">Ultralight</text>
	<text transform="matrix(1 0 0 1 844.3900146 321.999939)" font-family="'SFProDisplay-Regular'" font-size="13px">Thin</text>
	<text transform="matrix(1 0 0 1 1139.3619385 321.999939)" font-family="'SFProDisplay-Regular'" font-size="13px">Light</text>
	<text transform="matrix(1 0 0 1 1429.0291748 321.999939)" font-family="'SFProDisplay-Regular'" font-size="13px">Regular</text>
	<text transform="matrix(1 0 0 1 1724.2575684 321.999939)" font-family="'SFProDisplay-Regular'" font-size="13px">Medium</text>
	<text transform="matrix(1 0 0 1 2017.5556641 321.999939)" font-family="'SFProDisplay-Regular'" font-size="13px">Semibold</text>
	<text transform="matrix(1 0 0 1 2327.6750488 321.999939)" font-family="'SFProDisplay-Regular'" font-size="13px">Bold</text>
	<text transform="matrix(1 0 0 1 2619.2561035 321.999939)" font-family="'SFProDisplay-Regular'" font-size="13px">Heavy</text>
	<text transform="matrix(1 0 0 1 2918.4702148 321.999939)" font-family="'SFProDisplay-Regular'" font-size="13px">Black</text>
	<line fill="none" stroke="#000000" stroke-width="0.5" x1="263" y1="1903" x2="3036" y2="1903"/>
	<g transform="matrix(1 0 0 1 263 1933)">
		<path d="M9.2480497,0.830078C10.3287497,0.8300779,11.344367,0.625,12.2948999,0.214844
			c0.9505339-0.4101567,1.7887669-0.979818,2.5146999-1.708984c0.7258663-0.7291666,1.2955332-1.5690097,1.7090006-2.5195298
			c0.4134007-0.95052,0.6201-1.9628901,0.6201-3.0371099s-0.2066994-2.0865941-0.6201-3.0371203
			c-0.4134674-0.9505329-0.984767-1.7903662-1.7139006-2.5194998c-0.7291994-0.7292004-1.5690327-1.2988663-2.5194998-1.7089996
			c-0.9505339-0.4101334-1.9661732-0.6152-3.0469198-0.6152c-1.0742207,0-2.0865903,0.2050667-3.0371103,0.6152
			s-1.7871065,0.9797993-2.5097599,1.7089996C2.96875-11.8782663,2.4007132-11.0384331,1.9873-10.0879002
			C1.5738934-9.1373739,1.36719-8.125,1.36719-7.0507798S1.5738934-4.96419,1.9873-4.01367
			C2.4007132-3.0631497,2.9703767-2.2233067,3.69629-1.49414s1.5641298,1.2988274,2.5146499,1.708984
			C7.1614604,0.625,8.17383,0.8300779,9.2480497,0.830078z M9.2480497-0.654297c-0.8854198,0-1.71387-0.1643876-2.4853497-0.493163
			c-0.7714868-0.3287734-1.4485698-0.78613-2.03125-1.3720701C4.1487632-3.1054699,3.6930332-3.7858098,3.36426-4.5605502
			c-0.3287802-0.7747402-0.49317-1.6048164-0.49317-2.4902296c0-0.8854198,0.1627634-1.7155004,0.4882901-2.4902406
			c0.32552-0.7747192,0.7796199-1.4550467,1.3623002-2.0409794c0.5826797-0.5859337,1.2597632-1.0433006,2.03125-1.3720999
			C7.5244164-13.2829008,8.3528671-13.4473,9.2382803-13.4473c0.8919458,0,1.7236528,0.1643991,2.49512,0.4932003
			c0.7714672,0.3287992,1.4501667,0.7861662,2.0360994,1.3720999c0.5859337,0.5859327,1.0449333,1.2662601,1.3769999,2.0409794
			c0.3320007,0.7747402,0.4980001,1.6048207,0.4980001,2.4902406c0,0.8854132-0.1643667,1.7154894-0.4931002,2.4902296
			c-0.3287992,0.7747405-0.7845325,1.4550803-1.3671999,2.0410202c-0.5826664,0.5859401-1.2613993,1.0432967-2.0361996,1.3720701
			C10.9732666-0.8186846,10.1399498-0.654297,9.2480497-0.654297z M5.8398399-7.0410199
			c0,0.2148466,0.0683599,0.3890028,0.20508,0.52247c0.1367202,0.13346,0.3190136,0.2001901,0.5468802,0.2001901h1.9140601v1.92383
			c0,0.2213535,0.0667295,0.4003899,0.2001896,0.5371099c0.1334667,0.1367199,0.3076229,0.20508,0.5224705,0.20508
			c0.2213535,0,0.4003859-0.0683601,0.5370998-0.20508c0.1367197-0.1367199,0.20508-0.3157563,0.20508-0.5371099v-1.92383h1.9237995
			c0.2213993,0,0.4004335-0.06673,0.5370998-0.2001901c0.1367331-0.1334672,0.2051001-0.3076234,0.2051001-0.52247
			c0-0.2213535-0.068367-0.4003868-0.2051001-0.5371003c-0.1366663-0.1367197-0.3157005-0.2050796-0.5370998-0.2050796H9.9707003
			v-1.9140706c0-0.2278862-0.0683603-0.4101629-0.20508-0.5468292c-0.136714-0.1367331-0.3157463-0.2051001-0.5370998-0.2051001
			c-0.2148476,0-0.3890038,0.068367-0.5224705,0.2051001c-0.13346,0.1366663-0.2001896,0.318943-0.2001896,0.5468292v1.9140706
			H6.5918002c-0.2278666,0-0.4101601,0.0683599-0.5468802,0.2050796C5.9081998-7.4414067,5.8398399-7.2623734,5.8398399-7.0410199z"
			/>
	</g>
	<g transform="matrix(1 0 0 1 281.867 1933)">
		<path d="M11.7089996,2.9101601c1.3606672,0,2.6416006-0.2604167,3.8428001-0.78125
			c1.2011337-0.5208334,2.2607002-1.2402358,3.1786995-2.1582069c0.9179344-0.9179688,1.6373348-1.9775398,2.1582012-3.1787131
			c0.5207996-1.2011731,0.7812004-2.4820969,0.7812004-3.8427699c0-1.3606801-0.2604008-2.6416202-0.7812004-3.8428206
			c-0.5208664-1.2011337-1.2402668-2.2606993-2.1582012-3.1786995c-0.9179993-0.9179335-1.9792004-1.6373329-3.1835995-2.1581993
			c-1.2044668-0.5207996-2.4870329-0.7812004-3.8477001-0.7812004s-2.6415825,0.2604008-3.8427491,0.7812004
			c-1.2011733,0.5208664-2.2591166,1.2402658-3.17383,2.1581993c-0.9147131,0.9180002-1.6324866,1.9775658-2.1533201,3.1786995
			C2.0084672-9.6924,1.7480505-8.4114599,1.7480503-7.0507798C1.7480505-5.6901069,2.0084672-4.409183,2.5293005-3.20801
			s1.2402332,2.2607443,2.1582,3.1787131c0.9179664,0.9179712,1.9775367,1.6373736,3.17871,2.1582069
			S10.3483133,2.9101601,11.7089996,2.9101601z M11.7089996,1.25c-1.1523533,0-2.2298326-0.2148436-3.23244-0.644531
			C7.4739599,0.1757813,6.5934277-0.418295,5.8349605-1.17676c-0.75846-0.7584602-1.3509068-1.6389933-1.7773399-2.6416001
			S3.4179704-5.8984399,3.4179704-7.0507798c0-1.1523461,0.2132168-2.2298207,0.6396501-3.2324204
			s1.0172534-1.8847656,1.77246-2.6464996c0.7552066-0.7617331,1.6341133-1.3557997,2.6367192-1.7821999
			c1.0025997-0.4264669,2.0800667-0.6396999,3.2323999-0.6396999s2.2298002,0.213233,3.2323999,0.6396999
			c1.0025997,0.4264002,1.8847666,1.0204668,2.6465006,1.7821999c0.761734,0.761734,1.3574333,1.6438999,1.7870998,2.6464996
			C19.7949333-9.2806005,20.0098-8.203126,20.0098-7.0507798c0,1.1523399-0.213232,2.2298131-0.6396999,3.2324197
			c-0.4263992,1.0026069-1.0188332,1.88314-1.7772999,2.6416001c-0.7584667,0.7584649-1.6406336,1.3525413-2.6465006,1.7822289
			S12.8613329,1.25,11.7089996,1.25z M7.3925805-7.0410199c0,0.2343798,0.0781231,0.4264402,0.2343698,0.57618
			C7.7832036-6.3151002,7.9850273-6.2402301,8.23242-6.2402301h2.6464796v2.6660101
			c0,0.2408867,0.0748663,0.4378266,0.2246008,0.5908198c0.1497335,0.1529932,0.3417997,0.22949,0.5761995,0.22949
			c0.2474003,0,0.449234-0.0764968,0.6055002-0.22949c0.1561995-0.1529932,0.2342997-0.3499331,0.2342997-0.5908198v-2.6660101
			h2.6563005c0.2408667,0,0.4394331-0.0748701,0.5956993-0.2246099s0.2343998-0.3418002,0.2343998-0.57618
			c0-0.2473936-0.0781336-0.447587-0.2343998-0.6005802s-0.3548326-0.2294898-0.5956993-0.2294898h-2.6563005v-2.6465101
			c0-0.2538662-0.0781002-0.4573002-0.2342997-0.6103001c-0.1562662-0.1529999-0.3580999-0.2294998-0.6055002-0.2294998
			c-0.2343998,0-0.426466,0.0764999-0.5761995,0.2294998c-0.1497345,0.1529999-0.2246008,0.3564339-0.2246008,0.6103001v2.6465101
			H8.23242c-0.2539062,0-0.4573565,0.0764966-0.6103497,0.2294898S7.3925805-7.2884135,7.3925805-7.0410199z"/>
	</g>
	<g transform="matrix(1 0 0 1 305.646 1933)">
		<path d="M14.9707003,5.6640601c1.393199,0,2.7229662-0.2164702,3.9892988-0.6494102
			c1.2662678-0.4329467,2.4300003-1.0400431,3.4912014-1.8212898c1.0611992-0.7812533,1.9840317-1.7024773,2.7684994-2.7636721
			c0.7845325-1.0611987,1.3932667-2.2265646,1.8262005-3.496098c0.4329338-1.2695265,0.6493988-2.5976501,0.6493988-3.9843698
			c0-1.3932271-0.216465-2.7229667-0.6493988-3.9892201c-0.4329338-1.2663326-1.0416679-2.4300671-1.8262005-3.4912004
			c-0.7844677-1.0611992-1.7073002-1.984066-2.7684994-2.7686005c-1.0612011-0.7845325-2.2265682-1.3932667-3.4961014-1.8261986
			c-1.2695312-0.4329338-2.6009331-0.6494007-3.9941988-0.6494007c-1.3931999,0-2.7229328,0.2164669-3.9892006,0.6494007
			c-1.2662859,0.4329319-2.4284029,1.041666-3.4863496,1.8261986c-1.05794,0.7845345-1.9791632,1.7074013-2.76367,2.7686005
			C3.9371731-13.470067,3.3300765-12.3063326,2.9003899-11.04c-0.4296865,1.2662535-0.6445298,2.595993-0.6445298,3.9892201
			c0,1.3867197,0.21647,2.7148433,0.64941,3.9843698c0.4329467,1.2695335,1.0400431,2.4348993,1.82129,3.496098
			c0.7812529,1.0611948,1.7024765,1.9824188,2.76367,2.7636721c1.0612006,0.7812467,2.2249236,1.3883431,3.4911695,1.8212898
			C12.2477341,5.4475899,13.5775003,5.6640601,14.9707003,5.6640601z M14.9707003,3.8476601
			c-1.2044001,0-2.3518677-0.1839199-3.4424-0.55176c-1.0904799-0.3678403-2.0881939-0.88379-2.9931402-1.5478501
			c-0.904953-0.6640646-1.6910863-1.4501987-2.3583999-2.358402C5.5094399-1.5185572,4.9934897-2.5179067,4.6289101-3.6084001
			C4.2643232-4.6988935,4.0820298-5.8463535,4.0820298-7.0507798c0-1.2109399,0.1822934-2.3616471,0.5468802-3.4521203
			c0.3645797-1.0905333,0.8789029-2.0899,1.5429697-2.9981003c0.6640601-0.9081993,1.4485636-1.6943321,2.3535099-2.3583994
			c0.9049463-0.6640663,1.9026833-1.1783657,2.9932108-1.5429001c1.0904665-0.3645992,2.2378998-0.5468998,3.4422998-0.5468998
			c1.2109327,0,2.3616648,0.1823006,3.452199,0.5468998c1.0904655,0.3645344,2.0897999,0.8788338,2.9980011,1.5429001
			c0.9081993,0.6640673,1.6943321,1.4502001,2.3584003,2.3583994c0.6640682,0.9082003,1.1800327,1.907567,1.5478992,2.9981003
			c0.3678017,1.0904732,0.5517006,2.2411804,0.5517006,3.4521203c0.0065327,1.2044263-0.1725006,2.3518863-0.5370998,3.4423797
			c-0.3645325,1.0904934-0.8804684,2.0898428-1.5478001,2.9980481c-0.6673336,0.9082034-1.455101,1.6943374-2.3633003,2.358402
			c-0.9081993,0.6640601-1.9075336,1.1800098-2.9980011,1.5478501C17.3323669,3.6637402,16.181633,3.8476601,14.9707003,3.8476601z
			 M9.4531202-7.0410199c0,0.2539067,0.0862637,0.46387,0.25879,0.62989
			c0.1725264,0.1660132,0.3922567,0.2490201,0.6591902,0.2490201H14.0625v3.70117
			c0,0.2669265,0.0830002,0.4850265,0.2489996,0.6542999c0.1660004,0.1692734,0.375967,0.2539101,0.6299,0.2539101
			c0.2734671,0,0.4948339-0.0846367,0.6641006-0.2539101c0.1692657-0.1692734,0.2539005-0.3873733,0.2538996-0.6542999v-3.70117
			h3.7010994c0.2669334,0,0.485033-0.0830069,0.6543007-0.2490201c0.1693325-0.1660199,0.2539997-0.3759832,0.2539997-0.62989
			c0-0.2734332-0.0846672-0.4947867-0.2539997-0.6640601c-0.1692677-0.1692662-0.3873672-0.2539001-0.6543007-0.2539001h-3.7010994
			v-3.6914201c0.000001-0.2734003-0.0846338-0.4947672-0.2538996-0.6640997
			c-0.1692667-0.1692677-0.3906336-0.2539005-0.6641006-0.2539005c-0.253933,0-0.4638996,0.0862675-0.6299,0.2588005
			c-0.1659994,0.172533-0.2489996,0.3922672-0.2489996,0.6591997v3.6914201h-3.6913996
			c-0.2734404,0-0.4947968,0.0846338-0.6640701,0.2539001C9.5377569-7.5358067,9.4531202-7.3144531,9.4531202-7.0410199z"/>
	</g>
	<text transform="matrix(1 0 0 1 263 1953)" font-family="'SFProDisplay-Bold'" font-size="13px">Design Variations</text>
	<text transform="matrix(1 0 0 1 263 1971)" font-family="'SFProDisplay-Regular'" font-size="13px">Symbols are supported in up to nine weights and three scales.</text>
	<text transform="matrix(1 0 0 1 263 1989)" font-family="'SFProDisplay-Regular'" font-size="13px">For optimal layout with text and other symbols, vertically align</text>
	<text transform="matrix(1 0 0 1 263 2007)" font-family="'SFProDisplay-Regular'" font-size="13px">symbols with the adjacent text.</text>
	<line fill="none" stroke="#00AEEF" stroke-width="0.5" x1="776" y1="1919" x2="776" y2="1933"/>
	<g transform="matrix(1 0 0 1 776 1933)">
		<path d="M3.31055,0.15625c0.2604132,0,0.4622364-0.0553385,0.6054699-0.1660156
			C4.0592465-0.1204425,4.1764331-0.3125,4.26758-0.585938l1.2597599-3.4472618h5.7617598l1.2597008,3.4472618
			c0.0911331,0.273438,0.208333,0.4654954,0.3515997,0.5761724c0.143199,0.1106771,0.3417673,0.1660156,0.5957003,0.1660156
			c0.2603998,0,0.4670992-0.0716146,0.6201-0.2148438c0.1529999-0.1432295,0.2294998-0.3385418,0.2294998-0.5859372
			c0-0.14974-0.035799-0.325523-0.1073999-0.527349L9.6582003-13.3690996
			c-0.1171875-0.2995338-0.2766895-0.524168-0.4785099-0.6739006c-0.201827-0.1497335-0.4589901-0.2245998-0.7714901-0.2245998
			c-0.6054673,0-1.0156236,0.2962332-1.2304702,0.8887005L2.5976601-1.16211c-0.07162,0.2018234-0.10743,0.3776046-0.10743,0.527344
			c0,0.247396,0.0732434,0.441081,0.2197299,0.5810551S3.0566432,0.15625,3.31055,0.15625z M6.0058599-5.51758l2.3730502-6.5722198
			h0.0488195L10.8008003-5.51758H6.0058599z"/>
	</g>
	<line fill="none" stroke="#00AEEF" stroke-width="0.5" x1="793.1970215" y1="1919" x2="793.1970215" y2="1933"/>
	<text transform="matrix(1 0 0 1 776 1953)" font-family="'SFProDisplay-Bold'" font-size="13px">Margins</text>
	<text transform="matrix(1 0 0 1 776 1971)" font-family="'SFProDisplay-Regular'" font-size="13px">Leading and trailing margins on the left and right side of each symbol</text>
	<text transform="matrix(1 0 0 1 776 1989)" font-family="'SFProDisplay-Regular'" font-size="13px">can be adjusted by modifying the x-location of the margin guidelines.</text>
	<text transform="matrix(1 0 0 1 776 2007)" font-family="'SFProDisplay-Regular'" font-size="13px">Modifications are automatically applied proportionally to all</text>
	<text transform="matrix(1 0 0 1 776 2025)" font-family="'SFProDisplay-Regular'" font-size="13px">scales and weights.</text>
	<g transform="matrix(1 0 0 1 1289 1933)">
		<path d="M2.8418,1.86523l1.6992199,1.70899c0.429687,0.4361999,0.8837867,0.6380236,1.3622999,0.6054699
			c0.4785137-0.0325532,0.9488897-0.30599,1.41113-0.8203099L18.0077991-8.4277296l-0.9667988-0.9765701L6.4257798,2.2753899
			C6.25,2.47721,6.0725899,2.5911434,5.8935499,2.6171899c-0.1790328,0.0260401-0.3857369-0.0781267-0.62011-0.3125
			L4.1015601,1.14258c-0.2343733-0.234376-0.33691-0.4410824-0.30761-0.620119
			c0.0292933-0.1790367,0.14485-0.3597007,0.3466702-0.5419922L15.6152-10.8203001l-0.9765005-0.9667997L3.04688-0.898438
			C2.5520866-0.4427086,2.2867866,0.0227863,2.2509799,0.498047C2.2151732,0.973309,2.4121132,1.4290366,2.8418,1.86523z
			 M9.2578096-16.3281002C9.0494766-16.1262989,8.9322901-15.8951998,8.90625-15.6348
			c-0.0260401,0.2604666,0.0195341,0.4883337,0.1367197,0.6836004c0.1171865,0.182333,0.288084,0.319066,0.5126905,0.4101992
			c0.2246132,0.0911331,0.4996939,0.0976334,0.8252401,0.0195007c0.7291336-0.1692667,1.4680653-0.239234,2.2167997-0.2098999
			c0.7486668,0.0292664,1.4810667,0.2782669,2.1971998,0.7469997l-0.5859003,1.4551001
			c-0.1692657,0.416667-0.216466,0.7796326-0.1415997,1.0888996c0.0748663,0.3092003,0.2457666,0.6005335,0.5127001,0.8740005
			L16.875-8.2519503c0.2408657,0.2473936,0.4752331,0.3906202,0.7031002,0.4296803
			c0.2278671,0.0390668,0.4817677,0.0325565,0.7616997-0.0195303l1.0645008-0.1953101l0.6640987,0.6738305l-0.0390987,0.5566397
			c-0.0195332,0.2473936,0.0114002,0.4752569,0.0928001,0.6835899c0.0813332,0.2083335,0.242466,0.4329433,0.4833984,0.67383
			l0.7617016,0.7421904c0.2408676,0.2408867,0.5028992,0.3662133,0.7860985,0.3759799
			c0.2832012,0.0097599,0.5419998-0.1025472,0.7764015-0.3369203l2.910099-2.91992
			c0.2344017-0.2343731,0.3483334-0.4899068,0.3418007-0.7666001c-0.0064678-0.2766933-0.1301689-0.5354834-0.3711014-0.77637
			L25.0391006-9.89258c-0.2343998-0.24088-0.454134-0.4052534-0.6592007-0.4931202
			c-0.2050667-0.0879335-0.4280663-0.1221333-0.6690006-0.1026001L23.1348-10.4394999L22.4902-11.0741997L22.7343998-12.1973
			c0.0650673-0.2799339,0.0520325-0.5419664-0.0391006-0.7861004s-0.2831993-0.5127001-0.5761986-0.8056993l-2.1972008-2.1875
			c-0.8333321-0.8268003-1.7203999-1.4469004-2.6611996-1.860301c-0.940733-0.4133987-1.8880005-0.628233-2.8418007-0.6444988
			c-0.9537325-0.0163326-1.8716993,0.1578007-2.7538996,0.5223999C10.7828665-17.5944004,9.9804697-17.050766,9.2578096-16.3281002z
			 M10.7519999-15.9569998c0.6054668-0.4427328,1.2548666-0.7585001,1.9482002-0.9473009
			c0.6933327-0.1887989,1.3948326-0.249033,2.1044998-0.1806984c0.7096004,0.0683994,1.3980665,0.2588329,2.0654001,0.5712986
			c0.6673317,0.3125343,1.2776985,0.7487326,1.8311005,1.3086004l2.4315987,2.4120998
			c0.1172009,0.1171999,0.1904335,0.2311335,0.2197018,0.3418007c0.0293331,0.1106663,0.0244656,0.2506657-0.0146008,0.4199991
			l-0.3223,1.4843006L22.5195007-9.0625l0.9863987-0.0585899c0.1236687-0.0065136,0.2180691,0.0016232,0.2832012,0.0244102
			c0.0650654,0.0227861,0.146431,0.0830069,0.2440987,0.1806593l0.5762005,0.5761805l-2.4414005,2.4414001l-0.5761986-0.57617
			C21.494133-6.5722632,21.4322662-6.6536431,21.4062004-6.71875c-0.0259991-0.0651069-0.0357323-0.1627636-0.0291996-0.2929702
			l0.0682983-0.9765596l-1.4940987-1.4843802L18.4277-9.21875c-0.1627331,0.0325537-0.2912998,0.0374365-0.3857002,0.0146503
			c-0.0944004-0.0227871-0.2034664-0.0927744-0.3271999-0.20996l-2.0018997-2.0019407
			c-0.1302004-0.1171999-0.203433-0.2294998-0.2196999-0.3368998c-0.0162668-0.1074667,0.0146322-0.2523336,0.0927-0.4345999
			l0.8788996-2.0897999c-0.7811995-0.7292004-1.6601-1.2337675-2.6366997-1.5137005
			c-0.9765329-0.279932-1.9726343-0.2701664-2.9883003,0.0293007c-0.0780659,0.0195322-0.1285,0.0048666-0.1512995-0.0440006
			C10.6657-15.8544998,10.6868668-15.904933,10.7519999-15.9569998z"/>
	</g>
	<text transform="matrix(1 0 0 1 1289 1953)" font-family="'SFProDisplay-Bold'" font-size="13px">Exporting</text>
	<text transform="matrix(1 0 0 1 1289 1971)" font-family="'SFProDisplay-Regular'" font-size="13px">Symbols should be outlined when exporting to ensure the</text>
	<text transform="matrix(1 0 0 1 1289 1989)" font-family="'SFProDisplay-Regular'" font-size="13px">design is preserved when submitting to Xcode.</text>
	
		<text id="template-version" transform="matrix(1 0 0 1 2956.4257812 1933)" font-family="'SFProDisplay-Regular'" font-size="13px">Template v.3.0</text>
	<text transform="matrix(1 0 0 1 2880.0063477 1951)" font-family="'SFProDisplay-Regular'" font-size="13px">Requires Xcode 13 or greater</text>
	
		<text id="descriptive-name" transform="matrix(1 0 0 1 2889.3754883 1969)" font-family="'SFProDisplay-Regular'" font-size="13px">Generated from trash.circle</text>
	<text transform="matrix(1 0 0 1 2919.7490234 1987)" font-family="'SFProDisplay-Regular'" font-size="13px">Typeset at 100 points</text>
	<text transform="matrix(1 0 0 1 263 726)" font-family="'SFProDisplay-Regular'" font-size="13px">Small</text>
	<text transform="matrix(1 0 0 1 263 1156)" font-family="'SFProDisplay-Regular'" font-size="13px">Medium</text>
	<text transform="matrix(1 0 0 1 263 1586)" font-family="'SFProDisplay-Regular'" font-size="13px">Large</text>
</g>
<g id="Guides">
	<g id="H-reference" transform="matrix(1 0 0 1 339 696)">
		<path fill="#27AAE1" d="M0.976562,0h2.6855481l25.6835899-67.1387024h0.6836014v-3.3202972H28.125L0.976562,0z
			 M11.6698999-24.4629002h35.3027992L46.2402-26.7089996H12.4511995L11.6698999-24.4629002z M55.1269989,0h2.6366997
			L30.6152-70.4589996h-1.1718006v3.3202972L55.1269989,0z"/>
	</g>
	<line id="Baseline-S" fill="none" stroke="#27AAE1" stroke-width="0.5" x1="263" y1="696" x2="3036" y2="696"/>
	<line id="Capline-S" fill="none" stroke="#27AAE1" stroke-width="0.5" x1="263" y1="625.5410156" x2="3036" y2="625.5410156"/>
	<g id="H-reference_1_" transform="matrix(1 0 0 1 339 1126)">
		<path fill="#27AAE1" d="M0.976562,0h2.6855481l25.6835899-67.1387024h0.6836014v-3.3202972H28.125L0.976562,0z
			 M11.6698999-24.4629002h35.3027992L46.2402-26.7089996H12.4511995L11.6698999-24.4629002z M55.1269989,0h2.6366997
			L30.6152-70.4589996h-1.1718006v3.3202972L55.1269989,0z"/>
	</g>
	<line id="Baseline-M" fill="none" stroke="#27AAE1" stroke-width="0.5" x1="263" y1="1126" x2="3036" y2="1126"/>
	<line id="Capline-M" fill="none" stroke="#27AAE1" stroke-width="0.5" x1="263" y1="1055.5400391" x2="3036" y2="1055.5400391"/>
	<g id="H-reference_2_" transform="matrix(1 0 0 1 339 1556)">
		<path fill="#27AAE1" d="M0.976562,0h2.6855481l25.6835899-67.1387024h0.6836014v-3.3202972H28.125L0.976562,0z
			 M11.6698999-24.4629002h35.3027992L46.2402-26.7089996H12.4511995L11.6698999-24.4629002z M55.1269989,0h2.6366997
			L30.6152-70.4589996h-1.1718006v3.3202972L55.1269989,0z"/>
	</g>
	<line id="Baseline-L" fill="none" stroke="#27AAE1" stroke-width="0.5" x1="263" y1="1556" x2="3036" y2="1556"/>
	<line id="Capline-L" fill="none" stroke="#27AAE1" stroke-width="0.5" x1="263" y1="1485.5400391" x2="3036" y2="1485.5400391"/>
	
		<line id="left-margin-Ultralight-S" fill="none" stroke="#00AEEF" stroke-width="0.5" x1="512.4813232" y1="600.7849731" x2="512.4813232" y2="720.1209717"/>
	
		<line id="right-margin-Ultralight-S" fill="none" stroke="#00AEEF" stroke-width="0.5" x1="609.1313477" y1="600.7849731" x2="609.1313477" y2="720.1209717"/>
	
		<line id="left-margin-Regular-S" fill="none" stroke="#00AEEF" stroke-width="0.5" x1="1400.4890137" y1="600.7849731" x2="1400.4890137" y2="720.1209717"/>
	
		<line id="right-margin-Regular-S" fill="none" stroke="#00AEEF" stroke-width="0.5" x1="1501.0390625" y1="600.7849731" x2="1501.0390625" y2="720.1209717"/>
	
		<line id="left-margin-Black-S" fill="none" stroke="#00AEEF" stroke-width="0.5" x1="2874.3981934" y1="600.7849731" x2="2874.3981934" y2="720.1209717"/>
	
		<line id="right-margin-Black-S" fill="none" stroke="#00AEEF" stroke-width="0.5" x1="2990.6481934" y1="600.7849731" x2="2990.6481934" y2="720.1209717"/>
</g>
<g id="Symbols">
	<g id="Black-S">
		<path d="M2980.6481934,661.6495361c0,3.8291626-1.6147461,6.5914917-3.2561035,8.6547241
			c0.6164551,2.1533813,0.972168,4.9933472-0.3886719,8.7050781c-1.2094727,3.2982178-3.2297363,5.4512329-4.8227539,6.6008301
			c-0.1767578,2.0163574-0.951416,5.1531982-3.3432617,7.9165039c-2.3920898,2.7631836-5.8515625,4.0181885-14.1135254,4.0181885
			h-25.3583984c-11.0424805,0-8.9084473-6.3962402-18.513916-6.3455811l-0.1894531-13.1295776
			c10.2563477-0.335022,10.3640137,6.3446655,18.7033691,6.3446655l19.0576172-0.0773926
			c3.9370117,0,7.1164551,0.2215576,8.9980469-1.2567139c1.8012695-1.4153442,2.1872559-2.9593506,2.2729492-4.203125
			c0.6005859-0.428894,2.9765625-1.4066772,3.9458008-3.3453369c0.729248-1.4581909,1.5324707-3.3829956,0.6005859-6.5596313
			c1.7155762-0.4741211,2.84375-3.3180542,2.84375-5.2052002c0-1.887085-0.7600098-2.7020874-2.6611328-4.2756348
			c0.1604004-1.2437744-0.0112305-3.1308594-1.512207-4.8035278c-0.9692383-1.0801392-1.5847168-1.6298218-5.4470215-1.6298218
			h-18.1149902c0.520752-2.6734619,1.1425781-19.1832275,1.1425781-22.9880371c0-2.9099731-0.4833984-5.2757568-1.8557129-5.2757568
			c-1.3295898,0-0.9865723,2.2563477-0.9865723,5.6613159c0,5.7955933-3.8894043,12.3242188-5.2172852,14.5307007
			c-1.5695801,2.6079712-2.1928711,7.84729-3.7893066,10.1733398c-5.2871094,7.7039795-14.0993652,11.3343506-17.7910156,11.6229248
			l-0.1584473-14.034668c0.9821777-0.6529541,3.3249512-0.7391968,6.8833008-4.9829712
			c1.755127-2.0935059,2.1572266-5.8956909,5.3505859-10.4577026c1.4765625-2.1097412,5.2509766-8.2022095,4.0383301-13.1717529
			c-1.8063965-7.3994751,4.5634766-12.3405151,9.810791-12.3405151c8.1625977,0,13.9592285,7.3901978,13.9592285,16.97229
			c0,3.8048096-0.1601562,8.0487671-0.6970215,10.9463501h14.6564941c4.5986328,0,8.083252,1.8369141,10.4873047,5.0824585
			c2.0043945,2.7062378,2.2250977,6.0101929,2.1616211,8.0427246
			C2979.1479492,654.4701538,2980.6481934,657.6778564,2980.6481934,661.6495361z"/>
		<path d="M2905.3981934,646.7948608c5.7990723,0,10.5,4.7010498,10.5,10.5v35c0,5.7990112-4.7009277,10.5-10.5,10.5h-10.5
			c-5.7990723,0-10.5-4.7009888-10.5-10.5v-35c0-5.7989502,4.7009277-10.5,10.5-10.5H2905.3981934z M2901.8981934,687.9198608
			v-26.25c0-0.4832153-0.3918457-0.875-0.875-0.875h-1.75c-0.4831543,0-0.875,0.3917847-0.875,0.875v26.25
			c0,0.4832764,0.3918457,0.875,0.875,0.875h1.75C2901.5063477,688.7948608,2901.8981934,688.4031372,2901.8981934,687.9198608z"/>
	</g>
	<g id="Regular-S">
		<path d="M1491.0390625,660.7460938c0,3.4371338-1.4493408,5.916626-2.9227295,7.7685547
			c0.5532227,1.9329224,0.8726807,4.4821167-0.348999,7.8137817c-1.0854492,2.9605103-2.8989258,4.8930664-4.3287354,5.9249878
			c-0.1586914,1.8098755-0.8540039,4.6255493-3.0009766,7.105896c-2.1473389,2.4802856-5.2524414,3.6068115-12.6685791,3.6068115
			h-22.7617188c-9.9118652,0-7.99646-5.741394-16.6182861-5.6959229l-0.1700439-6.5471191
			c9.2061768-0.3007202,9.3027344,5.6950684,16.7883301,5.6950684l20.9716797-0.069458
			c7.3325195-0.048645,8.8443604-0.4735107,10.2657471-2.0835571c1.3859863-1.5696411,0.8046875-3.3474121,0.9375-5.6255493
			c1.4299316-1.0319214,3.4683838-1.4007568,4.5144043-4.3754883c0.9282227-2.6397705,0.6280518-4.09375-0.208374-6.9451294
			c1.3585205-2.0655518,3.0393066-3.2980347,3.0559082-6.7351074c0.0144043-3.0169067-1.0020752-3.7634277-2.7086182-5.1758423
			c0.243042-2.9863892,0.7733154-4.7019043-0.729248-6.3547974c-1.3890381-1.5279541-2.8197021-1.5626831-6.286499-1.5626831
			h-19.1904297c0.4676514-2.3997192,2.215332-11.9510498,2.215332-15.366272c0-5.3017578-2.215332-9.3998413-4.9710693-9.3998413
			c-3.5308838,0-1.6750488,4.0241089-1.6750488,7.0805054c0,5.2021484-4.2113037,12.1199951-5.4033203,14.1005249
			c-1.4089355,2.3409424-1.9171143,6.0170898-3.3499756,8.1049805c-4.7457275,6.9151611-10.7426758,8.2241821-14.0562744,8.4832153
			V654.43927c0.8817139-0.5861206,4.4807129-1.8696289,7.6748047-5.678894
			c1.5754395-1.8791504,2.2431641-6.1251221,5.1096191-10.2200317c1.3254395-1.8936768,3.9290771-7.0065918,2.8405762-11.4672852
			c-1.6213379-6.6418457,2.9349365-11.0769653,7.6450195-11.0769653c7.3269043,0,12.5300293,6.6335449,12.5300293,15.234436
			c0,3.4152832-0.1437988,7.2246704-0.6258545,9.8255615h13.1558838c4.1276855,0,7.2556152,1.6488647,9.4135742,4.5620728
			c1.7991943,2.4291382,1.9971924,5.3948364,1.9404297,7.2192383
			C1489.6923828,654.3018188,1491.0390625,657.1810913,1491.0390625,660.7460938z"/>
		<path d="M1426.5991211,648.2161255c3.9543457,0,7.1599121,3.2056274,7.1599121,7.1599731v35.7999878
			c0,3.9544067-3.2055664,7.1600342-7.1599121,7.1600342h-8.9500732c-3.9543457,0-7.1600342-3.2056274-7.1600342-7.1600342
			v-35.7999878c0-3.9543457,3.2056885-7.1599731,7.1600342-7.1599731H1426.5991211z M1426.5991211,689.3861084v-32.2200317
			c0-0.9885864-0.8015137-1.789978-1.7900391-1.789978h-5.3699951c-0.9886475,0-1.7900391,0.8013916-1.7900391,1.789978v32.2200317
			c0,0.9885864,0.8013916,1.789978,1.7900391,1.789978h5.3699951
			C1425.7976074,691.1760864,1426.5991211,690.3746948,1426.5991211,689.3861084z"/>
	</g>
	<g id="Ultralight-S">
		<path d="M599.1313477,662.1973267c0,3.1293945-1.3195801,5.2599487-2.6611938,6.946167
			c0.5036621,1.7598267,0.835022,4.3908081-0.2650146,7.2492676c-1.0308838,2.6795044-2.6920776,4.3201294-3.9938354,5.2596436
			c-0.1444092,1.6478882-0.6171875,3.9747314-2.0559692,5.7404785c-2.3046875,2.8305664-5.2235718,4.0132446-11.975769,4.0132446
			h-20.9987793c-6.3771362-0.0846558-11.1478271-4.9954224-13.8798828-5.1860352v-2.0640869
			c4.829834,0.6330566,8.1046753,5.0601196,13.8798828,5.0601196h20.9987793c6.5700073,0,8.3693237-1.0155029,10.2776489-3.2059937
			c1.375061-1.5783691,1.515564-3.899231,1.6599121-5.5470581c1.520874-1.0638428,3.05896-2.3679199,3.961853-4.5748901
			c1.2039795-2.9432373,0.479248-5.4660645-0.0244141-7.2258911c1.3416138-1.6862183,2.8867798-3.4411621,2.8867798-6.4649658
			c0-3.2458496-1.0856323-4.6132202-2.3681641-5.7940674c0.0514526-1.6611938,0.2738647-4.8095703-1.3397217-7.055481
			c-1.2444458-1.7320557-3.6686401-1.7416382-6.0483398-1.7416382h-15.7055664
			c0.7149658-3.484436,1.3334351-9.2998047,1.3334351-12.4092407c0-7.8310547-3.8359985-11.6807861-8.2141113-11.6807861
			c-4.4251709,0-5.4906006,2.8070068-4.5515137,7.8954468c0.8861084,4.8005371-1.460022,9.2915649-2.6218262,10.8779297
			c-2.7960815,3.8175659-4.3793335,8.9373779-6.1221313,10.635498c-1.760376,1.7150879-5.3840942,4.2406006-8.0025024,5.2459106
			v-1.8428955c0-0.7427979,4.817627-3.0212402,6.6567383-5.1704712c1.4516602-1.6965332,2.3049927-5.7727051,5.1608887-9.3161011
			c0.5939331-0.7367554,3.7440186-5.4885864,2.7388306-10.4298706c-1.0314941-5.0705566,0.2887573-10.0854492,6.7415161-10.0854492
			c6.6712036,0,10.4041138,6.0397339,10.4041138,13.8707886c0,3.109436-0.4490967,7.8511963-0.8879395,10.2192383h13.1548462
			c1.6935425,0,5.9612427-0.2218018,7.9293823,2.8256836c1.4638062,2.2664795,1.6420898,5.5641479,1.5905151,7.2252197
			C598.0724487,656.6478882,599.1313477,658.9514771,599.1313477,662.1973267z"/>
		<path d="M537.8113403,647.6061401c3.62854,0,6.5700073,2.9414673,6.5700073,6.5699463v35.0400391
			c0,3.62854-2.9414673,6.5700073-6.5700073,6.5700073h-8.7600098c-3.628479,0-6.5700073-2.9414673-6.5700073-6.5700073v-35.0400391
			c0-3.628479,2.9415283-6.5699463,6.5700073-6.5699463H537.8113403z M542.1913452,689.2161255v-35.0400391
			c0-2.4190674-1.9609985-4.3800049-4.3800049-4.3800049h-8.7600098c-2.4189453,0-4.3800049,1.9609375-4.3800049,4.3800049
			v35.0400391c0,2.4189453,1.9610596,4.3800049,4.3800049,4.3800049h8.7600098
			C540.2303467,693.5961304,542.1913452,691.6350708,542.1913452,689.2161255z"/>
	</g>
</g>
</svg>
