<?xml version="1.0" encoding="utf-8"?>
<!-- Generator: Adobe Illustrator 25.2.3, SVG Export Plug-In . SVG Version: 6.00 Build 0)  -->
<svg version="1.1" id="Layer_1" xmlns="http://www.w3.org/2000/svg" xmlns:xlink="http://www.w3.org/1999/xlink" x="0px" y="0px"
	 viewBox="0 0 3300 2200" enable-background="new 0 0 3300 2200" xml:space="preserve">
<g id="Notes">
	<rect id="artboard" y="0" fill="#FFFFFF" width="3300" height="2200"/>
	<line fill="none" stroke="#000000" stroke-width="0.5" x1="263" y1="292" x2="3036" y2="292"/>
	<text transform="matrix(1 0 0 1 263 321.999939)" font-family="'SFProDisplay-Bold'" font-size="13px">Weight/Scale Variations</text>
	<text transform="matrix(1 0 0 1 535.0122681 321.999939)" font-family="'SFProDisplay-Regular'" font-size="13px">Ultralight</text>
	<text transform="matrix(1 0 0 1 844.3900146 321.999939)" font-family="'SFProDisplay-Regular'" font-size="13px">Thin</text>
	<text transform="matrix(1 0 0 1 1139.3619385 321.999939)" font-family="'SFProDisplay-Regular'" font-size="13px">Light</text>
	<text transform="matrix(1 0 0 1 1429.0291748 321.999939)" font-family="'SFProDisplay-Regular'" font-size="13px">Regular</text>
	<text transform="matrix(1 0 0 1 1724.2575684 321.999939)" font-family="'SFProDisplay-Regular'" font-size="13px">Medium</text>
	<text transform="matrix(1 0 0 1 2017.5556641 321.999939)" font-family="'SFProDisplay-Regular'" font-size="13px">Semibold</text>
	<text transform="matrix(1 0 0 1 2327.6750488 321.999939)" font-family="'SFProDisplay-Regular'" font-size="13px">Bold</text>
	<text transform="matrix(1 0 0 1 2619.2561035 321.999939)" font-family="'SFProDisplay-Regular'" font-size="13px">Heavy</text>
	<text transform="matrix(1 0 0 1 2918.4702148 321.999939)" font-family="'SFProDisplay-Regular'" font-size="13px">Black</text>
	<line fill="none" stroke="#000000" stroke-width="0.5" x1="263" y1="1903" x2="3036" y2="1903"/>
	<g transform="matrix(1 0 0 1 263 1933)">
		<path d="M9.2480497,0.830078C10.3287497,0.8300779,11.344367,0.625,12.2948999,0.214844
			c0.9505339-0.4101567,1.7887669-0.979818,2.5146999-1.708984c0.7258663-0.7291666,1.2955332-1.5690097,1.7090006-2.5195298
			c0.4134007-0.95052,0.6201-1.9628901,0.6201-3.0371099s-0.2066994-2.0865941-0.6201-3.0371203
			c-0.4134674-0.9505329-0.984767-1.7903662-1.7139006-2.5194998c-0.7291994-0.7292004-1.5690327-1.2988663-2.5194998-1.7089996
			c-0.9505339-0.4101334-1.9661732-0.6152-3.0469198-0.6152c-1.0742207,0-2.0865903,0.2050667-3.0371103,0.6152
			s-1.7871065,0.9797993-2.5097599,1.7089996C2.96875-11.8782663,2.4007132-11.0384331,1.9873-10.0879002
			C1.5738934-9.1373739,1.36719-8.125,1.36719-7.0507798S1.5738934-4.96419,1.9873-4.01367
			C2.4007132-3.0631497,2.9703767-2.2233067,3.69629-1.49414s1.5641298,1.2988274,2.5146499,1.708984
			C7.1614604,0.625,8.17383,0.8300779,9.2480497,0.830078z M9.2480497-0.654297c-0.8854198,0-1.71387-0.1643876-2.4853497-0.493163
			c-0.7714868-0.3287734-1.4485698-0.78613-2.03125-1.3720701C4.1487632-3.1054699,3.6930332-3.7858098,3.36426-4.5605502
			c-0.3287802-0.7747402-0.49317-1.6048164-0.49317-2.4902296c0-0.8854198,0.1627634-1.7155004,0.4882901-2.4902406
			c0.32552-0.7747192,0.7796199-1.4550467,1.3623002-2.0409794c0.5826797-0.5859337,1.2597632-1.0433006,2.03125-1.3720999
			C7.5244164-13.2829008,8.3528671-13.4473,9.2382803-13.4473c0.8919458,0,1.7236528,0.1643991,2.49512,0.4932003
			c0.7714672,0.3287992,1.4501667,0.7861662,2.0360994,1.3720999c0.5859337,0.5859327,1.0449333,1.2662601,1.3769999,2.0409794
			c0.3320007,0.7747402,0.4980001,1.6048207,0.4980001,2.4902406c0,0.8854132-0.1643667,1.7154894-0.4931002,2.4902296
			c-0.3287992,0.7747405-0.7845325,1.4550803-1.3671999,2.0410202c-0.5826664,0.5859401-1.2613993,1.0432967-2.0361996,1.3720701
			C10.9732666-0.8186846,10.1399498-0.654297,9.2480497-0.654297z M5.8398399-7.0410199
			c0,0.2148466,0.0683599,0.3890028,0.20508,0.52247c0.1367202,0.13346,0.3190136,0.2001901,0.5468802,0.2001901h1.9140601v1.92383
			c0,0.2213535,0.0667295,0.4003899,0.2001896,0.5371099c0.1334667,0.1367199,0.3076229,0.20508,0.5224705,0.20508
			c0.2213535,0,0.4003859-0.0683601,0.5370998-0.20508c0.1367197-0.1367199,0.20508-0.3157563,0.20508-0.5371099v-1.92383h1.9237995
			c0.2213993,0,0.4004335-0.06673,0.5370998-0.2001901c0.1367331-0.1334672,0.2051001-0.3076234,0.2051001-0.52247
			c0-0.2213535-0.068367-0.4003868-0.2051001-0.5371003c-0.1366663-0.1367197-0.3157005-0.2050796-0.5370998-0.2050796H9.9707003
			v-1.9140706c0-0.2278862-0.0683603-0.4101629-0.20508-0.5468292c-0.136714-0.1367331-0.3157463-0.2051001-0.5370998-0.2051001
			c-0.2148476,0-0.3890038,0.068367-0.5224705,0.2051001c-0.13346,0.1366663-0.2001896,0.318943-0.2001896,0.5468292v1.9140706
			H6.5918002c-0.2278666,0-0.4101601,0.0683599-0.5468802,0.2050796C5.9081998-7.4414067,5.8398399-7.2623734,5.8398399-7.0410199z"
			/>
	</g>
	<g transform="matrix(1 0 0 1 281.867 1933)">
		<path d="M11.7089996,2.9101601c1.3606672,0,2.6416006-0.2604167,3.8428001-0.78125
			c1.2011337-0.5208334,2.2607002-1.2402358,3.1786995-2.1582069c0.9179344-0.9179688,1.6373348-1.9775398,2.1582012-3.1787131
			c0.5207996-1.2011731,0.7812004-2.4820969,0.7812004-3.8427699c0-1.3606801-0.2604008-2.6416202-0.7812004-3.8428206
			c-0.5208664-1.2011337-1.2402668-2.2606993-2.1582012-3.1786995c-0.9179993-0.9179335-1.9792004-1.6373329-3.1835995-2.1581993
			c-1.2044668-0.5207996-2.4870329-0.7812004-3.8477001-0.7812004s-2.6415825,0.2604008-3.8427491,0.7812004
			c-1.2011733,0.5208664-2.2591166,1.2402658-3.17383,2.1581993c-0.9147131,0.9180002-1.6324866,1.9775658-2.1533201,3.1786995
			C2.0084672-9.6924,1.7480505-8.4114599,1.7480503-7.0507798C1.7480505-5.6901069,2.0084672-4.409183,2.5293005-3.20801
			s1.2402332,2.2607443,2.1582,3.1787131c0.9179664,0.9179712,1.9775367,1.6373736,3.17871,2.1582069
			S10.3483133,2.9101601,11.7089996,2.9101601z M11.7089996,1.25c-1.1523533,0-2.2298326-0.2148436-3.23244-0.644531
			C7.4739599,0.1757813,6.5934277-0.418295,5.8349605-1.17676c-0.75846-0.7584602-1.3509068-1.6389933-1.7773399-2.6416001
			S3.4179704-5.8984399,3.4179704-7.0507798c0-1.1523461,0.2132168-2.2298207,0.6396501-3.2324204
			s1.0172534-1.8847656,1.77246-2.6464996c0.7552066-0.7617331,1.6341133-1.3557997,2.6367192-1.7821999
			c1.0025997-0.4264669,2.0800667-0.6396999,3.2323999-0.6396999s2.2298002,0.213233,3.2323999,0.6396999
			c1.0025997,0.4264002,1.8847666,1.0204668,2.6465006,1.7821999c0.761734,0.761734,1.3574333,1.6438999,1.7870998,2.6464996
			C19.7949333-9.2806005,20.0098-8.203126,20.0098-7.0507798c0,1.1523399-0.213232,2.2298131-0.6396999,3.2324197
			c-0.4263992,1.0026069-1.0188332,1.88314-1.7772999,2.6416001c-0.7584667,0.7584649-1.6406336,1.3525413-2.6465006,1.7822289
			S12.8613329,1.25,11.7089996,1.25z M7.3925805-7.0410199c0,0.2343798,0.0781231,0.4264402,0.2343698,0.57618
			C7.7832036-6.3151002,7.9850273-6.2402301,8.23242-6.2402301h2.6464796v2.6660101
			c0,0.2408867,0.0748663,0.4378266,0.2246008,0.5908198c0.1497335,0.1529932,0.3417997,0.22949,0.5761995,0.22949
			c0.2474003,0,0.449234-0.0764968,0.6055002-0.22949c0.1561995-0.1529932,0.2342997-0.3499331,0.2342997-0.5908198v-2.6660101
			h2.6563005c0.2408667,0,0.4394331-0.0748701,0.5956993-0.2246099s0.2343998-0.3418002,0.2343998-0.57618
			c0-0.2473936-0.0781336-0.447587-0.2343998-0.6005802s-0.3548326-0.2294898-0.5956993-0.2294898h-2.6563005v-2.6465101
			c0-0.2538662-0.0781002-0.4573002-0.2342997-0.6103001c-0.1562662-0.1529999-0.3580999-0.2294998-0.6055002-0.2294998
			c-0.2343998,0-0.426466,0.0764999-0.5761995,0.2294998c-0.1497345,0.1529999-0.2246008,0.3564339-0.2246008,0.6103001v2.6465101
			H8.23242c-0.2539062,0-0.4573565,0.0764966-0.6103497,0.2294898S7.3925805-7.2884135,7.3925805-7.0410199z"/>
	</g>
	<g transform="matrix(1 0 0 1 305.646 1933)">
		<path d="M14.9707003,5.6640601c1.393199,0,2.7229662-0.2164702,3.9892988-0.6494102
			c1.2662678-0.4329467,2.4300003-1.0400431,3.4912014-1.8212898c1.0611992-0.7812533,1.9840317-1.7024773,2.7684994-2.7636721
			c0.7845325-1.0611987,1.3932667-2.2265646,1.8262005-3.496098c0.4329338-1.2695265,0.6493988-2.5976501,0.6493988-3.9843698
			c0-1.3932271-0.216465-2.7229667-0.6493988-3.9892201c-0.4329338-1.2663326-1.0416679-2.4300671-1.8262005-3.4912004
			c-0.7844677-1.0611992-1.7073002-1.984066-2.7684994-2.7686005c-1.0612011-0.7845325-2.2265682-1.3932667-3.4961014-1.8261986
			c-1.2695312-0.4329338-2.6009331-0.6494007-3.9941988-0.6494007c-1.3931999,0-2.7229328,0.2164669-3.9892006,0.6494007
			c-1.2662859,0.4329319-2.4284029,1.041666-3.4863496,1.8261986c-1.05794,0.7845345-1.9791632,1.7074013-2.76367,2.7686005
			C3.9371731-13.470067,3.3300765-12.3063326,2.9003899-11.04c-0.4296865,1.2662535-0.6445298,2.595993-0.6445298,3.9892201
			c0,1.3867197,0.21647,2.7148433,0.64941,3.9843698c0.4329467,1.2695335,1.0400431,2.4348993,1.82129,3.496098
			c0.7812529,1.0611948,1.7024765,1.9824188,2.76367,2.7636721c1.0612006,0.7812467,2.2249236,1.3883431,3.4911695,1.8212898
			C12.2477341,5.4475899,13.5775003,5.6640601,14.9707003,5.6640601z M14.9707003,3.8476601
			c-1.2044001,0-2.3518677-0.1839199-3.4424-0.55176c-1.0904799-0.3678403-2.0881939-0.88379-2.9931402-1.5478501
			c-0.904953-0.6640646-1.6910863-1.4501987-2.3583999-2.358402C5.5094399-1.5185572,4.9934897-2.5179067,4.6289101-3.6084001
			C4.2643232-4.6988935,4.0820298-5.8463535,4.0820298-7.0507798c0-1.2109399,0.1822934-2.3616471,0.5468802-3.4521203
			c0.3645797-1.0905333,0.8789029-2.0899,1.5429697-2.9981003c0.6640601-0.9081993,1.4485636-1.6943321,2.3535099-2.3583994
			c0.9049463-0.6640663,1.9026833-1.1783657,2.9932108-1.5429001c1.0904665-0.3645992,2.2378998-0.5468998,3.4422998-0.5468998
			c1.2109327,0,2.3616648,0.1823006,3.452199,0.5468998c1.0904655,0.3645344,2.0897999,0.8788338,2.9980011,1.5429001
			c0.9081993,0.6640673,1.6943321,1.4502001,2.3584003,2.3583994c0.6640682,0.9082003,1.1800327,1.907567,1.5478992,2.9981003
			c0.3678017,1.0904732,0.5517006,2.2411804,0.5517006,3.4521203c0.0065327,1.2044263-0.1725006,2.3518863-0.5370998,3.4423797
			c-0.3645325,1.0904934-0.8804684,2.0898428-1.5478001,2.9980481c-0.6673336,0.9082034-1.455101,1.6943374-2.3633003,2.358402
			c-0.9081993,0.6640601-1.9075336,1.1800098-2.9980011,1.5478501C17.3323669,3.6637402,16.181633,3.8476601,14.9707003,3.8476601z
			 M9.4531202-7.0410199c0,0.2539067,0.0862637,0.46387,0.25879,0.62989
			c0.1725264,0.1660132,0.3922567,0.2490201,0.6591902,0.2490201H14.0625v3.70117
			c0,0.2669265,0.0830002,0.4850265,0.2489996,0.6542999c0.1660004,0.1692734,0.375967,0.2539101,0.6299,0.2539101
			c0.2734671,0,0.4948339-0.0846367,0.6641006-0.2539101c0.1692657-0.1692734,0.2539005-0.3873733,0.2538996-0.6542999v-3.70117
			h3.7010994c0.2669334,0,0.485033-0.0830069,0.6543007-0.2490201c0.1693325-0.1660199,0.2539997-0.3759832,0.2539997-0.62989
			c0-0.2734332-0.0846672-0.4947867-0.2539997-0.6640601c-0.1692677-0.1692662-0.3873672-0.2539001-0.6543007-0.2539001h-3.7010994
			v-3.6914201c0.000001-0.2734003-0.0846338-0.4947672-0.2538996-0.6640997
			c-0.1692667-0.1692677-0.3906336-0.2539005-0.6641006-0.2539005c-0.253933,0-0.4638996,0.0862675-0.6299,0.2588005
			c-0.1659994,0.172533-0.2489996,0.3922672-0.2489996,0.6591997v3.6914201h-3.6913996
			c-0.2734404,0-0.4947968,0.0846338-0.6640701,0.2539001C9.5377569-7.5358067,9.4531202-7.3144531,9.4531202-7.0410199z"/>
	</g>
	<text transform="matrix(1 0 0 1 263 1953)" font-family="'SFProDisplay-Bold'" font-size="13px">Design Variations</text>
	<text transform="matrix(1 0 0 1 263 1971)" font-family="'SFProDisplay-Regular'" font-size="13px">Symbols are supported in up to nine weights and three scales.</text>
	<text transform="matrix(1 0 0 1 263 1989)" font-family="'SFProDisplay-Regular'" font-size="13px">For optimal layout with text and other symbols, vertically align</text>
	<text transform="matrix(1 0 0 1 263 2007)" font-family="'SFProDisplay-Regular'" font-size="13px">symbols with the adjacent text.</text>
	<line fill="none" stroke="#00AEEF" stroke-width="0.5" x1="776" y1="1919" x2="776" y2="1933"/>
	<g transform="matrix(1 0 0 1 776 1933)">
		<path d="M3.31055,0.15625c0.2604132,0,0.4622364-0.0553385,0.6054699-0.1660156
			C4.0592465-0.1204425,4.1764331-0.3125,4.26758-0.585938l1.2597599-3.4472618h5.7617598l1.2597008,3.4472618
			c0.0911331,0.273438,0.208333,0.4654954,0.3515997,0.5761724c0.143199,0.1106771,0.3417673,0.1660156,0.5957003,0.1660156
			c0.2603998,0,0.4670992-0.0716146,0.6201-0.2148438c0.1529999-0.1432295,0.2294998-0.3385418,0.2294998-0.5859372
			c0-0.14974-0.035799-0.325523-0.1073999-0.527349L9.6582003-13.3690996
			c-0.1171875-0.2995338-0.2766895-0.524168-0.4785099-0.6739006c-0.201827-0.1497335-0.4589901-0.2245998-0.7714901-0.2245998
			c-0.6054673,0-1.0156236,0.2962332-1.2304702,0.8887005L2.5976601-1.16211c-0.07162,0.2018234-0.10743,0.3776046-0.10743,0.527344
			c0,0.247396,0.0732434,0.441081,0.2197299,0.5810551S3.0566432,0.15625,3.31055,0.15625z M6.0058599-5.51758l2.3730502-6.5722198
			h0.0488195L10.8008003-5.51758H6.0058599z"/>
	</g>
	<line fill="none" stroke="#00AEEF" stroke-width="0.5" x1="793.1970215" y1="1919" x2="793.1970215" y2="1933"/>
	<text transform="matrix(1 0 0 1 776 1953)" font-family="'SFProDisplay-Bold'" font-size="13px">Margins</text>
	<text transform="matrix(1 0 0 1 776 1971)" font-family="'SFProDisplay-Regular'" font-size="13px">Leading and trailing margins on the left and right side of each symbol</text>
	<text transform="matrix(1 0 0 1 776 1989)" font-family="'SFProDisplay-Regular'" font-size="13px">can be adjusted by modifying the x-location of the margin guidelines.</text>
	<text transform="matrix(1 0 0 1 776 2007)" font-family="'SFProDisplay-Regular'" font-size="13px">Modifications are automatically applied proportionally to all</text>
	<text transform="matrix(1 0 0 1 776 2025)" font-family="'SFProDisplay-Regular'" font-size="13px">scales and weights.</text>
	<g transform="matrix(1 0 0 1 1289 1933)">
		<path d="M2.8418,1.86523l1.6992199,1.70899c0.429687,0.4361999,0.8837867,0.6380236,1.3622999,0.6054699
			c0.4785137-0.0325532,0.9488897-0.30599,1.41113-0.8203099L18.0077991-8.4277296l-0.9667988-0.9765701L6.4257798,2.2753899
			C6.25,2.47721,6.0725899,2.5911434,5.8935499,2.6171899c-0.1790328,0.0260401-0.3857369-0.0781267-0.62011-0.3125
			L4.1015601,1.14258c-0.2343733-0.234376-0.33691-0.4410824-0.30761-0.620119
			c0.0292933-0.1790367,0.14485-0.3597007,0.3466702-0.5419922L15.6152-10.8203001l-0.9765005-0.9667997L3.04688-0.898438
			C2.5520866-0.4427086,2.2867866,0.0227863,2.2509799,0.498047C2.2151732,0.973309,2.4121132,1.4290366,2.8418,1.86523z
			 M9.2578096-16.3281002C9.0494766-16.1262989,8.9322901-15.8951998,8.90625-15.6348
			c-0.0260401,0.2604666,0.0195341,0.4883337,0.1367197,0.6836004c0.1171865,0.182333,0.288084,0.319066,0.5126905,0.4101992
			c0.2246132,0.0911331,0.4996939,0.0976334,0.8252401,0.0195007c0.7291336-0.1692667,1.4680653-0.239234,2.2167997-0.2098999
			c0.7486668,0.0292664,1.4810667,0.2782669,2.1971998,0.7469997l-0.5859003,1.4551001
			c-0.1692657,0.416667-0.216466,0.7796326-0.1415997,1.0888996c0.0748663,0.3092003,0.2457666,0.6005335,0.5127001,0.8740005
			L16.875-8.2519503c0.2408657,0.2473936,0.4752331,0.3906202,0.7031002,0.4296803
			c0.2278671,0.0390668,0.4817677,0.0325565,0.7616997-0.0195303l1.0645008-0.1953101l0.6640987,0.6738305l-0.0390987,0.5566397
			c-0.0195332,0.2473936,0.0114002,0.4752569,0.0928001,0.6835899c0.0813332,0.2083335,0.242466,0.4329433,0.4833984,0.67383
			l0.7617016,0.7421904c0.2408676,0.2408867,0.5028992,0.3662133,0.7860985,0.3759799
			c0.2832012,0.0097599,0.5419998-0.1025472,0.7764015-0.3369203l2.910099-2.91992
			c0.2344017-0.2343731,0.3483334-0.4899068,0.3418007-0.7666001c-0.0064678-0.2766933-0.1301689-0.5354834-0.3711014-0.77637
			L25.0391006-9.89258c-0.2343998-0.24088-0.454134-0.4052534-0.6592007-0.4931202
			c-0.2050667-0.0879335-0.4280663-0.1221333-0.6690006-0.1026001L23.1348-10.4394999L22.4902-11.0741997L22.7343998-12.1973
			c0.0650673-0.2799339,0.0520325-0.5419664-0.0391006-0.7861004s-0.2831993-0.5127001-0.5761986-0.8056993l-2.1972008-2.1875
			c-0.8333321-0.8268003-1.7203999-1.4469004-2.6611996-1.860301c-0.940733-0.4133987-1.8880005-0.628233-2.8418007-0.6444988
			c-0.9537325-0.0163326-1.8716993,0.1578007-2.7538996,0.5223999C10.7828665-17.5944004,9.9804697-17.050766,9.2578096-16.3281002z
			 M10.7519999-15.9569998c0.6054668-0.4427328,1.2548666-0.7585001,1.9482002-0.9473009
			c0.6933327-0.1887989,1.3948326-0.249033,2.1044998-0.1806984c0.7096004,0.0683994,1.3980665,0.2588329,2.0654001,0.5712986
			c0.6673317,0.3125343,1.2776985,0.7487326,1.8311005,1.3086004l2.4315987,2.4120998
			c0.1172009,0.1171999,0.1904335,0.2311335,0.2197018,0.3418007c0.0293331,0.1106663,0.0244656,0.2506657-0.0146008,0.4199991
			l-0.3223,1.4843006L22.5195007-9.0625l0.9863987-0.0585899c0.1236687-0.0065136,0.2180691,0.0016232,0.2832012,0.0244102
			c0.0650654,0.0227861,0.146431,0.0830069,0.2440987,0.1806593l0.5762005,0.5761805l-2.4414005,2.4414001l-0.5761986-0.57617
			C21.494133-6.5722632,21.4322662-6.6536431,21.4062004-6.71875c-0.0259991-0.0651069-0.0357323-0.1627636-0.0291996-0.2929702
			l0.0682983-0.9765596l-1.4940987-1.4843802L18.4277-9.21875c-0.1627331,0.0325537-0.2912998,0.0374365-0.3857002,0.0146503
			c-0.0944004-0.0227871-0.2034664-0.0927744-0.3271999-0.20996l-2.0018997-2.0019407
			c-0.1302004-0.1171999-0.203433-0.2294998-0.2196999-0.3368998c-0.0162668-0.1074667,0.0146322-0.2523336,0.0927-0.4345999
			l0.8788996-2.0897999c-0.7811995-0.7292004-1.6601-1.2337675-2.6366997-1.5137005
			c-0.9765329-0.279932-1.9726343-0.2701664-2.9883003,0.0293007c-0.0780659,0.0195322-0.1285,0.0048666-0.1512995-0.0440006
			C10.6657-15.8544998,10.6868668-15.904933,10.7519999-15.9569998z"/>
	</g>
	<text transform="matrix(1 0 0 1 1289 1953)" font-family="'SFProDisplay-Bold'" font-size="13px">Exporting</text>
	<text transform="matrix(1 0 0 1 1289 1971)" font-family="'SFProDisplay-Regular'" font-size="13px">Symbols should be outlined when exporting to ensure the</text>
	<text transform="matrix(1 0 0 1 1289 1989)" font-family="'SFProDisplay-Regular'" font-size="13px">design is preserved when submitting to Xcode.</text>
	
		<text id="template-version" transform="matrix(1 0 0 1 2956.4257812 1933)" font-family="'SFProDisplay-Regular'" font-size="13px">Template v.3.0</text>
	<text transform="matrix(1 0 0 1 2880.0063477 1951)" font-family="'SFProDisplay-Regular'" font-size="13px">Requires Xcode 13 or greater</text>
	
		<text id="descriptive-name" transform="matrix(1 0 0 1 2889.3754883 1969)" font-family="'SFProDisplay-Regular'" font-size="13px">Generated from trash.circle</text>
	<text transform="matrix(1 0 0 1 2919.7490234 1987)" font-family="'SFProDisplay-Regular'" font-size="13px">Typeset at 100 points</text>
	<text transform="matrix(1 0 0 1 263 726)" font-family="'SFProDisplay-Regular'" font-size="13px">Small</text>
	<text transform="matrix(1 0 0 1 263 1156)" font-family="'SFProDisplay-Regular'" font-size="13px">Medium</text>
	<text transform="matrix(1 0 0 1 263 1586)" font-family="'SFProDisplay-Regular'" font-size="13px">Large</text>
</g>
<g id="Guides">
	<g id="H-reference" transform="matrix(1 0 0 1 339 696)">
		<path fill="#27AAE1" d="M0.976562,0h2.6855481l25.6835899-67.1387024h0.6836014v-3.3202972H28.125L0.976562,0z
			 M11.6698999-24.4629002h35.3027992L46.2402-26.7089996H12.4511995L11.6698999-24.4629002z M55.1269989,0h2.6366997
			L30.6152-70.4589996h-1.1718006v3.3202972L55.1269989,0z"/>
	</g>
	<line id="Baseline-S" fill="none" stroke="#27AAE1" stroke-width="0.5" x1="263" y1="696" x2="3036" y2="696"/>
	<line id="Capline-S" fill="none" stroke="#27AAE1" stroke-width="0.5" x1="263" y1="625.5410156" x2="3036" y2="625.5410156"/>
	<g id="H-reference_1_" transform="matrix(1 0 0 1 339 1126)">
		<path fill="#27AAE1" d="M0.976562,0h2.6855481l25.6835899-67.1387024h0.6836014v-3.3202972H28.125L0.976562,0z
			 M11.6698999-24.4629002h35.3027992L46.2402-26.7089996H12.4511995L11.6698999-24.4629002z M55.1269989,0h2.6366997
			L30.6152-70.4589996h-1.1718006v3.3202972L55.1269989,0z"/>
	</g>
	<line id="Baseline-M" fill="none" stroke="#27AAE1" stroke-width="0.5" x1="263" y1="1126" x2="3036" y2="1126"/>
	<line id="Capline-M" fill="none" stroke="#27AAE1" stroke-width="0.5" x1="263" y1="1055.5400391" x2="3036" y2="1055.5400391"/>
	<g id="H-reference_2_" transform="matrix(1 0 0 1 339 1556)">
		<path fill="#27AAE1" d="M0.976562,0h2.6855481l25.6835899-67.1387024h0.6836014v-3.3202972H28.125L0.976562,0z
			 M11.6698999-24.4629002h35.3027992L46.2402-26.7089996H12.4511995L11.6698999-24.4629002z M55.1269989,0h2.6366997
			L30.6152-70.4589996h-1.1718006v3.3202972L55.1269989,0z"/>
	</g>
	<line id="Baseline-L" fill="none" stroke="#27AAE1" stroke-width="0.5" x1="263" y1="1556" x2="3036" y2="1556"/>
	<line id="Capline-L" fill="none" stroke="#27AAE1" stroke-width="0.5" x1="263" y1="1485.5400391" x2="3036" y2="1485.5400391"/>
	
		<line id="left-margin-Ultralight-S" fill="none" stroke="#00AEEF" stroke-width="0.5" x1="511.3048096" y1="600.7849731" x2="511.3048096" y2="720.1209717"/>
	
		<line id="right-margin-Ultralight-S" fill="none" stroke="#00AEEF" stroke-width="0.5" x1="600.0485229" y1="600.7849731" x2="600.0485229" y2="720.1209717"/>
	
		<line id="left-margin-Regular-S" fill="none" stroke="#00AEEF" stroke-width="0.5" x1="1399.6877441" y1="600.7849731" x2="1399.6877441" y2="720.1209717"/>
	
		<line id="right-margin-Regular-S" fill="none" stroke="#00AEEF" stroke-width="0.5" x1="1496.4769287" y1="600.7849731" x2="1496.4769287" y2="720.1209717"/>
	
		<line id="left-margin-Black-S" fill="none" stroke="#00AEEF" stroke-width="0.5" x1="2872.4267578" y1="600.7849731" x2="2872.4267578" y2="720.1209717"/>
	
		<line id="right-margin-Black-S" fill="none" stroke="#00AEEF" stroke-width="0.5" x1="2989.8405762" y1="600.7849731" x2="2989.8405762" y2="720.1209717"/>
</g>
<g id="Symbols">
	<g id="Black-S">
		<path d="M2944.9821777,607.654541c0.5288086-0.793335,1.5446777-1.1845093,2.8549805-0.680603
			c1.4746094,0.5671997,3.8000488,1.6259766,8.5078125,5.5396118c3.2121582,2.6702271,5.5112305,6.2792358,5.8422852,7.7139893
			c0.2268066,0.9830933-0.2458496,2.1553345-1.5881348,2.1553345c-0.9130859,0-1.7966309-1.0595093-2.3254395-1.8528442
			c-0.5290527-0.793396-2.5275879-3.4719849-5.1313477-5.6132202c-2.8740234-2.3633423-6.34375-4.2770996-7.3093262-4.7287598
			C2944.6606445,609.6397705,2944.5871582,608.2470093,2944.9821777,607.654541z"/>
		<path d="M2927.5708008,676.4266357c-0.8078613-0.5067139-1.2270508-1.5113525-0.7595215-2.8349609
			c0.5258789-1.4898682,2.1247559-3.9177246,6.0039062-8.6539917c2.7478027-3.3548584,5.677002-5.4031982,7.1020508-5.7739258
			c0.9765625-0.2540894,2.2744141,0.2977295,2.3115234,1.6395874c0.0253906,0.9126587-0.833252,1.451416-1.7470703,2.230896
			c-0.7255859,0.6187744-3.0117188,2.4716187-5.0800781,5.1337891c-2.2827148,2.9382935-4.4348145,6.1820679-5.1337891,7.1228027
			C2929.4960938,676.3296509,2928.1740723,676.8049927,2927.5708008,676.4266357z"/>
		<path d="M2952.9907227,678.4645386c-0.8786621,0.369873-2.1452637,0.0073242-2.8864746-1.1846924
			c-0.8288574-1.3330688-1.7202148-3.1447754-2.8491211-8.0098267c-0.9443359-4.0687866-1.2143555-7.6519165-0.6989746-9.0311279
			c0.3532715-0.9451904,1.420166-1.7017212,2.6071777-1.0751343c0.9677734,0.5106812,0.9912109,2.0568848,0.9946289,3.010376
			s0.1386719,3.4971313,1.1289062,6.7196045c1.0927734,3.5566406,1.9084473,6.020813,2.3383789,7.0153198
			C2954.138916,677.0968628,2953.6472168,678.1883545,2952.9907227,678.4645386z"/>
		<path d="M2908.3359375,710.4720459c-0.6298828,0.7158203-1.6887207,0.9680786-2.920166,0.2940674
			c-1.3859863-0.758667-8.439209-5.4098511-12.5170898-9.9761353c-5.2390137-5.8666382-7.4355469-11.736084-7.5725098-13.2020874
			c-0.0939941-1.0046387,0.4348145-2.0161133,1.8210449-1.991333c0.9128418,0.0162964,1.3674316,0.6099854,1.9143066,1.8931274
			c0.3737793,0.8771362,3.2956543,6.9804688,7.1508789,11.0516357c4.9313965,5.2073364,10.7211914,8.7301025,11.6179199,9.3064575
			C2908.9191895,708.5473633,2908.8063965,709.9375,2908.3359375,710.4720459z"/>
		<path d="M2960.036377,627.5257568c16.8000488,0,19.8041992,18.5546265,19.7504883,32.7872925
			c-0.1328125,35.2642212-25.7819824,48.0650024-43.1115723,48.0650024c-27.340332,0-41.8891602-28.1983032-47.1691895-38.1752319
			c-0.3183594-0.6015015-7.0793457-11.2305908-4.095459-19.8109741c0.8520508-2.4505615,1.8205566-4.7685547,3.3969727-6.661377
			c-0.0869141-2.6953125,0.7473145-7.1836548,2.4672852-10.1791382c2.0771484-3.6170044,5.1225586-5.5239868,5.1755371-5.5617065
			c0.0280762-0.1445923,1.338623-7.8453979,8.4560547-12.0634766c8.7697754-5.1974487,15.0244141-2.2402954,17.3994141-1.1185303
			c1.861084-0.6633911,3.8288574-1.1060791,5.8259277-1.0054321c4.0751953,0.2054443,7.6123047,1.5608521,10.6179199,3.4244385
			c6.4794922,4.0175781,10.4892578,10.3969727,12.0983887,12.7064819
			C2953.6000977,628.3631592,2956.7224121,627.5257568,2960.036377,627.5257568z M2936.675293,694.3780518
			c10.2145996,0,29.1115723-7.088562,29.1115723-34.0650024c0-18.4176025-3.8266602-18.7872925-5.7504883-18.7872925
			c-6.8137207,0-5.8972168,12.7623901-8.8579102,12.7623901c-2.9604492,0-9.9799805-16.2493286-17.7958984-23.5842285
			c-1.0571289-0.9921265-4.206543-4.0698853-7.1604004-2.3114624c-1.4958496,0.8904419-1.3100586,3.4578857-0.1716309,5.2406006
			c0.5024414,0.7867432,9.8381348,16.7940674,10.5507812,17.9342651c0.6721191,1.0756226-1.3925781,1.6782227-1.7419434,1.2519531
			c-0.873291-1.0655518-15.0334473-21.6898804-16.2128906-23.317688c-0.8825684-1.2176514-3.003418-3.6745605-6.4477539-1.6246338
			c-2.7353516,1.6279907-2.4526367,4.815918-1.0915527,6.8537598c1.361084,2.0379028,14.2475586,21.378479,15.159668,22.6959839
			c0.6921387,0.9997559-1.4335938,1.8115234-1.8063965,1.3300171c-1.9189453-2.4786987-11.6552734-15.8613892-13.611084-18.3468018
			c-0.9042969-1.1494141-3.4006348-2.788147-6.3549805-0.9604492c-1.9284668,1.1929321-2.3815918,4.4593506-0.6538086,6.8609009
			c3.0895996,4.2942505,13.6601562,18.9171143,15.2695312,21.0626221c0.871582,1.1622314-1.4746094,2.295166-1.9311523,1.7164307
			c-2.0026855-2.5388794-9.1765137-12.4279175-11.0856934-14.6973267c-1.3862305-1.6477051-3.4865723-3.7340088-5.864502-2.2528687
			c-2.1203613,1.3205566-1.807373,5.5808716,0.536377,9.4406128
			C2903.1088867,665.4396973,2915.4587402,694.3780518,2936.675293,694.3780518z"/>
	</g>
	<g id="Regular-S">
		<path d="M1456.4162598,616.590332c0.480835-0.7213135,1.404541-1.0769653,2.5957031-0.6188354
			c1.3408203,0.515686,3.4552002,1.4783325,7.7354736,5.0366821c2.9204102,2.4277954,5.0107422,5.7091064,5.3117676,7.0135498
			c0.2062988,0.8939209-0.2235107,1.9597168-1.4439697,1.9597168c-0.8300781,0-1.6334229-0.9633179-2.1143799-1.6846313
			c-0.480835-0.7213745-2.2980957-3.1567383-4.6654053-5.1035767c-2.612915-2.1488037-5.7677002-3.8887329-6.6456299-4.2994385
			C1456.1240234,618.3953247,1456.0571289,617.1290283,1456.4162598,616.590332z"/>
		<path d="M1444.5708008,674.7597046c-0.7344971-0.4606934-1.1156006-1.3741455-0.6906738-2.5775757
			c0.4782715-1.3546143,1.9318848-3.5620117,5.4588623-7.8682861c2.498291-3.0502319,5.1616211-4.9125977,6.4572754-5.2496948
			c0.8878174-0.230957,2.067749,0.2706909,2.1015625,1.4907227c0.0230713,0.829834-0.7575684,1.3197021-1.5883789,2.0283813
			c-0.659668,0.5626221-2.7384033,2.2471924-4.6188965,4.6676636c-2.0754395,2.6715088-4.0322266,5.6207886-4.6676025,6.4760742
			C1446.3212891,674.6715088,1445.1191406,675.1037598,1444.5708008,674.7597046z"/>
		<path d="M1467.6827393,676.6126099c-0.7990723,0.3363037-1.9505615,0.0066528-2.6245117-1.0771484
			c-0.75354-1.2120361-1.5639648-2.8592529-2.5904541-7.2825928c-0.8583984-3.6994019-1.1040039-6.9571533-0.635376-8.2111816
			c0.321167-0.859314,1.2911377-1.5471802,2.3704834-0.9775391c0.8797607,0.4643555,0.901123,1.8701782,0.9042969,2.7370605
			c0.0030518,0.8669434,0.1259766,3.1796875,1.0263672,6.1095581c0.9936523,3.2337036,1.7351074,5.4741211,2.1260986,6.3783569
			C1468.7266846,675.3690796,1468.279541,676.3614502,1467.6827393,676.6126099z"/>
		<path d="M1430.6937256,702.9742432c-0.5726318,0.6508179-1.5355225,0.880249-2.6549072,0.2674561
			c-1.2602539-0.6898193-7.6729736-4.9187622-11.3806152-9.0704346c-4.7634277-5.3339233-6.7606201-10.6704712-6.8851318-12.003418
			c-0.0853271-0.9133911,0.3953857-1.8330078,1.6558838-1.8105469c0.8299561,0.0148315,1.243042,0.5546265,1.7403564,1.7212524
			c0.3398438,0.7975464,2.99646,6.3466797,6.501709,10.0482178c4.4835205,4.7345581,9.7476807,7.9375,10.5631104,8.4614868
			C1431.223999,701.2243652,1431.12146,702.4882202,1430.6937256,702.9742432z"/>
		<path d="M1474.088623,635.8675537c12.3883057,0,12.3883057,16.3731079,12.3883057,24.2415771
			c0,29.1566162-21.0123291,38.132019-33.6281738,38.132019c-21.4750977,0-33.9255371-23.8364258-37.944458-31.706604
			c-3.1722412-6.2122192-4.5147705-8.939209-3.2796631-14.0313721c0.5418701-2.2338867,1.8265381-4.100769,3.5501709-5.3964233
			c-0.9838867-4.3604126,0.4992676-9.013916,4.1530762-11.72052c0.689209-0.5105591,1.4284668-0.9338989,2.2060547-1.2663574
			c-0.0114746-0.8730469,0.1411133-6.940979,5.8468018-9.9197388c6.1210938-3.1954956,10.170166-0.6585693,12.1273193,0.840271
			c1.6732178-1.0805054,3.5959473-1.6506348,5.5722656-1.6503906c4.7979736,0.0006714,8.215332,3.2080078,9.6743164,4.5773926
			c3.7388916,3.508728,7.0672607,8.5181885,9.8594971,12.9567261
			C1466.5200195,638.1613159,1469.4530029,635.8675537,1474.088623,635.8675537z M1452.8487549,691.0811768
			c9.2869873,0,26.4682617-6.4448242,26.4682617-30.9720459c0-16.7453613-3.479248-17.081543-5.2283936-17.081543
			c-6.1950684,0-5.3619385,11.6036377-8.0535889,11.6036377s-9.0739746-14.7740479-16.1800537-21.4428711
			c-0.9611816-0.9020996-3.737793-3.791687-6.510376-2.1016846c-1.3515625,0.8237915-1.1911621,3.1439819-0.15625,4.7647095
			c0.4569092,0.7153931,8.9328613,15.2770996,9.5928955,16.3060303c0.9718018,1.5145874-0.6850586,2.3287354-1.5836182,1.1383057
			c-0.9597168-1.2713013-13.6585693-19.7278442-14.7409668-21.2005615
			c-1.3575439-1.8468628-3.3270264-3.0355835-5.8621826-1.4770508c-2.4655762,1.515686-2.2299805,4.3786011-0.9925537,6.2314453
			c1.2375488,1.8527832,12.9411621,19.4463501,13.7833252,20.635376c0.9790039,1.3822632-0.5999756,2.553772-1.6424561,1.2091675
			c-1.7462158-2.2524414-10.574707-14.4389648-12.3752441-16.6809082c-1.3122559-1.6339722-3.8848877-2.2371826-5.7780762-0.8734131
			c-1.6728516,1.2050781-2.1654053,4.0546265-0.5944824,6.2380371c2.8092041,3.9043579,12.4361572,17.1875,13.8831787,19.1502075
			c1.1362305,1.5412598-0.3577881,3.4088135-1.7557373,1.5606689c-1.7736816-2.3448486-8.3433838-11.2996216-10.0791016-13.362854
			c-1.260376-1.4981689-3.2332764-3.3640137-5.3322754-2.0484009c-1.9240723,1.2061157-1.6430664,5.0741577,0.487793,8.5834961
			C1422.329834,664.7702026,1433.5583496,691.0811768,1452.8487549,691.0811768z"/>
	</g>
	<g id="Ultralight-S">
		<path d="M565.9693604,618.0615845c0.4595947-0.6894531,1.3424683-1.0294189,2.4810181-0.5914917
			c1.2816162,0.4929199,3.3026123,1.4130249,7.3938599,4.814209c2.7913818,2.3205566,4.7894287,5.4569702,5.0771484,6.7037964
			c0.1971436,0.8544312-0.213623,1.8731079-1.380188,1.8731079c-0.793457,0-1.5613403-0.9207153-2.0209961-1.6102295
			c-0.4596558-0.6894531-2.1965942-3.0172729-4.4594116-4.8781738c-2.4974365-2.053833-5.5128784-3.7169189-6.3520508-4.1094971
			C565.6900024,619.7868652,565.6260986,618.5764771,565.9693604,618.0615845z"/>
		<path d="M554.6470337,673.6616821c-0.7019653-0.4403687-1.0662231-1.3134155-0.6600952-2.4636841
			c0.4571533-1.2947998,1.8466187-3.4047241,5.2177734-7.520813c2.3878784-2.9155273,4.9335938-4.6955566,6.1719971-5.0177612
			c0.8485718-0.2208252,1.9765015,0.258728,2.0088501,1.4248657c0.0220337,0.7931519-0.7241211,1.2613525-1.5183105,1.9387817
			c-0.6304932,0.5377197-2.6174316,2.1478882-4.4147949,4.4614868c-1.9837646,2.5535278-3.854187,5.3724976-4.4614868,6.1900635
			C556.3203125,673.5773926,555.1712646,673.9905396,554.6470337,673.6616821z"/>
		<path d="M576.7382812,675.4327393c-0.7637939,0.3214111-1.864502,0.0063477-2.508667-1.0296021
			c-0.7202759-1.1584473-1.4949341-2.7329712-2.4760132-6.9608765c-0.8204956-3.5360107-1.0552368-6.6499023-0.6072998-7.8485107
			c0.3069458-0.8213501,1.2340698-1.4788818,2.2658081-0.9343262c0.8408813,0.4437866,0.8613281,1.7875366,0.8642578,2.6161499
			s0.1205444,3.0391846,0.9810791,5.8396606c0.9497681,3.0908813,1.6584473,5.2323608,2.0321655,6.0966187
			C577.7360229,674.2441406,577.3085938,675.192688,576.7382812,675.4327393z"/>
		<path d="M541.3830566,700.6300049c-0.5474854,0.6220703-1.4677124,0.8413696-2.5377808,0.2556152
			c-1.2044678-0.6593018-7.3340454-4.7014771-10.8779297-8.6697998c-4.5530396-5.0983276-6.4619751-10.1991577-6.5809937-11.4732056
			c-0.081543-0.8730469,0.3779907-1.7520752,1.5827026-1.7305298c0.793335,0.0141602,1.1882324,0.5300903,1.6635132,1.6452026
			c0.3248901,0.7622681,2.8641357,6.0663452,6.2145996,9.6044312c4.2854004,4.5253906,9.3170776,7.586853,10.0964966,8.0877075
			C541.8897705,698.9573975,541.7918701,700.1654663,541.3830566,700.6300049z"/>
		<path d="M582.861145,641.1411743c5.1051636,0,7.1873779,5.3647461,7.1873779,18.5170288
			c0,25.1490479-17.9811401,31.7940063-27.4891357,31.7940063c-17.6997681,0-28.4559326-21.0413208-32.1744995-27.8380127
			c-2.4613647-4.4987793-4.9190063-10.1796265-0.5714722-12.9690552c1.3561401-0.8701172,2.8119507-0.6663208,3.3588867-0.5918579
			c-3.293457-3.7915649-2.5961304-8.392395,0.1166992-10.2863159c2.5753174-1.7980347,5.0155029-0.9954834,5.3938599-0.8779297
			c-3.2320557-5.2929077-0.0202637-8.4975586,1.4644775-9.2888184c3.2116089-1.7114868,6.7182617-1.6389771,10.2116089,4.4244995
			c0.2793579-4.2738647,3.4716187-4.8099976,4.7744141-4.8099976c6.1431274,0,13.1722412,12.0718994,15.9247437,16.491333
			c1.1707764,1.8797607,2.656189,4.2648926,3.7040405,5.6277466
			C576.2230225,646.2423096,577.6312866,641.1411743,582.861145,641.1411743z M562.5593872,689.262207
			c8.8768311,0,25.2991333-6.1601562,25.2991333-29.6040039c0-16.0057983-3.3255005-16.3270264-4.9973755-16.3270264
			c-5.9214478,0-5.125061,11.0911255-7.697876,11.0911255s-8.6731567-14.121521-15.4653931-20.4957886
			c-0.9188232-0.8623047-3.7932129-3.5979614-6.2227783-2.0089111c-1.2661133,0.828125-1.1385498,3.005127-0.149292,4.5543213
			c0.4365845,0.6838379,8.5176392,14.6158447,9.1691895,15.5858154c0.8886108,1.322998-0.6040039,2.2902832-1.5137939,1.0879517
			c-1.3048706-1.7245483-13.0647583-18.8494873-14.0898438-20.2640381c-0.7668457-1.0582886-2.8125-3.2225342-5.6033325-1.4119263
			c-2.3208008,1.5056152-2.1314697,4.1852417-0.9486084,5.9561768c1.1829224,1.7710571,12.37323,18.5847778,13.1744385,19.723877
			c0.8133545,1.1563721-0.4312134,2.612793-1.5698853,1.1558228c-1.6774902-2.1463623-10.1290283-13.7842407-11.8286133-15.9441528
			c-0.7859497-0.9989014-3.0427856-2.4384155-5.5228271-0.8347778c-1.6549072,1.0700684-2.0698242,3.8755493-0.5682373,5.9624634
			c2.6849976,3.7319946,11.8833008,16.4309692,13.2699585,18.3045044c1.1807251,1.5953979-0.3816528,3.1312866-1.6782227,1.4916992
			c-1.7432251-2.2042847-7.9746704-10.8005371-9.6339111-12.772644c-1.2045898-1.4320068-2.970459-3.1208496-5.0965576-1.9579468
			c-1.904541,1.041626-1.5707397,4.8500977,0.4660645,8.2043457
			C533.3884277,664.1134644,544.1210938,689.262207,562.5593872,689.262207z"/>
	</g>
</g>
</svg>
